<mxfile host="Electron" modified="2024-09-15T05:14:21.024Z" agent="Mozilla/5.0 (Windows NT 10.0; Win64; x64) AppleWebKit/537.36 (KHTML, like Gecko) draw.io/23.1.5 Chrome/120.0.6099.109 Electron/28.1.0 Safari/537.36" etag="fcutOjNIde4E74vIt_9t" version="23.1.5" type="device">
  <diagram name="PÃ¡gina-1" id="8WFPnS6oq9bLF41u96n7">
    <mxGraphModel dx="1140" dy="1114" grid="1" gridSize="10" guides="1" tooltips="1" connect="1" arrows="1" fold="1" page="1" pageScale="1" pageWidth="1200" pageHeight="1200" math="0" shadow="0">
      <root>
        <mxCell id="0" />
        <mxCell id="1" parent="0" />
        <mxCell id="g001ETVMJZDUqIwChMej-2" value="&lt;statement&gt;&#xa;&#xa;" style="text;whiteSpace=wrap;fontSize=24;" vertex="1" parent="1">
          <mxGeometry x="60" y="160" width="930" height="160" as="geometry" />
        </mxCell>
        <mxCell id="g001ETVMJZDUqIwChMej-3" value="" style="shape=image;verticalLabelPosition=bottom;labelBackgroundColor=default;verticalAlign=top;aspect=fixed;imageAspect=0;image=data:image/png,iVBORw0KGgoAAAANSUhEUgAABFgAAACyCAYAAAB2k3tSAAAAAXNSR0IArs4c6QAAAARnQU1BAACxjwv8YQUAAAAJcEhZcwAADsMAAA7DAcdvqGQAAK0ySURBVHhe7N0HXBTH2wfwXwQhEEFABFTsCAGxJCrBhmKJEoldiSXYggUr0YAl2LBB9MUWFAkajdEYO8GSGDUxFmI0dg2IvQGioCgIcvzf2ds9uDsO2D04PfH5fj4n7N4wbnlmd3Z2dvaddu3a/Q/ljKvfNAS4WyNh52SExgoz33ieCIr2hqMwVbyr2DliNcrNqhNCyOvk6oPQADdYC5PFSj2J8KAtuChMEkIIIYSQt0cF4SchhBBCCCGEEEII0VK57MFCCCGEEEIIIYQQ8ipRDxZCCCGEEEIIIYSQUqIGFkIIIYQQQgghhJBSokeECNEXxkCeUR41e+qBCi/YTsgWJsobijO9Ua7jjBBCCCHkLUQNLIToiTyzPORZsgtfKpGv1zvswjetAipklM8WCIozPVHO44wQQggh5G1ENTtC9AVXGumi9/Xj9sErPDJyr5WPjp4GP1dhhq5RnOmHVxxnhBBCCCFE96h6R0rFdchXiIwOw9LJHrAU5hFCCCFEX5nDa/JsrIkOxfwhjsI8QgghhJQFamAhAk8ERS9BtPInyFP4riiOaOliB0MYwMzFBa2FuYQQQgh5BVx9EKp27g71K6nRpBkau5ixM7ch7Fw+wKvqPEcIIYS8DfSigcVt6Jf4ZqUfvIXpsqKrfPWBfqxbAk5cTkIuZEg7fxbHhLmlVZ73m25UR7fPp+PbsT5oJMwpG7rKVx+U53XTFYoz6crzulWD15eBWBbSr4wv0HWVrz7Ql3U7jfOXM9iZOxN3z53BRWFu6bxp+60xhs6dgZWTS7qRRAghhEijFw0sNrY1YGViIEyVHV3lqw/Kft0OI3TEZIyQf2KRIMwtycX132DUiEBMWRaHNGFeaZXn/aYbZqhZxRaVKpZ1cdZVvvqgPK+brlCcSVe+183elq2bUdnHg27y1Qc6WLeLWxCkOHeHn0SqMLt4T7FvyWyMHBGMWZvEnu1L8qbttyqwrWEFE0NhkhBCCCkj2p8JjezQI3AaZg12hpEwi5BXycZ7JBZN/wQOb2oAmrrCL2QaAjpVEWYQ/WOIJn6TEeLfHDbCnDcOxdkb4BXGGcUDIRJUgTer607vV5vquoQQQkTR7jXNNs3hP7EfmtkBSae3YlnEKaQIX8kZ2aHdgF7o0qIObLnbA7JspN85h5h12/Hn3Vw+jfdoRPdqwP9ehNS4SARFFdxdMXVuj0E93OBayxqVjA2A3Cw8Tk7E0Q0bsTtR+3zlyzukH7p/UBMWLF9ZdjqS4v/G5qjfcCVTSMM95xzghsc7F+CS0zh86vIeZPfjEBFyBU2n+cCjliky4/dhQdjhgm0hJl+Ge4tIgHsejoevR2LLgvS5T2/i1PZNiDr6iE+ozbpphRuPxRuOCbEYEXpYmKdM+F6YkisyLaOTeDBB8yGjMcTDHsYpZ7Eh/AccVQlC/Wbk8AmmjGuP+qaZuHZgHRZvvYUXlfOQZ57HJzBxQN9evdG2jh0sjLhYz0Ty7T/x/db9uJzFJ2nUOxhTGlvzE0WIPzQRC44IE6gIe1cv9PdoCkerKvI7d7KcDKQmnUXsrm048phPJT1fhlvefv3RqZatPN/cF8m4fukQ1u+Pw92XQhqPsVjfwQonNm+HrNNQtKxaAc8SYzF7by6GDumJJpWBB2fXYuauy8gR/kRUvkz3YcvQx/4//Lz4AEzy08uQnRaPfTvXYudtPrHYdVsUWwEVnlSQx27XsV+gt6slsm8cxLKwvUjMX7iywZd/IC58IaLKpq9+PoozijNlmuJB5b8xrY/efj3Q2onFg3COTU44gh9WFZyz+Hgtft0Sdk5GaKwwAUPYu3VFH+8maGDL9xiQZT9D6u1z2Lt2R/5xW3q+DLe8Y/qgg6Ow37KSceOfP7Bx80ncVayY/Nxiibjlu5DX93N8VN0Azy/uwdwfZfD9qjsaW7F6zPHvMSf6SsG2EJMv4x20BL3qx2PbpIMwyU/P4uHhVfz63br8eolW66YNoZ6CouoBwvfKS1JsnUEn8SCNkb0bhgzrgg9qWsDYgG3b9CTEH9uNqB3XkF+NqtcTIVPbonruNcTMjsDu/LqAIZqM+goT3KyRevI7BEdewcfcPit2iJpU1WOxqSuGBLE6nr0xUs78jPCVavVdQgghRI3kHixcBW369P5oVjUDF7eGY4564wo3Ov2ksfD1cOAvpjkGxrCo4wbfQW35aa04YtDQT+HewJZvXOEYmsCqRiN0n+iLDlrfWqgC7wC2vO51+AoEY2BsgRqNuyAg2AdN1PI1/2gIuruYs9O2AYyrO6P31H7wrMUNFmcAMyd39Mh/+FhavkBlOA9VTW9oXgfuvgPR541+PY+u4iELp9aHI2TzJTyt0hTDggMwpLmJ8J1+s2kzCLO+6oj6Bg9wZE0oFqhf5MAJfn7++NSxBn/RyzE0hW09L4zwcuKnteIB374d0cSGv+jlGBiZwbZWWwz9rDfq87Okq+iC0dzy1uMvRjiG79rCsdkAzBjcEbb8LEEF1Or4OdpUNWYlpiIqOzTDxL692UVvRfZdRVRr5Imu3K8cSfkyBtXQeYxyelZGLV3Qs98AsEsO7eQkYX/4Inx7+C5QtyMCFwxHV3thYfQcxRnFmbKS48ERI4JHoVtjFg9K51hbly4YOqg0b5ppi0GjPNFY6XEMA+NKsG3QGr7je6IeP0s6I2f4ccvrorTfTGzRwMMHQQGeaj2BWDz0HYhW1bl4MIS564cYP7oHGltxf2gIu4/a4WPFOVlSvgyLh45zldOzeKj6Prr7+6CFPMGbSlfxIIGNJwKCfOBeh2tc4WawbWtRA427jUKwn1Lv6eu7sGLPNWQb10eXEZ3y95FRk74Y6GYNWcpJbFqn1IAmReZFrJ+1FJsvPkWVDwYgeE5vNDcVviOEEEI0kNSDxabN5wjwbQqb7Ls4sn411p8SbnGqEHo33DmKhUt/QWJ6LmBqhQ89vViF9A7mrFC+HcmT3wVyvIqdI1aj6JscjhgytSOMLhzBrsOX8DCTnTwtnNB73GB0rmuM+G2BCNsnJBWIydfSezTm92oA2Y3DWBd5EP8+zJLn6z2yH7o6meP23nmYt/2p0p0fGVLi1iEkxRMrunOXCtlIjFmCLRbDMcPDLv9Ojeh8mYI7QDKkxf+O6JW/4Qrs0XeiP7wcjFn+QVi4W+jpIRC3zbRVUg8WZSJ7u5R5PBTgGv0CJ3ZEXeM0XNzxHb7dn6RdRYrh/29hQpPUkwgP2qLloICGcOg3BhO71oFx2iXsWLoB+xU9eJg8Rc8ChwFYMtgdxld3YM6OP8FCB0ZmddCidRe0N/oD82Pihb9QcMLoSf5oiTgsXroZF4S5hbXHpHH1kfLXQey9fBPpL4H3arTGiD590MzqEY5+Px9RN4WkcuLy5e/WWyLlv+1Ys+ckrma8lOf7eXdvtLTNwamts7DiEkso71nAbdxMxB9ajH024zDJ1YpNpyJu82Jcc5uDQfUzcGJjCFYnSsiXkfcsqM39lok753dj9S9xSHn3A4wcMRQtLB6z/OdglcpmK37dKjwVehYoEXf8k44v/2XZg4XijOJMWfHxkE84xxmf34X5UX8J59jaaN71Y3gY/4lF69V7OTjCL3QU3FHSMdED4+fVw8O9h7H/1C2ks4Ozad1WGD6yJz6weYTjYaGIVtlm4vLlyw3bb2d2IXrjSfm5hct30FAvuNu/xOnVcxHxD0uY3zsyk52fl2J/jdGY4MbHw8nlS3GtUzAGuGTklz/R+TIF54tM3I37BVHrTyLFtClGTPscza0fs/znI/KcPKlA7DbTUkk9WJSJ7O1S9vEgljnbvlPZ9pXhxoGfEBnD1fsMYdG4A0b6doKT+R3sDVqB7fmDv1Vh6Sex9AbyOtnCfTYYFfIF3CxvYf/Xy7G1ULcTKfUcjshyRAgh5K0nsgeLIZoMDkDwsKao8ugs1oWEF1Ppy0JONvtRpQ48m1jzdxgyH+PfPT9qvJgWLwHrF61C1B6+cYWTkx6Pn87eY78Z4B3hBos0hmjdsB6Ms69gd1isvBGEw+W7Y2kcbrB8a9VvKp+X78kFxKy/gkwZ38Vedv8ktux+hOuPMuTTPC3yZTIT9iEsTOh6m3kX2y7cls+3sNH6Hp8e0FU8FMhJ3It5IZtx+qEZXPsFYJafK/TvBlMVdAqYikBWOcONgwibvrboytmzbHCbzNTWBe2q8b1ycjJu4tj+SA0XvVL8gaUro7HpHH/Ry3l+7xgO3+VqqBVgINytlcYJrWtZs2uV41j90zH5xSmHy3f1oYt4DAvUaqDaZ0F2/xiijzxCbh5fhjITD7ILrCw8eK5chqTnyzVQppz/AXN38I915GScwZ+3uSEfrWBZqBuCdClHf8CssIO4JqsGj5FBCOxhp4fP5FOcKVCccSTEw5NsecO0aU1ntK0txEP6LRz/KUrDxbQUR7Di6+/x03G+cYWTeeM4/rjOx0MFRU8iSRzR0oHtt6Q4RK08zjfcM1y+UTsusf1WGTUbq543ZbdOYF3sI8gU8XDxMNady0LSU+V4kJ6vPB7iNmF+FP/4UE76WfyVyMeDRU0+xRtJZ/EgklEzNKxvjOzL+xH2k6Lel4v0879h6V83WbWvJuq7y1MKHiE2fA8uZhrDoYsPRo3uCTfrTCTE/KihcUUbuUjcugIh6/7FQ7OG6BccAL83pNcsIYSQV0tUA0v1vmPg72kP02eXsCWkpLEu4vAjq4ikGdvD3fcrrIyYhmD/3ujoXPoTkanzx5jIvVYvcgmio4VPCeN2FK8eqlkZAMbOGLBKKU/us8oLDiyFgZkVlOtIqVf+xgmhkshJu30Z14XfC0jPl3P3ktL4LeWG7uJBRcopRMzfgH8eGsLO/XN8PUy7RxxiQxVvUirio9WduUpwHzsaA1wt2UXfX4iYV8L4Ckm/YOs/d5Bt/j4+9V2E6CmBCOrdFe62Wl2JKKkI++Z9MWP8PKwJXob1s/lPSWNFFM8eVhbsh3VbzBTyy/8McGOXGIB5JdWrzsT/YpEs/M65c/u4hh5H0vNlpRHXziuNq6EDXGPegvkHcF1mBqfu4zChSyXhG31AcaaM4kxiPNyJxbbDd5Ft6YRuU+YhMvxLTPH7GG6lflTJEPbtemPqgjmIWFNwLixp3I7i1YAV9+d2rTFD+fzKfSa0kO+3yuaqD/Nc+3evyvn17tU4DftQer5cPFw/oeXjJ/pMZ/EgkqMN5NUol95YpbYvVsl7DxvArEo1Pq1CThy+/e4fpBrXh1sTa2TGH8CaWGEMuzKScvRHzI88jYeGdnD3G49hjYUvCCGEEIGoBpb721Yhgp1oMys1hM/c4ehU6CFkVSm/r8WUSeGIPnAGd9Lfg32z1hg4ZQ6WBmp4flkkoyY+CA7oovIcN3kz6CIeCuHejDHDFy2q5iIp7gfMW1eaO/Bl7Rnivl2NzRfTYFC9Lfzn9NQwBo+ylzizZzEmLlmFbeevIOl/1nBq7IUxYxZiUU8Xre9m23qMxAzvtnCsYiY8z06kMrLvhMAZnVHPIAPxMSux/Ndnwjf6gOKsvCibOJMaD7k4tzEckyevwY64/5CcZw1H9y4YNWc+5o/Q/m2BNt5fIMi3NRrYVqJ4eKPoJh50zaKmRX4PVuN3K6G0zcXqTJv7YMaoZqiam4S4qBVYd174ghBCCBGIfESIP9GGrDuLR+YNMUDMgKKZd3H8p40Imf41xk/+AUfv58LMqR36txS+L8S02O60bTo0gY2BDClntmPeeKUeBTuvCimKUly+SUh/zn5knMV3yr0UlD/Bu3CHTyyBrvJVV/w20ytlHA/K5AMvL/CFu2Lg5aiLEJ4ik4x7pl75TlmhT6gP8scxluQRfg9fhLD9NwH7thgrYhDLnIz/8MuO1ZixJBDjo2Jw8VlFVGvaBb3MhQTqTCsVHpAzX3V0dXVkWzUTN+JWYeL8iRgym/8sPs91Zy9Gsfmm4RkX6/cPIEDIT/0zauNxPqkkuspXTbHrpko+SGiwF5yEQULDdms/1o/uUJxJU97jTIt4SI/HnqgozJw8HZPmxeLyE0PYteqMHkUNtm72XjEN5dXw8UcN+Hg4sAaTxxScA8PjSoiHYvNNh/xJr1sHMUX5vKr08Q+P45NKoqt81RS7bvqlbONBgnsZkFejzmzUuB+4T/DGB3xaBRtPDOvSAMYpcdh8+B5Quz0ClAfD1aRS5UK9iTXjxmAZiwUj3VA14xK2hoQjqozG4SKEEFK+iGxg4ak+Gz4ZAV01PBvu2htTp/qg24c2sBC+zMm5jYT7XK3FFKZcd2w1j+Q1mhpo1KsV6hYxeIapkTH7NxdPk24jmbt65gZK7eaDqe3qyr/XpOR8n+L0rSRWIWiEPoHeaOVgVkZ3ZXSVbwEx20wv6CgeFLgBIecEKt6MsQThpRjgVvfUnuEOGq+5obLNMCwa2B2t61rhPWHWy6fXcCtNPmIGzLl+6iqSkMaVCaMGaPvJ+7DQeMvODCby7Z+J1Pv3kfmSJTerg9ZdR2BQ/aJqymLyvYD/kthyVW+NL/t3QDPLsnr0S1f5KohZNwWuYj0ewcM+5CvWoSvKbIBb3aA4E+9tiDOR8eA1BPMmsvOVsxXb+7zctOu49ZCLBxMUejKGrZv8RoKxA9oMcso/vqsqiIdHN1k8sIMzN1Bqq8+G4rOGRcdDyfmy/XaHLVftlpjk3x4fVi3DeNBJvgpi1k1P6CQeJEi7AHk1qnE3BH72ARwsSuq67IgRAV5wNE7BPz/txO8bY/F3CqsjtOiOIU00/a3QmFbdGb062uevo2ZV0GbcZAR2rQeDB8ewZmYxYxkRQgh560l6i1A+m+bwn9gPzezYKTXuB8xX7jGQ/7YdDTIv4cfJa3FI7QrYqMNwLBnUsNAJLlVpdPuaAwMQzE6ChXoYy2SQGRjgmvD2HmVi8pW/knHOMLjbaO67rHgrUKER9735NxPk5yVM56cXmy+jeIuQ8jw59f9Diah1k0L4v4qikq+UtDqKB+5ipMng8fjC0x7GKWexIbyksYH0C9frZsq49qhvmon4PauxdHcSXije7pL/FpTCZCl/Yn7EDlwTphXqdwvEjBY1CpWP+EMTsUAYS7jdwIUY7li4GiljZcjAIC3/rSrKxOQLq46YPrI7nN4VplWkFuQrrJfib/m3t1irTaMgvdh8Gf7tLqrzOOr/h7Li1m1RrOLtLtwgoWPQ39US2TcOYllYCeNYaKHs3yJUgOKM4kyZpnjI/2+KOa5zY7gsCt5VaLyxeoO/xFTPwuumfC7zmBiCIY2LjgdNcS8mX663QlCwNzSEGpNakK/auVn9fFuo/InNl+HfIqQ6j1PkOZ0RtW4SKP6voijnKyWtruJBCu7R8Dlj3aC5GqX8pkFWH/CbjLHuNkg7+R2CI/kxcYyafIaQCS1gnRmPbTPXYF/+G4c4hugQMAuDXNV3tNr+ZHW5wTMGwtPeGClnfkb4ylPlcKw8QgghZUlSD5Z83ICic8IRE5+OnCwZVNrxL8bg+z0XcO9xVv783KzHuHf+VywOKnwxzck5tAHLYtjfpGdDJsxTd2fTBmyIu4n0bD6FLPsZki8fRuSP/0LlnKlETL7IuYKokEjsOX8Pj7PK8I6ErvIViFo3faCjeOA8yniO59cOImzWm9W4wpEPYjl9A+KSs/Hy+UvVXjcntuP701eRnKlYfxmyM5ORcHozZkYVvujlXNsTzf/NC/4tKJr8uTUSu64nQxGOuS8e4cbl3Vh8XFOOPDH54vFBLF63GX/cTsaznDKMRl3lKxC1bshEemYWktm2DylpkFA9RHEmwlsUZ8XGw2+7sOFIIpKfKcXDs2RcPbIFc0MKX0xzrm9cz/9NMee4I6u+Q8xlpXhgx/+bp39B+H5NOfLE5IuUwwgP3YIjV9l+E+oFZUJX+QpErZs+0FE8SJFzbgtCwn/F+XuP8+NHE0uv4fjC3QYGqf9g07qCAYdzzm3DppOpgKkTPhmpPuZbLg59y2KT1dEU9UrN0pDxPBPX9n+LWdS4QgghRATterAQQspcnqJnAXntKjxV9CzQvUJ30HWM4kx/vMo4I4QQQgghukc1O0IIIYQQQgghhJBSoh4s5ZIngqK9oXl0BXXKzzGT14l6FugP6sFCXgXqwUJUFDdmmbrUkwgP2oJXcMgoG+V53QghhBAlVLMjhBBCCCGEEEIIKSXqwUKInqCeBXriHaBCWgVUyCif7c8UZ3qinMcZIYQQQsjbiBpYCNEXxuzi91268H3t2C545+U7eOcFuwIujyjO9EN5jzNCCCGEkLcQNbAQQgghhBBCCCGElBI1sBBC3g5czw2jPBp5Sg9UeMF2QrYwQQghhBBCSDlBDSyEkLdCnlke8izzADrivV409gghhBBCCCmnqIZLCHk7cEc7alx5/bh9QGceQgghhBBSDlE1l5SK65CvEBkdhqWTPWApzCOEEEL0jzm8Js/GmuhQzB/iKMwjhBBCCCk79IgQEXgiKNobKlXOhFiMCD0sTGjiCL/QUXC35n6/ip0jViNWPp+UH/UwYuFYtLIBUuMiERSVIMwvLV3lWzR6PbH+qPC0Aio8ofZ9UgquPggNcIP89CMo+ViidJ5LPYnwoC24KJ9PCCGEEFI29KKG6zb0S3yz0g/ewnRZ0VW++kA/1i0BJy4nIRcypJ0/i2PC3NJ6s/ZbNXh9GYhlIf3gKswpX64jOV34tUzpKl9dqI5un0/Ht2N90EiYUzZ0la8+KM/rpqsyX56PJfqybqdx/nIGO2Nl4u65M2XUuPKm7bfyfs4ihBBCXi+9aGCxsa0BKxMDYars6CpffVD263YYoSMmY4T8Ewux/Qkurv8Go0YEYsqyOKQJ80rrzdpvZrC3tUUlo/J/Nz495brwW9nSVb5lxww1q7B9XLGs97Gu8tUH5XvddFPmy/OxRAfrdnELghTnrPCTSBVmF+8p9i2ZjZEjgjFrU1n1mnvT9tvbc84ihBBCXgftz7BGdugROA2zBjvDSJhFCCmKIZr4TUaIf3PYCHPeFLL/yeQ/82S58p9lRVf55jN1hV/INAR0qiLMIPrnFZYLigdCJHhzz1mEEELI66TdGCw2zeE/sR+a2QFJp7diWcQppAhfyRnZod2AXujSog5sTQzZlVQ20u+cQ8y67fjzrnAx5T0a0b0a8L8XQf15alPn9hjUww2utaxRydgAyM3C4+REHN2wEbsTtc9XvrxD+qH7BzVhwfKVZacjKf5vbI76DVcyhTTC896Pdy7AJadx+NTlPcjuxyEi5AqaTvOBRy1TZMbvw4KwwwXbQky+jKsfq/S75+F4+HoktixIn/v0Jk5t34Soo4/4hNqsm1aE59SLHINF4ngtOooHSUTti5oYHDIentVzkRizBAt3C9udMWryGUImtIB16j9YHvwTZEO4fab89H9hCTsnI1QxKA37/7uO/QK9XS2RfeMgloXtRWKO8J2e4+PTWnV9NHLEkPkj4GGdiuMR4Yg+V3zDifh8pTNy+ARTxrVHfdNMXDuwDou33sIL5TFYTBzQt1dvtK1jBwsj7liSieTbf+L7rftxOYtP0qh3MKY0Ln4fxx+aiAVHhAlUhL2rF/p7NIWjVRXIQz0nA6lJZxG7axuOPOZTSc+X4Za3X390qmUrzzf3RTKuXzqE9fvjcPelkMZjLNZ3sMKJzdsh6zQULatWwLPEWMzem4uhQ3qiSWXgwdm1mLnrMvJDT0y+TPdhy9DH/j/8vPgATPLTy5CdFo99O9di520+sdh1WxQrjMHyisqFpnhQ+W9M66O3Xw+0dmLxIJxbkhOO4IdVBccHRbwWRzWWDWHv1hV9vJugga0VHw/Zz5B6+xz2rt2Bo8KJQnq+DLe8Y/qgg6Ow37KSceOfP7Bx80ncVayY/Jhqibjlu5DX93N8VN0Azy/uwdwfZfD9qjsaW7Hz9/HvMSf6SsG2EJMv4x20BL3qx2PbpIMwyU/P4uHhVfz63br887FW66YN4fyMos4RUsdr0Uk8SCRmXxi5I2BJP7iapuLk8m8QqXTMtenhj9nd6wOJ+zB74e+wkbq8b/A5ixBCCHmdJPdg4Sqq06f3R7OqGbi4NRxz1BtXuFH6J42Fr4cDfzHNMTCGRR03+A5qy09rxRGDhn4K9wa2fOMKx9AEVjUaoftEX3TQuhtNFXgHsOV1r8NXpBgDYwvUaNwFAcE+aKKWr/lHQ9DdxZxVnQ1gXN0Zvaf2g2ctMzZlADMnd/TIf6hZWr5AZTgPVU1vaF4H7r4D0eeNfj2PruJBCrH74g42rvgNidnGcOjigx6K23ZGzhg2sAWsZSmI27QN57SpZOYkYX/4Inx7+C5QtyMCFwxHV3the+i5i1EL5d3wS7xQcP0ALnZsnQzt4NbJXZhZNNH5SmTTZhBmfdUR9Q0e4MiaUCxQv5iGE/z8/PGpYw2+cYVjaArbel4Y4eXET2vFA759O6KJDd+4wjEwMoNtrbYY+llvsEsd7VR0wWhueevxF1ocw3dt4dhsAGYM7ghbfpagAmp1/BxtqhqzI1JFVHZohol9e6NJ5Yrsu4qo1sgTXblfOZLyZQyqofMY5fTsGGjpgp79BoBd2mrnFZSLkuPBESOCR6FbYxYPSucWW5cuGDqoNG+aaYtBozzRuAbfuMIxMK4E2wat4Tu+J+rxs6RjxyM/bnldlPabiS0aePggKMBTrbcBi4e+A9GqOhcPhjB3/RDjR/dAYyvuDw1h91E7fKw4/knKl2Hx0HGucnoWD1XfR3d/H7SQJ3hT6SoeJBC7L3Li8O13/yAV1nAb2LfgXGbTCSO61Idx5lXsjf5drY4m0ht8ziKEEEJeJ0k9WGzafI4A36awyb6LI+tXY/0p4VavCqF3w52jWLj0FySm5wKmVvjQ04tVzO9gzgrl27I8+d0wx5LeQuOIIVM7wujCEew6fAkPM1kdxMIJvccNRue6xojfFoiwfUJSgZh8Lb1HY36vBpDdOIx1kQfx78Mseb7eI/uhq5M5bu+dh3nbnyrdAZMhJW4dQlI8sYK7O4RseW+HLRbDMcPDLv8OkOh8mYI7YTKkxf+O6JW/4Qrs0XeiP7wcjFn+QVi4W7U3gLhtpq2SerAoE9nbpczjQTwp+4Jjw9IHs/QG8jt/f6DaqK8wwc0St/aHYu7Wgl4tPOFNShD/Rgpx5UgM5bc4FUHUPiwrih4sT/HP96FYfUI1ZnXPEA79xmBi1zowTruEHUs3YL+ihxST/xYhhwFYMtgdxld3YM6OP8HCAUZmddCidRe0N/oD82Pihb9QcMLoSf5oiTgsXroZF4S5hbXHpHH1kfLXQey9fBPpL4H3arTGiD590MzqEY5+Px9RN4WkcuLy5XuFWCLlv+1Ys+ckrma8lOf7eXdvtLTNwamts7DiEkso78HCXQBmIv7QYuyzGYdJrlZsOhVxmxfjmtscDKqfgRMbQ7A6UUK+jLwHS23ut0zcOb8bq3+JQ8q7H2DkiKFoYfGY5T8Hq1Q2W/HrpuktQmVXLhSKj4d8wrHd+PwuzI/6Szi31Ebzrh/Dw/hPLFqv3stBbJn3wPh59fBw72HsP3UL6Tns0Fe3FYaP7IkPbB7heFgoolW2mbh8+fMF229ndiF640n5MZXLd9BQL7jbv8Tp1XMR8Q9LKO/BwvUKzGTnpaXYX2M0O47x8XBy+VJc6xSMAS4ZiAtfiCj2n4nOl+GP0dxvmbgb9wui1p9EimlTjJj2OZpbP2b5z0fkOXlSgfTjpCQl9WBRJrK3S9nHg3hS9gUX59yjPGPdbZB28jsER6bAa9pkdHd4gTPfLcDKQsdh6ctb9mWTEEIIKb9E9mBhJ/DBAQge1hRVHp3FupDwYk6wWcjJZj+q1IFnE2t+fJbMx/h3z48aL6bFS8D6RasQtYdvXOHkpMfjp7P32G8GeEe40SSNIVo3rAfj7CvYHRYrv/DmcPnuWBqHGyzfWvWbyufle3IBMeuvIFPGP2ogu38SW3Y/wvVHGfJpnhb5MpkJ+xAWJnRBzryLbRduy+db2Gh9r1MP6CoexJK+L1Jiv8POi5kwduiAEaMGY6CbtXzfrC7UuKKdlKM/YFbYQVyTVYPHyCAE9rArJ+MYsTI6I4hts/mvoXGlCjoFTEUgu5jGjYMIm75W88U051k2uJA0tXVBu2om8lk5GTdxbH+khsYVKf7A0pXR2HSOb1zhPL93DIfvcsM/V4CBVjd/ndC6ljW7Jj6O1T8dkzeCcLh8Vx+6iMewQK0Gqn1jZPePIfrII+Tm8ceozMSD7EI+Cw+eKx+jpOfLNQCnnP8Bc3fwjw/lZJzBn7e5oUWtYFmou4t0ZVsuJMTDk2x5jxbTms5oW1uIh/RbOP5TlIaLaSmOYMXX3+On43zjCifzxnH8cZ2PhwqKnkSSOKKlA9tvSXGIWnmcb7BmuHyjdlxi+60yajZWPV/Ibp3AuthHkCni4eJhrDuXhaSnyvEgPV95PMRtwvwo/pGVnPSz+CuRjweLmnyKN5LO4kEsqfsiF+eiNuHIfRms3Xpi9CgfdHEwZPtmK9aU0XG4/J6zCCGEkLInqoGlet8x8Pe0h+mzS9gS8kP+s+OaxeFHVglIM7aHu+9XWBkxDcH+vdHRma+olIap88eYOHcGVkYuQXS08JHfodNWPVSzMgCMnTFglVKe3GeVFxxYCgMzKyjXFVOv/I0TQmWZk3b7Mgq/A0V6vpy7l5TGbyk3dBcP4mizL3Jx6NtNOJlqDAe3RrDOjMfeNWW7b3IS92LB/AO4LjODU/dxmNClkvCNFAmIClK8+amIzyvrvfI6VYL72NEY4GoJ2f2/EDGvhLECkn7B1n/uINv8fXzquwjRUwIR1Lsr3G21uuJVUhH2zftixvh5WBO8DOtn85+SxiQpnj2sLNgP67aYKeSX/xngxi5lAfNKqq0bif/FIln4nXPn9nG1R2I40vNlRztcO680fosOlE25kBgPd2Kx7fBdZFs6oduUeYgM/xJT/D6GW6kfhzCEfbvemLpgDiLWFBx3ShoHo3g1YMX9uV1rzFA+lnGfCS3k+62yuerDPNf+3aty7Lp7NU7DPpSeLxcP108ojd9SXugsHsTSZl8oHm+1RhO3+jBM+Qc/RpXtvimbskkIIYSUf6IaWO5vW4UIVuHIrNQQPnOHo1Ohh7FVpfy+FlMmhSP6wBncSX8P9s1aY+CUOVgaqOE5bpGMmvggOKCLyvPs5M2gi3jQOQs7WJgKvxu/i0qlvfZWY2TfCYEzOqOeQQbiY1Zi+a/PhG+IdM8Q9+1qbL6YBoPqbeE/p6eGMY6UvcSZPYsxcckqbDt/BUn/s4ZTYy+MGbMQi3q6aH1n1tZjJGZ4t4VjFTMohm4g0pRNuZAaD7k4tzEckyevwY64/5CcZw1H9y4YNWc+5o/Q/i15Nt5fIMi3NRrYVqJ4eKPoJh50zahaFZgLdSMDds4yK+MFpXMWIYQQIo7IR4T4CkfIurN4ZN4QA4IDMKR5CT0QMu/i+E8bETL9a4yf/AOO3s+FmVM79G8pfF+IabHditt0aAIbAxlSzmzHvPFKd+h3XhVSFKW4fJOQ/pz9yDiL75Tv+it/gnfhDp9YAl3lq674baZXyjgexNNmX1SB97AOcDROwfHNf+E+aqNzgKaBiZWYvSe6sUg+6GawF5yEQTfDdidpeaeRe5Ze7Q6n+ifIU0hb3j3C7+GLELb/JmDfFmNFDMiYk/EfftmxGjOWBGJ8VAwuPquIak27oJe5kECdaaXCA7/mq46uro4sajNxI24VJs6fiCGz+c/i89xjE8UoNt80POPi9/4BBAj5qX9GbTzOJ5VEV/mqKXbdVJVdueBoEQ/p8dgTFYWZk6dj0rxYXH5iCLtWndGjqEHGiy3z1fDxRw34eDiwBpPHFBxvwuNKiIdi802H/EmvWwcxRfkYpvTxD4/jk0qiq3zVSDhOvm5lGw9SaLEvjJwx5LNmsMmOx86dl5BZuSkGahqYWNlrOWcRQggh5Z/IBhae6nO4kxHQVcNzuK69MXWqD7p9aAML4cucnNtIuM/VGExhynVLV/NIXpuogUa9WqGuoteAGlMjY/ZvLp4m3UYyN0YJN1BqNx9MbVdX/r0mJef7FKdvJbGKRiP0CfRGKwezMro7pat8C4jZZnpBR/EgnvR94TriC3R3NEbKPzH44fdd2PJ3CqthNsNnQzTdvRQacIwd0GaQU/46asYNujkewcM+RNWMS9gauqKcDRZYE31nzMaa6FB8M7H1a7iQykXi1hUIWfcvHpo1RL+g8ZobgtsMw6KB3dG6rhXeE2a9fHoNt9LkI7PAnOuDryIJadwxx6gB2n7yPiw09mYyg4l832ci9f59ZL5kyc3qoHXXERhUv6grMjH5XsB/SWy5qrfGl/07oJllWT1ap6t8FcSsm4KuyoXIePAagnkT2bHB2YrtfV5u2nXcesjFgwkKPY0hqswXxMOjmywe2NUoN1Bqq8+G4rOGRcdDyfmy/XaHLVftlpjk3x4fVi3DeNBJvgpSjpOvmU7iQQqp+4J7U99AuNtkI+HX7YiN3Ya98ZkwdeyAYd5VhDTK6JxFCCGE6JKktwjls2kO/4n90MyOnarjfsD8qIusGinIf9uOBpmX8OPktTikduvDqMNwLBnUML8yo5CqNMp/zYEBCO5oj0I9rWUyyAwMcE14e48yMfnKX4c4ZxirnGjuw614K1ChNw94829oyM9LmM5PLzZfRvEWIeV5cur/hxJR6yaF8H8VRSVfKWl1FA+SSNgX3KNoc8a6wSbtHywP/ol/JTP7+1EhX8DNOhPx275B2L6CNw5x6g3+ElM9axSKTdX9yQ26OQb9XS2RfeMgloWVMC7EG8kDgWt6wEm+IVI0vCXl1eFeJz9lXHvUN2X7bM9qLN2dhBeKtwjlv22nMFnKn5gfsQPXhGmF+t0CMaNF4X0cf2giFghjNbcbuBDDHdWjljtEyWBgkJb/9h5lYvKFVUdMH9kdTu8K0ypSC/IV1kvxt/xbgqzVplGQXmy+DP8WIdV5HPX/Q1lx67YoVvEWoVdTLjTFQ/5/U8zxjBvDZVHwrkLjbIkp8x4TQzCkcdHxoHh7jzJRxxIbTwQFe0NDqDGpBfmqnZPUzzP8NDulKdKLzZfh3yKkOo9T5LmMEXecFE/xfxVFOV8paXUVD5JI2Beqb70TXsls0wnTZnvBwZAdh5ez47DSPuLQOYsQQgjRHUk9WPKlnELEnHDExKcjJ0sGlXHqL8bg+z0XcO9xVv783KzHuHf+VywOKnwxzck5tAHLYtjfpGdDJsxTd2fTBmyIu4n0bD6FLPsZki8fRuSP/4J7J4MmYvJFzhVEhURiz/l7eJxVNiPuy+kqX4GoddMHOooHScTuC0sPTPrCDTYGqTi5aRvfuMJhf79u0z+sWmsKp08GwlvtDub1jeux4Ugikovdz5lIz8xC8unNCClp0M031hHs/TtF2GfaviWlbMgHZJy+AXHJ2Xj5/KVqd/YT2/H96atIzlTElwzZmclIYPtmZlThxhXOtT3R/N+8EF4PpMGfWyOx63oyFGGQ++IRblzejcXHNeXIE5MvHh/E4nWb8cftZDzLKcPSrqt8BaLW7RWVi2Lj4bddfPl9phQPz5Jx9cgWzA0pfDHNEVPmj6z6DjGXleKBHfdunv4F4fs15cgTdSxJOYzw0C04cpXtN+F8WCZ0la9A3HFSD+goHiQRuy9c+yGgewOYZl/Dr9FC4won5XdE/3oN2QY2+GhQ4cdb6ZxFCCGE6I52PVgIIUQd99her8H4okNtGGdewPrx30OtU8NrlafowUJeuwpPFT1YCCGEEEIIKT+ohksIKTXukYHoFTMwlmtckWUg/tdf9KpxhRBCCCGEEEJ0jXqwlEueCIr2huZRJtRdxc4Rq6HNY+KvR3letzcX18DSvfYzpN6+jGO7Y7Dniv4NhEg9WPQH9WAhKoobq0td6kmEB22B2rAi+qs8rxshhBBCCqEaLiGk1GJDJ2Ok/yxMX7RFLxtXCCGEEEIIIUTXqAcLIeStQD1Y9MQ7QIW0CqiQQe37hBBCCCGkfKEGFkLI28EYyHuXGlheO7YL3nn5Dt558Y4wgxBCCCGEkPLhHQsLizJrYOnatavwG3mdPvLpgjnDAoQpQgghhBBCCCGE6FqZNbAYvmcIj4898L93qEPM6+bxaXdqYCGEEEIIIYQQQl6hMmtgMbYxRrOPmwHUvvJ6vQN07tiPGlgIIYQQQgghhJBXqOxGGeRyosaV14/2AXnLtQpZj1On1iOklTCDkHKKYp2QV2d41O+svH2D4cI0IUQaKkPkbUGvcSCk1KpgSMRWxJ3ai+1fNxPmkbcXxQMhpUNliBBCSFlrhq+378WpuK2IGFJFmEdI2aMGFkJKrRPauFnCEEao7eYJupn8tpMYD8Z10DtkOWL/YCf9U9zdHe5DvRJI+cDfsZQazyLKUKspiMkvL/wnJoQaYwgpD6inQzGGf6Ny3OM+UUVtKClp3watPOFW2wgwtIRbm07CTELKnl40sHzY2R9z/D/Hx8J0WdFVvvqgPK/bm+d3HD2Zhlxk4Opfh3FcmPt2qYshK9fi4M8B1MAkKR6M0P+bcEz3coFdJXbSf+V0td/KczxQrOteeT2mUnmTri2Ct2zEHxE+wjQhhGjp+GGcvJUD5Kbg6IHfhZn6SlfHvvJ8TNWfddOLBhZrSztYGhsIU2VHV/nqg/K8bm+eR1jv3w/uzXthwDenhXlvGys41KqFyu9STEqKB5vB+LSVGZBxCZsm9Ufr5p3QXP4ZguBXclWpq/1WnuOBYl33RJSh44vRXVFeJuzHfWG2fqPyJl111Kpvh0oVhUlC3nZrvxLqCewTcUaYWQQpad8KpzGvzydo7j4Qk35+JMzTV7o69pXnY6r+rJv2DSzGdTAqcj1+nPoRjIVZRP/UHL4Iu9cOR5M3dSdRnJUzRvAIicTPYZ1RU5jzxjFvjZCf12P5gGrCjFJwsEJl9uP+0Q34v6OPkc3PJeUCxTohr041DGd1hbUTnN/YuoKxwyBE7l6JqR6vozcjIVSGyNtC97Gu3Wuaa3ZG2NIAdKgN3DoUjkmBB5BiZ4xmHYXnnw1t0Lp9N3RwrImqxoZAXjaePLyE/b/F4lhqLp/mo6FY3qoe/3sRHv+3HrP3XROmANNardHX/UM421jhvYoGgCwLaek38ffvW7H3vvb5ype3cw90rV8dlVm+spdPkHL3X2zffxgJL4Q0dXpidq8PkXY8HFfsv0DXWqbIe3Qa0ZsS0MinJ1ramCDr7kGEbz2Kh8KfiMqXcfaahDHv5+Hkzp9ww7kgfW7mHZw9ug0bLqXxCUWu27GXHwqvaa6EjjPC8HUvR5jc/RMLxocg5g6f7o2gIc6UF9/crT++GtkVrZzY9jJhcZaTgaQ75/DLggWIPJcjpBJw41xMGYfBnV1Qi3sUIzcTDxOOIGrucuxI1DItNwbA8q6oLkxy7u8LQvdgzXdcjR264uuZQ9DesSq4xVV1BhHNv8Ja9hv37LF/o1NY8fFmvLdoIvo3rYVKRrnIuvcvNs6cXbBu3LO1/jbY92UEZONmoGs9Qzw9EY3BYS8xfdVotLFj2y12DgbO/rvgwt28Cfzz82Sb7NltXD7wMxYt3o9Epat7scvAvcVkuVcN+e9FORPRCX7cinHYtvX9ZgH8W9kg6/ImTGJfnCvjVgV+mYB9E8q+F4hxk+FYtbg/Gptl4PymmRiz/ErBtpUYD3LC36CkdFJw+3iuPz5tVhtVhXJx++xOLJq6ASef8kkk7zcYweHjIRg3oh2a1rSTx05uVjrux/+J7+esyD+uSM+XEROTFOsavfpYr4upP0ehr+WfmNk5BHuFtCo+CcaBue2Qts0P/Rfd4LfvB9ewbdhC3P98Gga3qQ8rTcczjjZliCOmHImMB8movPHKuLzxcSP/tQj3VOPevDVmRE5BrwYmuPvHEoyfolpfKAv8MhWcq8tSze7TsXRqB9TGTRxaFIzAmAfCN80QEhMKL+zHhLHn4DV/uFCHyMHjy4ewcsZi1XqdYt+xbfONyUj83wRvuNYwhWHOY1zeswzj5h+DEJZy5m6+mDvZC81q8/WSnGdJuHN2HxYE/ajheMXisvcoTB3cAS61zNgU228PE/DHqoUIzl9enmp9h0t3C6d/icDMiHMq/z+HSztlan90UNTlWJ0rK88UJkbK21rYDtULb39+v6jFg8TtIGV5pRG7zSrBbfhojPR2h1N1CxH7QiBfzw8Kl3NNSkpbbssQI6y7suK2mbRyIZ4i1ju78MfJ3KyHSPhjPebOKzhOSj72iYwd6fmKKxf8eSgFEb1OoXn0ELiZ5+I6Oz98fuQjrA3uDidWhzi9ZgJGrS3YH+LKm1Dm8/ZgwpQr8MpPX/jYJ3ndXkGsS+7BwlW61q6djA410nF8uT8Gql30Ambo1GsEfBrV5RtXOBWMUdn2Q/h0cOentVIffTt3QfMaVfnGFY6BCSyrOKNrz/5oK/xX0lni495sed+vKW/U4BhUrIxqdT0xZkBPuKrla+Y0AF7sIGkIAxhVcYR3/+5oY1OJTRmgkn1zeNUREkrMl9tuTp1V0xua1kTzTn3waSX5pBae4eB8f/guOY7Hdu0wc0MEZnTUOrNXquQ4a4avvh4JL1Y5k5+QOUZmsKvfBn5Lv0Z/lSbJKhiyPBzTezXlG0w4hqao6tIV04N68dP5pKSVwKYPlkdNgZcLf7AukWFd+PwUiuFu/EGYzYBJDTf4hU5BZ3kCBQM4jZsK73qs4sBO3VYtO2LJAn9WAeb+yAi1u/bFIMW2MP4IIRuU82QpKtVC015TELXSp/BddtHLIEH2TWyYMBSB2xIAl4GI3DkXvg7Cwug57uS9adVANDa8jp0zhmG4cuOKFNyJXjHgnHAxWd0rVGUQulNR2j4/2gyzuX3MLmLlF3scVi5qscrC118JDeBa6YWgBT5ow3W9FHaXoYkFajXtgelL/NGInyWdpJikWH9Vio71G7ielMlOb+Zg19ia2Zmzs18u0h7cEGZw3kWL2RGY0IFrXOGmy2D7SiE1HkSj8ianD+Xt6THMH+CPJccfw659EDZsHo+O5sJ3es0ITSb8H9ZO74Aa6cex3Ndf9cJQwaQhAjcEKdUh2D7h6iUrNI27Ywrr3t9gd2h/NOUaFbhZRlZw6RWEhQOEHcQYe0zBhuW+LM4K6iVGlexQv80wRG6ZAg+VepQRPFgZ3jC9B5rKGwo4bL9VdYHXF4NUl6GmD1aq1He4dPXRZngoNoSo9UZuNBRRLG0v5bocq3OZFCxmKYjbDpKWVxIJ26zVaHzt35Wl4y+QOYp9sfSbbq+mR0l5L0MiSSsXEgjXAVysFxzXq8LFawqCBvHTWtFV7EgqF5boumQY3LgTPCu/9VoOxXfTe8PJkv2hoSWa9VSKd6nlzaoFvlZJLxz75g+BjTyBFl5BrEtqYKnZPRhbIhWVrpGYsOGmhguMJmhobwI8jEN41FxMCJ+JCav+D98dO4+7L/KENMzf3/PfsU/sPW7GdcQK04qPSi8T5mXGDZw69iPmrOK/nxy1AX8kZ7HS0ABNFS1XEvO1+KgHOtcwQVbyUXy3doH8ey7f3+4+YV82QVd3MyElz6ZKVaT9txFT426yKQvUtDXGjbhw/N+FFDZtBUtbeTLJ+bKVQGVW4p7cPYyV3PqtWoXf77OtW6EWHBoJJUaLbca5s3kmeo3ahMtwRK/5a9jBp06pDtZcS6HKxaD6J2ZKqQbaExdn7Pol5Sz2RQSjRwf++dLWXlOx6XIGYOaGjp8JieQ6oU0ztr0TdmG41yf8s6gdBuOriEOIzxB6PuWTkFbCGACOwz8Gl+2jv9fAV768PeH7zZ+4y7LMvb4Dwwq15leBjU0Wru5bjM9ac+s2Dwe5/8DaBZ4efAqeHerV41riP8eXvyWxaUc4Oyfjty97Ysnf7ELI0AZ1hXp+q6/94WUP3P1jWf66dfBdhn1XM2D2QU+ML1SzLXkZjgcP4de/eRD2cd/d348Jim0ifArfIcjBkUX+8J37J5KsWmFC1FI9b/jjTt7LsGGmcPL2m4T5B58J3ynRhzEhWnniQ3tDpB37VqlcjMesTSeRolSIpO+3XGTcPIpNs8bDi8UC9z0XO3+wADas1wJ9hBiTmq+0mKRY172SY/3aY+65dbathYO849RIdtxfgQlCTadZLWv27wM8uMhP82qgtrwn4jL58a/I45mOypD0eBCJypucLsrbWj/FOkRBPnLEmShhWvFRvdPKe4DNE4Zi1IZLQIMemP+TvjdqVkP3xZGI9G0Mwxu7MeOzmdig3qNWwbIm7E1ScHrtVHlMtP5sMR8P9q3Q+xMhTT5LtGjPKsVX9+Mb355sW32Cz9aeRyZM0az9p0KaNgiZ3hX2hhlsP/DlkkvnNWkDTqdw+XbCF35Kr7FtNQFTvOvAKJdbBkW9qyd6fLUGh66zele+Khg+cxA+MMvA5U2KdIp8AfvOA+GXf1VUBeO++gwuZjnyY4Midlp7DcMmleOHtsRsBynLK5HobcbJQcrZ/Yj4ajA6yOObW4Yt4Ku0baFSpdWpclqGRI9FI7FcSOHtLr8OSNihdFzvEYyIQ/8hQyakYaQf+8TFjrR8pZaLOqhX6wH2sfND1Hk2aesMZ9PziOo1Fjtvsenqtnhfnk6L8mZqAxv5sW+yfP06+P6I89wpyKUJegkXs/p4vhDZwGIEj6kRrNLVDnZJf2Kur7/mCwy5F8h5yX6Y10LbelaQjzPzIh3nT25DWEyhtZPgGjb/vA4bTsbjkfB4zctnidhxjWulNEAFrUaTMYQbq/UZv0zAvp9/w/knfMZcvrE7T+E2y7dGNbV7Rc+vYN+BBGTm8Y1Fskf/YueJNNzMUN4eWuTLZN07iOVbhceHXjxAzE15KwoqW7CaaSlln1sLX99QHLpnwY75EdgU0hr61zAtJc5OY94XUxC89gTuCf3Jsh+ewv/9kch+M0QFoZMT7xmyWGFENRf0a1udb1x6moTDaxdg0JfbuSklUtKK17Iutw/v4eSPP+OyfHmf4fKWEMRcYEtbry5acLNU5OLuvkUYGsx3G8x++Ad2n+PiwQ5VHfgUCrlXfsHctQ+QK+OP0BnHf8acI89w67HwaJlcM3g1qcGucPYgeMovOP+QPwE9vfwLgledQDKqwrG1ekyKXwZt3IkJgc+oTTifWw+95q9D5KjSNfzpRjUMWP49O3k3BDsbYFSvYirAYimf6IWLyPv7gpROBOzjt4VPK1VqJjsCs5Nqg4/Q433+Qj774RXs+b/p+GJeaR5B2o4v+87G/+25gofChSMXOzsuJLPfKsBAqx0nPSYp1nVJXKyfvp3K/rVEZXZBzR2zPR3rs5/OaPEZX+l8z4g766fitkq4cdt3DgYG/iI//pX19i2eNvEgEpU3Rt/KWw7OLZ8I37mHcM+iFSZsiECIPjZqGn+EqZsjMLN9NST9EQrfAStwsKBvvAb38FsguxiIOCWPiezE/ZjBKhC5rCw6uBWO3wx2geE7YDG2XObqUDlIjPgb8ew3wwrCDbtPPPGBNZD59zq2H/hyyaV7eHQDRoUfYSXYEC5NCl5j+0nvj1AdmTi/bjJbBkW96xnuHf4ZgZMiC970ZdwJLRuZyvP1+z9FOj7fCbsvswVwQiMveUrA0QceLobIvbwFY9ixQRE72Q/vIP2l/NdSK3E7SFleiURvM87x5fjii8VYezhJeESCW4Yo8FVaA3bV8CqV1zIkgsRyIcmzLBYN7EzbqBva1uQv5J/eO4G1gePw5Xr5pHZ0ETtalItU9t08dn54KT9d5OL63khE3onHg8fyr3lalbcMnFnDlSH+8aGnl9fhKFeIUQX2QiO/9nQX66KaJepNWIxFfR1h9uQEwn1LGsfjFLYd+w9PKlZH847jEDZuIqZ4d4NHrXeF77VnWssTo3wDEDphLpYHCJ8SxiQpXm3YmbHQq+iI3uOV8uQ+4zuiLkthYFIZrOqQ7/Gd0/hHqSPDk4cJ4PqyqJKeL+f+LaXxW3ThzgEEDgvBgXtGqO01A9/PbC58IU1BS2ERn+6LtXqtprQ445+RXLplI/44rtR7RuNDeHvwzarjSDFxhNf07/DnX+uxIWw8fNw0FSIpacW7+IBrCKyBJv0+hYu8ZasSXHyC0Z2rF6U9BXd/UFUyLuxTer69GBcOr1V5fCrx7B4Nf+cAO+5ZlNo9sE65txH3+b+PwXW8srKqJU9ZQPwyaItr+Bs+dCMu5FqimV84ln7ODfmqLyrD65tvMLmVDXKv70SQb9mPoVHmEr7Dym0JyLJpjuERu3D8t0hEhHyOj0vdKs89Rz4e3+3Yhr/iCmKnpPEfiic9JinWdUVCrP+XjPswRSVLLqY6o6HDPVy5koYGjTrJG40cqtqxk1ky/pMnVtD99i2aNvEgEpU3Rj/L252YBRg24wDuGdWBV8hyzGwjfKEXamJC1Cz0bWCGJye+ha+o5/9TkHhEtcEzm5VFru90BYPC8ZZ4Yotanlvgx9XPFI338kf5gPjTMYX3w4FzSOCuBG1rCr2Rq8DBVp4aRyNLePSiWU3YGrL6+kcTcEwtHo75NWYJDGFZjasFMw5V5MuQcuuifD10ocTtIGV5JZGwzeQqwc1/NrbE7sRxpWUoflwJ3Sp/ZUgESeVCop9XYdXxFJg06IrpP8Xgr93LETbjU7iV+m63DmJHcrm4h392HFbaZsmIPyJvBVGlVXlLxAml8Vt0QRexLqqB5fryKZjKKhEZlVsi4Ke5GFDCA8sPz2xCcOQqbPz3Au49N0X1Bh+hb58gLOjXBlWFNFJVrNcTU3p5omEVS5i82qbc8oN7I8S6YHSukYNb++Zj6NxTwhf6QUqcFTwjWfCMenG4x6Q++XgMZm06hISH5nDo0ANfRWzDgcjCz4dLSSvW6YjfcZ4deaq3nYgNh7iDyS5s+Kod7A1zcf3gz5oHi3wLyEd8/34wGhmm4XRUACb98ET4Rh88wb6vvsISdkI0rNcLoZv9tX/29pXhH0np6jUVEfv+wR1ZNXzoNQQLftqF7bO1f5a85vD5iJI/R17wjC+RptzE+vE7rOoEWNs3Aj75EM7Zidh6+Cbg1Bi9jevChms3Sn2A0vTfeHNQedNX5h2nYN38zqiRcxP7gidg7lHhC71wB8v95mDb1QxUbjkWPy3vrnXdQqfyZMIFkzlMdXHuq/oezIRfyx8p24x749wKLB/eBvXtFGO1vH5UhoqQXy6k4h5JGYiPfRdg06EEPKzsgA69JiLit62IHK7tm/r0M3beNLqIdZEP1qg+Rz5ZzGCpLx7g5J9bsXjdQgRF/Yy4R7moZN8KPZyF7wsxhUUxrS/uTRrCuoIMqdd+wWJhDBb55/h1IUVRiss3BU+y2I+si/hBaRwTlc+GfeA6rkqjq3zVFb/NlMkHjd0eDC/FoLHBqiOoS6G7MVjEx1mPvh7yxgnumW/+GUnhU9yzlU+vYs//LYBv717w9JqHmOs5sGzWFxMLPb/MSEkrQqPhHnAxzkDS7YfIkveA4kbNvoaj7ELr80UaWnnLHItJrlf3lU34RLGt1D4eE/bwSUvDwhzyJwdEkA+kuWEYmgkDaY6K1DzWzuul/Ixmb4S9IQOVco/LrQ2eBh+v7uxkvgZ/PzJCbe/BGFXUs+TF7re6GNT1A1YR5p6Z5Z//V8TMhH0lHMWKzVdXMUmxrh2xsX4TD5MBG5s6aNXSAcZX/kXMj6dwwagRWvawwnvvAmmP7+vR+uk+Hqi8sR+6Lm+Vq8BR+LV4RvIBL7fP75o/4GVwkY8av0bZf2PRAH/M/eMBrFpN0GqQxUae78sHSX/ysHA/6hIJjys4NeteqCHQ+JMP4WgKZN5OEBpKb+BBGldxsYfLJyWc/xIfg2s6TvtjvsZY4D7c28Xkrqay6GFhW1ltyOyaPmCHFnFqdkczLTugyUlZXkkkbDN0Rt92NWGYewd/fDNGGEeD/xQ7XIjOvD1lqBBJ5UI7Ty8fwv8FTkDv9j3hFRyL6zmWaDbgCxR5eVHssa8UsVNcvroqFzorb2r04HwhaeQS1efIixgstY43JvXviY8drFFZuPPyMvcurj1+zn4zgYmG6+W0F9zK2MGlVQsU9SSRSUXuf8pFRtpdpHIPPb9rgcZuPTGpUdFH1pLzzcC5FHZ4N3FG934fw616JX7MmFLTVb4FxGwzBbGDxuoLMXFWyYQd5ZCDx7f/w12upcjcDp7Dp+C73g3l36tgB97vvpuC4Z7ca8P5WdnZ/+HMDa5WaAYz5UYqKWlFa4Q+7vVhmHwaa6fOwIg+3GBrXdHWaxQmRWr5JhrJjuE017fR+VMsC+sPzxqle+SpMHbRxR01TZvi08Dm+dtOM+6AJmLQWL2h9oymPg9UOmQmti31Q7cWdvljLGU/vID4e1yVoRKsCt3iEbPf+ItmVi3AgyvX8ZQFrHFVZ3T7cja+dOceANBETL66ikmKde2JifVEJD0GDC1d0MfFFvFnD7Ag+x0XrpqiabveqMGu+NJStbjg0xkdxgOVN0bX5U1owKn3Ecb4NChh7DgJg8bqhQeImTIKozacR27dkgZZNIRFPSu+LmRshTb+ixD6aR1WLb6Ev3/iBp6WaPcpXGC7zfSjYYj6siVqyDesEaq28cOqgNawZvXYs0dZ2RbsuxDPauBV0f6rpQjxcRZijEvfH2FLRxXcVEs5hv9uAZYsn8gvO6Bx1WIaF45fwU1uGdz6YoEXt27co9NTsHmDHz4o1LXlNG5wXefgBM/AJvI44B4Tj4z0x0dajjkqJ2V5JRK9zdh681XaNNy+8EB+89O8RksMD1kMTVVa3SrPZUgEieVCilZfL8Z3IewYqSjH7Hybff4CbqSzX83e0/CEh5hjnzaxIyJfXZULHZY3nv6cLyR3PpU/Rz78Djs4BKADN1hqg/kYFnxM6SKRnQRqfAhv7iPMyccuVM9qaFE7e+su+tZ/H1b1PsWUMYqRvYHH/63PfyvOpYf34cVqbnWbj8Ei5aFD8mRQGnxZhZh8b/7xG07VHIDm9m0w2Id95HMLXDs+E8v+FiYk0FW+CsWt27H8wcG4QWOXYk5fR5jc/RNzx5c8rokY3BgshV6WUcaKijNFr5ujCQkY+YEjGvuuwiFfYSYnN5ed0NQZwaZpV/hzH2FOvozjOPiT8Luc+LT8u9/VnonnXrcrDNBU8I79+0h9ypbKpT2mb2ov/y5fTgaSEo9hjdL73HUjB5sX/YgOXMWlw0h8wz6qCr//XppHOHzpGgY614dz/0XY11+YzRRsBw43kOYSTGxlgyxuIE32hd6PayLgntEceCsJqxb3lw9UWsvhK0xQ6okgPh50yMAMddp4YE6bwq95zr2+H9sL3XYRs99O4/T1DHhVr4GOIT+zj/xruVxW3jQTk6+uYpJivbSKj/VHSEpjNdBW7dAOV7AhlquQPMJ+tk18ezaDCzsCn1N5RbN4UsqQ+LQ6jAcqb4yuy9sxnLySgfataqDtV+x8/5UwWz1fbsDL76eibwMT3P0jFOPLakwGneMaNb/E8JvTsXRqB/kgiw2CJ2m4i9oIA3/+GQOFKV4G27+LsFKbAUyyY7Do+7bY4P8BXAaGYLdKxrlIO/0Tvvm54GIjZeUirGkSAX9W7/L6agX7CF9w7u/HLuFXbsyRxcv2o0VYVzQbOB1rVReYOYOI/Lcm7sFPh/rCzbsmPmax/rEi1jMScPTMe2ijNoZE7LlLrN7XkMX4EhzKj/EMpKQYwEbbN/1IWl5pxG+zk0i4OgwfNGgM3w27oFqlLVzmuV7k6uNrfOD/O07JK62q5UJK2vJchkRvB4nlQhLjqmjqNVL+UZdx/C+oXIrIiTn2SYsdnph8dVUudFfeePpzvtDq3TvywVIH+iPq9EO8eJ6regf+5n5sOnkFDzKy8i90c7PT8ODGYaxcuwl/adjfL8/9jMg49jfPsotsLLl3eAu2/HcHT/jhiSF7+RwPbx/F94cvyLsbaSImX+QmYMPmDfjtRhLSsosKRi3oKl+BqHVj7qc9xdPzrHLvUzaNK69UMXGW8E0IFuy7jIf88zbIzUrH7ZNbMD3skLzLqYrjqzFv7VFcS8pgh2FezrMkXDu6Af49ZuJn5YylpBXtEaLW/M6KN5OTgcdPMgsagYzMYOfSFTO/Ld2rrUW5swXj/BZj59nbeCJst7J0YdFsLNh5FrefFXfyYZWhZxm4fSgUvm/CoLFq5A1/fUKw73Ymsp9mqx779MGP3/L7ID/GcpH15DbO7lyMwZ9H4IJ8niox+21X0HREnbwNRRKuTFw+tIZVZDTlyBMVD7qKSYr1Uisu1s/eFwacu34F+4UDbsKOc7huaAhDJCPlKj9Pb+gqHqi88XRa3nLw81dsexy9ln++1ywZaU+f4vyGAPi8MReGBeSNmr7rcPrhCzx/WdxxhcnNxJPbZ7FzQQDGlWLwxztrZ8BvwW6cva2o7wiPLq8NQp9R6oPDPsDacQFq8Z6DZ9xyfPejyosNso8shu+EDTh6LSk/hotyfPZ0LDt0DY/l6XLw+NpRRE2ahJ8Lj/wvb7Dg6n18Wm5ZL2Mf2waj9nPvgdWelOWVRuw2u4FvApdg32WlR8jZceTkprkIOyTvtvOKvEVlqBjSyoV4x7/5P6xlx7Gk/CBjsZDE5TsZPSZoGkBczLFPm9gRd0zVVbnQXXnj6M/54h0LC4v/Cb+XirGdMZp1LPX7kkgZ6NypH+YMCxCmyGtn3A3L9wegVcZBBA1eqPIaOeOqnyJs00S0tryD2FHDMPvtGBlSp/g721BtrSakHKJYJ+TV4e+Cl/YOq1TNEBITCq/qr/r/JaTsvZ4yRMirp10PFkKIeM2cUUf+PLExrJ0KntXnxo1p3KEpanPfZd7BZWpcIYQQQgghhJA3FvVgKYeoB4uesemDyC1j0KzQoG0KGbi8fip8V7yKtwmVf+Xmrn6rKYhZ3lX+logS3d+PCd0Xq3TTJuUf9WApQ1TeSAmoB8tbbPg3OKU+iEdRzkShud8WYYIoKzc9WCgeSAmoBwshupayHROE59MfKz9wyA1we+0oNk0PgB81rhBCCCGEEELIG416sJQ37wCdO1IPFkIIIYQQQggh5FUqswYWw/cM0bZLW2GKvC7v/O8dtO3+KTWwEEIIIYQQQgghr9A77dq1K5MGFkIIIYQQQgghhJC3FY3BQgghhBBCCCGEEFJK1MBCCCGEEEIIIYQQUkrUwEIIIYQQQgghhBBSSgZ16tSZLfxeLrkO+QohE3qiU4Ns/H3iFl4I80n5UX73sTm8Jk9D4BdecLe8jUPnHgnzS0tX+RKibyjWCSGEEELIq1POe7A4oqWLHQxhADMXF7QW5pLypBT72Hs0oqOXIMhbmNY7zdDYxYytmSHsXD6AqzC3SEZ2aOc3Ht+sDJWvF/+ZBr9Cfygx39euHkYs5Ncn1M9RmPeq6cMyEOnetFgnhBBCCCFvsnLewJKAE5eTkAsZ0s6fxTFh7tvGbeiX7KLbD3rbjlAqb9I+rgavLwOxLKSfyAu90zh/OYOtWSbunjuDi8JczQzRYexY+LrXgZWJoTCvKFLy1QfXkZwu/Pra6MMyEOnetFgnhBBCCCFvMnpN81vAO2gJejlexc4RqxErzCMM14OlVwMk7JyM0FeyYRzhFzoK7jiJ8KAtZXuxZ/kJZi7uiNqZN3Eg6nvsOJ+BHOGr8oCPYSAxJggLd+cKc18tfVgGQgghhBBCiP7SvgeLkR16BE7DrMHOMBJmkTebjfdILJr+CRxoh755apjhPfYj9fyv+KmcNa5wZP+TyX/myV5fw4bOl8HUFX4h0xDQqYowg7zZDNHEbzJC/JvDRphDCCGEEELKN+16sNg0h//EfmhmBySd3oplEaeQInzFMXVuj0E93OBayxqVjA2A3Cw8Tk7E0Q0bsTtR7eKEGzdiQC90aVEHttyjDbJspN85h5h12/HnXW3TeiIo2hsqIyUkxGJE6GFhQo1pffQe0wcdHG1R+OmKVMSFL0TURcDVj138uOfhePh6JLbsh+4f1IQFW7/cpzdxavsmRB0VBlB09UFogBse71yAS07j8KnLe5Ddj0NEyBU0neYDj1qmyIzfhwVhhwu2G7duQwrylGWnIyn+b2yO+g1XMoU0jOhlEHpnFCc1LhJBUQnClAmaDxmNIR72ME45iw3hP+Co8k7VOxL3sSJ2PqwJ60rGYFsY2dn/g7GxYeEeLCL3hbxHQ/14bJt0ECb58cPyfXgVv363Lj/W+X1mLf+9KCrLIMSP8l+o7isNhL9Bcemk5qtWLnKzknHjnz+wcfNJ3FVuwcmP98kIP+uBL0Z6okkNcxiy8vnw0n6sXHVENb0WFNuw5N5GjhgyfwQ8rFNxPCIc0efKrjFE/DJIZ+TwCaaMa4/6ppm4dmAdFm+9pdpIJmZfGLkjYEk/uJqm4uTybxCptO42Pfwxu3t9IHEfZi/8XX7cye/ZNmYfDMb7oHMR8SsndR+LjR0Ol9avB1o72cnLG3e+SE44gh9WqZY3ObFpJca6kb0bBgxujxZ1+eWVZT9D6u1z2Lt2h8pxUGyZl2PHka5jv0BvV0tk3ziIZWF7kVjKckAIIYQQQvSb5LcIcRcCQZO7oaFFBi5uj8A3mxPwVPiO54ihXw2Ee81KMDIUOshUqAgTc1s4NauOZwfP4AZ/I5jh3vAwCQOa2aJSRUVaQ7xrUYNV3rMRc+wmP09OStq6aNPDESr3gR8lqKVRcMSIuSPRsY4ZFNmqysTduKP4l1WybZq1RUt7c1R6vzncG1TFu8L6VTC2gH3jmqh49CSucK+wsXFF55Y1ULFyPXxYryoMUQGGZpVQvZErmtY2Z1MVYGxthUrX+XzBltR7ygR81kQpT8N3YW7rgI+aW+L2X5eQLGwz0cvg2Bw9nIu/E5559zR+/1fxVo1c3D8Xh9OZ9mjeojFatm4Iy4fncO5+2V2gli0p+7gm+k4bg75NWewYcXuDw/aJsO0e/fcbjuVfd4nfF45tusC5qhGqtWyJxrUU8cPyfc8aTo2r4MGvF3CfzeH3mSn3ZZFUlkGIH+W/UN1XAq4RLWgAevTogh5CelN7tt+5acXH+WXBNhGbL8fIGX6zvkAHpXJRoWIlVKntio8cX+I0y/M5Pzs/X+TYolO/9mhQ2Zjfxqx8vmf7PpzNr+DQOdWjhFQp/x5FTIzyfiqCaycM7FwTphUqoZrZM8SeuC18UXqil0EimzaDEDSmNWr97z6OrF2Glb+nIv8QyRG7L2R38e99K7h/1AAN6lvg1pGLfKzadMKEL9xgk3MVvyz9GWeEHSeP3yr/QxU3D3yYn7cQv81q4WXcaSQqXsklZR9LiR3F8bde5fzyxp0vKlV1gKPVTbXYlJBWSqzbeGLK9N740K5SwfIaGqFSlVr4oFU95J0+hQTlbSaizMvJniEx7jhumzvjww+aol1re7y8fAGJT/OEBIQQQgghpLyR1MBi0+ZzTPNvhZp53IXACqw+kq56ISBXBY2aW+DBn7uwMmIjNm//DfuP3IKxozPq29jB+MUBHEsUkqIV+gxviCp3jmLh3G/x/c/7EfP7Kdx9UQl2ldLx58lbQjqOlLQ3cYxdCHEXQzExL+HMXYgXdfHdoQf8WtpCdv8E1s1eiYiff8eRm4ZwbFwXli8v4ccJK7D9AZ9U0bhhYlIBafEH8O2cVYjedxlGjh+igbU13nlxCEfjWeVZqNzbmL2H1Li1mPpvZXziVAMWFu8gMSYMq5IbwKO2DTKT+Is1S+8hGN3GDjk3DmNNaDQiN++Rb7N36tSDQ+26sKvwN45cyZa2DAmnhPX/DXnO3IUUNwbLAizO3y6/abzYeH79DP64YoiG7k3R9KMPUP9lAv5NfKZhP4vD3fENGq50wa/+aW2J679fUukBJY74fWzZh21ft6rIS/oXP62IRMT3v2Dn/hM4ZVwLHepbqjRuSNkX/AWqMdsXL3A3bgeWzF+Hnw+nwK5ZE1S3Mkberb9wOrngwjwm5iZsWzeHfeZJhI//P3yXv/xqF+0pl/C74rvrlmjNXdhqujgU0Yim0ugkNl/Gdbgf+jmZIOXMTixfvF5e3n6/8AxW9eqgbl17WD74E/8oriSFeK9mZ4d3n8Rj35qVCI/6Bb/erwq3FtVgYwLEH7wMDZe2ZS/lJWp81BS1303H6V+24NRd9YtZbhyc6Rg7QEMsKj7KjVI6ZQiHfmMR2M8Z5k8uYfuSKGz/r3AXByn7Qpb8Hx7aNkFzR0c0sLmDI6f/B+8Jg9DS5jnOrF+GjdyxQcDHrynee4+L3xgsZ/G+ft81mDo3ZMfqangvLw5/XuZjXco+lhQ7rp3wWaeakJ3fhVnzooTzRTySK1SG7Tu3cFT5tcpS0oqOdXP0CRgBd5v/yY+naxZGIUppee2r2KG65QP8+g9/hBJb5gvkIfl8HE4/tkUTt8Zwc3fW84ZrQgghhBBSGsL9upIYosngAAQPa8ouYs9iXUg41p/KEr5Tl4D1i1Yhas8lPBS6bOekx+Ons/fYbwZ4x4Cfx8tCDld/r1IHnk2s+bFcMh/j3z0/Ys6KI9yUEilpxXOqWxXG7Oetv7chLp2r9OYi/Xwsdp1PBUxtUV/DG1kzE/YhLEzokp55F9su8HfJLWzqyX/me3IBMeuvIFPGX9TI7p/Elt2PcP1RhnyaZ4jWDevBOPsKdofF4t+H/HblttmOpXG4wbZZrfpN5fOUiV4GLeQk7sW8kM04/dAMrv0CMMvPVeVO8JulGro1rQMD2U38tvhHHEwUxifJycD9Z+rNRtrsCxlS4jZhfhT/6ENO+ln8lchiB1awqMmn0JnY1RgxYjL/CT8J7n/lHoPIn8d9inpkqliOaOlgDSTFIWrlcSTKywULsxvHEbXjEh6jMmo2LhxnspST+Hb6mvwBdjNP/QP5pqhQARXlKV4FdvyZEYQRo+Zj9Ql9voitgk4BUxHYtQ5w4yDCpq/FfvVHIuWk7otcnIvahCP3ZbB264nRo3zQxcGQxehWrNG4PbKRGLMUs6KO44b8WHINP+26KI8l+7qFjzsl72OJy/skW56PaU1ntK1tIp+Vk34Lx3+KwqL1al2FpKQVy7INGtZlJyW2vBHseHpeeXmXHpX3tqxc20XtrV/Sy3zK0R8wK+wgrsmqwWNkEAJ72NHYZYQQQggh5ZCoBpbqfcfA39Meps8uYUtIyWNzmDp/jIlzZ2Bl5BJERwsfjeOBxOFHVulOM7aHu+9XWBkxDcH+vdHRma88q5KSVrz4+2ny3hm1P+yBxhbcACyGsGjsjZ6Nuaf3nyOdaxdSc/eS0tgpxUi98jdOcFcEgrTbl3Fd+L1APVSzYhV8Y2cMWKW0vbjPKi84sBQGZlZQr7eLXQatpZxCxPwN+OehIezcP8fXw5yEL6SJDVW62Nf0Keu36RRiBwsz9iMtBfFp/JyiabMv0nD9xBW+0abcqAErLvztWmOG8jbgPhNasMtIdtFpXnjYzrTrZ3BOZUMkICroVexjKYRl0hSLio9WjVJSVIL72NEY4GoJ2f2/EDGvuLE5tNkXd7BxxW9IzLZGE7f6MEz5Bz9GFRWjGUi9ptar42IKHrMfBqqt4XIl72OJy3snFtsO30W2pRO6TZmHyPAvMcXvY7jZc8diNVLSiqUYHPrmxcLH5rTzuMn1RrG2RB1+jkC7Ms81XC+YfwDXZWZw6j4OE7pUEr4hhBBCCCHlhagGlvvbViGCVWwzKzWEz9zh6FTMKxGMmvggOKALGtewkg8WWJKU39diyqRwRB84gzvp78G+WWsMnDIHSwM9C715QUpa0fb9hdPsasK4tgcmLgllFwKhWDLRE3VNgcyLJ7G7xIvycop7o8kMX7SomoukuB8wb1288MWbxgymb273G1IuPUPct6ux+WIaDKq3hf+cnmhSxt0ZjKpVgblw/DUwfhdmettdIhfnNoZj8uQ12BH3H5LzrOHo3gWj5szH/BHqb6iTkrYMyfK0fkRSmZF9JwTO6Ix6BhmIj1mJ5b8+E74hhBBCCCHlhchHhPiKbci6s3hk3hADggMwpLnmniNtOjSBjYEMKWe2Y954pbvCO68KKTTIvIvjP21EyPSvMX7yDzh6PxdmTu3Qv6XwvTIpaUUw6tASrlYypD1MRpbQg55748XVI5sREh73CnomJCGdG0Ax4yy+U76LrvwJ3oU7fOJSMBX9yAo3kPH0Bb5wr5qBi1vDMSfqIpRf0CEFNwaLyl1s9U+oj1r3+7KWhDSukczsPbVGuCrwblhD+F3hFe2LQsuib9LxnHuK7dZBTNG0DdjHn5WNNxM3BouGOFT+BHkKaXXpEX4PX4Sw/TcB+7YYu2A4umrsiaHFvjByxpDPmsEmOx47d15CZuWmGBggvhHaqFN91GY/M56n8zMk0S52uMfw9kRFYebk6Zg0LxaXnxjCrlVn9LAUEiiRkrZEwmNH1nVcUeihN5sPUM+W/UxOKXUPLG4g41nBXnAyeIAja0IRtjupnPV6I4QQQgghHJENLDzV58gnI6Br4efITY24EU1y8TTpNpK5q3JTK3zYzQdT29WVf6/CtTemTvVBtw9tYCFklJNzGwn3uRq6KUwt+HlyUtJK0LH5+zDNuYVT639A2JzZGMMuAEaNC8Oi9aqvntadpzh9K4lddDdCn0BvtHIwK/M7sY/kVzw10KhXK3nPnOJwAxnPCeyI+vILgSUI3/+mXwgk4FpSNmD8PjqPaiqPHdO6reA3ZxJ6OapvDF3vC6EBx9gBbQY55cex/rmA/+6wbVa7JSb5t8eHVUv3GN6rxb2mORTRkV9hRJNSPDrySuQicesKhKz7Fw/NGqJf0HgNDddS94U5vCYNhLtNNhJ+3Y7Y2G3YG58JU8cOGOataUDkCjCqYiWMsWSCuh19MKOHM4zxBAl/n5HPlUbi8noNwbyJrKw5K5aBbZW067j1kBtwywQqTz9JSSvWndNIZEUedu7wG9cKDvLHRPljhP/EdqhtIMP9+NOlaFTlBjIej+BhH6JqxiVsDV1RzPhlhBBCCCHkTfdOu3bt/if8Lp5Nc1b57IdmdtzYgD9gvlIPh5oDAxDc0R6Fnt6XySAzMMC1nZMRGivMc/VBaIAbuEf2C8m8hB8nr8UhxdW9lLTc62s1jvnC4wYCDYriB0Vs4T8To5tVlv+uQpaNZ6k3cGjtOuxO5Lu2uPpNQ4C7NRKU14Ej/H/5+QrLCsW0+vfCdH4+3GtN5wxjF0WFxzzgKP9/opdBiVGH4VgyqGH+RYmCalpuIOPx+MLTHsYpZ7EhvOSxdl4rCfsYrv2wcII7VDdvJu6ev4d3GzfAY+VtKWFfcL1zejmmIi58IVgRyFfkPmLqDf4SUz1rFCofmvZxUTTlWyjmNJCUr40ngoK9UagNSk5tnUX836+M0nEi9/JOjFpylJ+v57heY1PGtUd900zE71mNpco9HCTsCxtWLoJZuTBI3IfZC3/nG4ltOmHabC84GKbg+PJQRAtp+fjlf1fFDeK6DrOUx22Rso+lxE4x5Zgbn2ZR8K6CsVEkpJUS69xjrXPGuqkdH3i53OC3c7bmjzsjrcxzAxmPQX9XS2TfOIhlYcWNtUMIIYQQQsoDST1Y8nEDoM4JR0x8OnKyZFB+N8WdTRuwIe4m0rP5p9Zl2c+QfPkwIn/8F4WGM7kYg+/3XMC9x1n5eeRmPca9879icZBSgwlHSloJ/tl0FFe5v+UaVJ4W5A0DY1SyfR/dv/wC3tp0PZci5wqiQiKxh13wP1Y8p1SGcg5twLIYtu3Ss4sdS+BRxnM8v3YQYbP0vHFFqotbEf7zGdx7ym/b3Kf3cD7mO8w/qGGAHR3vi+sb12PDkUQk6yDvMpVyGOGhW3DkajKeCWX5jXDxDC4nsW2b+xhnjr85jzHJB0CdvgFxydl4+fylaq8xsfvCtR8CujeAafY1/BotNK5wUn5H9K/XkG1gg48G+RQz3ksush6zsrEnEiFFDoorgpTY+W0XXx6eKY5NMmQ/4x7R3IK5IUqNKxwpaSXIObcFIeG/4vy9dCgWl39MlM1XalyRLhPpmVlIPr0ZIcUOZEwIIYQQQsoL7XqwlBs1MThkPDyr3MSeBWuwQ/k1qab28A0MQLuaMsRvC0TYPmE+IYSUA0X1xiCEEEIIIYRoR7seLOWGA2pU5/qFG8LExqpgTAwjM1R/vylqyYcsSMJ9uvgghBBCCCGEEEJIMd7yHiyOGLHwC7QqYrwNrgt62unNmB5x5g0f6JUQQlRRDxZCCCGEEELK1lvegyUB0YrxNvKf62e48ViSExG3IxIzqXGFEEIIIYQQQgghJXjLe7AQQgghhBBCCCGElN5b3oOFEEIIIYQQQgghpPSogYUQQgghhBBCCCGklOgRIUIIIeR1MAbyjPLoVoceqPCC7YRsYYIQQgghREvUwEIIIYS8BnlmecizzAPoLPx6vQNUSKuAChnU0kUIIYSQ0qHaBCGEEPI6cGdgalx5/bh9QLUhQgghhJQBnVYpXId8hcjoMCyd7AFLYR4hhJRv5vCaPBtrokMxf4ijMI8QQgghhBBS3unwESFH+IWOgrs19/tV7ByxGrHy+UUxgXPvwfi8XV1YVzKGgTA3YedkhBb/h4TohFdgGPo6sUhMiMWI0MPC3FepHkYsHItWNkBqXCSCohKE+US/eSIo2psdAZnUkwgP2oKL8vnlQXmOyVe/bnmV85BnnidMkdepwtMKqPDkDezG4uqD0AA3yKtaAjpfEEIIIa+PTsdg4XqwjPeoiozzOzB/WRzShPma1Bv8JaZ61shvWFF4VQ0sbkO/RL/mGfhzXFQJDUHS6CpffVCe143j6jcNAVwLYRENLPnfa5SKuPCFiFJcWWuoBBcougHSO2gJerErdaowv0m4HixfopeLAR4c/AGzNpWv/VZsTHqPRnSvBsJEUYR4V5QJjeVLaKRSbqAqtgwpl7eCBq4np7/HlxEXuJkC4bsiyvSrLm/aN7BUR7fPh+IT82tY/e0WKK9h6egqX31Q/LpRA4u+aoyhcz9F8yfHMW5JWd7o0FW++qA8rxshhOg/ndYmLq7/BqNGBGJKCY0rwAf4pHkNGMhScGZTOMaPmIwRwudV9V6xsa0BKxP15p3S01W++qA8r5uyx+lJwm+vT3rKdeE3ov+eYt+S2Rg5IrjcNa4oexNisrLrR+hkJExIoP/rZoaaVWxRqWJZn8J1la8+KKfrdnELghR1pvCTSBVmlx9VYFvDCiaGwmSZ0VW++qA8rxshhOg/7WsaRnboETgNswY7Q4v6qxoLvGfGflw7iZUH7yKTn0nKCRvvkVg0/RM4lD5QXqmXefyd5bw8mfynuotRC/MbAsPjuGotdxdd0Tio1HtFCXdnUfE3BZ+iH5+T/Y//v/NkufKfZc7UFX4h0xDQqYowg7zZDNHEbzJC/JvDRphT1oqNydjVKrFduFwUH+9iaC5DGsrbrVu4ZewI90/NhRklo/JGXkUZykfxQF6rKvBm9fjp/WqXQT2eEEKIgnaPCNk0h//EfmhmBySd3oplEaeQInylMv6AQoljWBTfbVsrRnZoN6AXurSoA1uuGV+WjfQ75xCzbjv+vCtUnkV0Z1fvamvq3B6DerjBtZY1KhkbALlZeJyciKMbNmJ3ovb5ypd3SD90/6AmLFi+sux0JMX/jc1Rv+GKosVJ6Ar8eOcCXHIah09d3oPsfhwiQq6g6TQfeNQyRWb8PiwIO1ywP8Tky/CPu+ThePh6JLYsSJ/79CZObd+EqKOP+ISS180EzYeMxhAPexinnMWG8B9wtCBY9JuwroX2lQb89oPqY0HKhH0HEXkpUzyGpItH5YwcPsGUce1R3zQT1w6sw+Ktt5AjfCdnWh+9x/RBB0db+Z2w3Kxk3PjnD2zcfBJ3FQmN3BGwpB9cTVNxcvk3iDxXcGFq08Mfs7vXBxL3YfbC3+UxyT+CcRU7x+yDwXgfdJbnLUP2w6v49bt1BWWIkx/v7EL9rAe+GOmJJjXMYcjK8sNL+7Fy1ZGC5eCIWV4FLq1fD7R2spPHOVeOkxOO4IdVquVCTmxaiV31jezdMGBwe7Soyy+vLPsZUm+fw961O1TKiHyb1Y/HtkkHYZK/fkVsM1beu479Ar1dLZF94yCWhe1Fovq6l5KUmCy2XCi2l8RHhEouQ4rzyUHsrdgen5idVhoHp/hzzasuby+UHxEycUDfXr3Rtg6LMyMuzjKRfPtPfL91Py5n8Uka9Q7GlMZFPZbIiz80EQuOCBOoCHtXL/T3aApHqyp8nOVkIDXpLGJ3bcORx3wq6fky3PL2649OtYTy9iIZ1y8dwvr9cbj7UkjjMRbrO1jhxObtkHUaipZVK+BZYixm783F0CE90aQy8ODsWszcdbng2CMmX6b7sGXoY/8ffl58ACb56Vm5SIvHvp1rsfM2n1jsui2KFR4RegVliFMmx191YsqI1GOf1GUQQ8QyKB7XK5raY7jcOH7duqNHaxfUsq4EPtvHSL76Nzas+j1/H0rPlz9WDxnWBR/UtGD5shhLT0L8sd2I2nEt/4Ygf+xIw85p8XCa1hUu78lw/9j3CDnrgmnDWqEW28/xMSsQFivUpRgx+eaPZ5gXh/Bvb6FlfvpcPL35L7ZHbsk/X0heN1NXDAlidUd7Y6Sc+RnhK5Xr8oQQQrQluQcLVymYPr0/mlXNwMWt4Zij0rgiAVcRiF6CaPlHaJBx9BamhU+oD1zliaUyh9eksfD1cOAbVzgGxrCo4wbfQW35aa04YtDQT+HewJZvXOEYmsCqRiN0n+iLDlrfAqgC7wC2vO51+MoGY2BsgRqNuyAg2AdN1PI1/2gIuruwC00YwLi6M3pP7QfPWmZsygBmTu7okb/RpOULVIbzUNX0huZ14O47EH20fg1UFk6tD0fI5kt4WqUphgUHYEhzE+E7PSfcjZfSIFLWFL1kyvpiz6bNIMz6qiPqGzzAkTWhWKBeuTdyhl/wKHRz4SvWHEMTWzTw8EFQgGfBnd2cOHz73T+s2mYNt4F9C2LKphNGdKkP48yr2BvNN64UsETrOWNZDCvyZnFc9X1WhobDS0OcmdT7HHNm9kAzrnGFm8HKctXGPTBmQE3593Jil1fOESO4tI1r5Mc5V45tXbpg6CD12qmUtBLYeCKAq9iyY0nBIaoSbBu0ZmVkNLzVb50bVEPHucrrJ2wzfx+0kCcQ5CRhf/gifHv4LlC3IwIXDEdXe+E/KCO6ismyl4Vf4hKQbd0EXTqJ2wavrbzBCX5+/vjUkcUZ17jCMTSFbT0vjPBy4qe14gHfvh3RxIZvXOEYGJnBtlZbDP2sN+rzs6Sr6ILR3PLWUypv79rCsdkAzBjcEbb8LEEF1Or4OdpU5Qavr4jKDs0wsW9vNKlckX1XEdUaeaIr9ytHUr4MKxedxyinZ+XC0gU9+w2AmzyBFl5BGSqz469kEo5n+rAMUrh2x9DebmhgyzeucAxNrFh9xwsTx7pr30NDOFa71+EaNbgZLMYsaqBxt1EI9lPvwW2Gj8Z7wcWcbTB2nqru2hVTh7RFLTP2hwZmcGrbqaBOKylfprIThqqkN4Q5V6cd2UX7t3RmXsT6WUux+eJTVPlgAILn9EZzU+E7QgghWpPUg8WmzecI8G0Km+y7OLJ+NdafEm6rFamYu4Ua7vYWovUbOIT/985RLFz6CxLTcwFTK3zo6cUqYncwZ4XybThe/p31YruvO2LI1I4wunAEuw5fwsNMVgexcELvcYPRua4x4rcFImyfkFQgJl9L79GY36sBZDcOY13kQfz7MEuer/fIfujqZI7be+dh3vanSttMhpS4dQhJ8cQKrocAspEYswRbLIZjhodd/t1X0fkyiju3YHmnxf+O6JW/4Qrs0XeiP7wcjFn+QVi4W+lOOSNumxXgGucCJ3ZEXeM0XNzxHb7dn6R2kSFeiXdqXvHbW4q9U88pLt7LsudWiQzh0G8MJnatA+O0S9ixdAP2K3p0KeHXxxIpZ3YheuNJeRkyrdsKg4Z6wd3+JU6vnouIf4TEQpf6se42SDv5HYIjU+A1bTK6O7zAme8WYOWJgvwL9lsm7sbtw/c/HscNdpn32ZdDWRkyxa39czB3Kx+TyttMlhaP/Rs2I/Z8Bgybs4uTMR/COiUOYdO2Ip5LKmV5hXyNz+/C/Ki/hHJcG827fgwP4z+xaL1Sg5qUtMqEv9N8J9kcfb7+Gp/UhbysbVhzCOdVltdUZXBW1W32C6LWn0SKaVOMmPY5mls/xsnl8xF5Tp5UhfTjddkrtlwUVyYUxA5yq1Lelc87qfD/v6Fo+vg3BM37FWkl9GApe8WXt/xBbh0GYMlgdxhf3YE5O/4EO1TDyKwOWrTugvZGf2B+DBflypwwepI/WiIOi5duLmYw2vaYNK4+Uv46iL2XbyL9JfBejdYY0acPmlk9wtHv5yPqppBUTly+fK8QVt7+2441e07iasZLeb6fd/dGS9scnNo6CysusYTyHixc8GYi/tBi7LMZh0muVmw6FXGbF+Oa2xwMqp+BExtDsDpRQr6MvAdLbe63TNw5vxurf4lDyrsfYOSIoWhh8ZjlPwerVDZb8eumaZDbsi9Dujj+Kin2uMNIOJ5pvQwlkbAMPJFl1rU3pnpXxIXfDuDwv49ZVBjConFXjPPzZHWOeGwbuQaq1TMx+Zqz4+9UdvyV4caBnxAZw9X7uHw7YKRvJziZ38HeoBXYnqbYXuzoJEtB3LfLkfLJPHYOZFlkX0PM7F9gMXESPOwU9SXx+XL1zvw3csrSEL9/M1buuAbU9cLErzrBwZjlPyYCu1UqU1KPc+LikhBCiDgie7CwC6jBAQge1hRVHp3FupDw0lc0lAdmGxEL+SmVOxnkz2MfrS+Qs5CTzX5UqQPPJtb8nYDMx/h3z48aG1fES8D6RasQtYdvXOHkpMfjp7P32G8GeEe4ayKNIVo3rAfj7CvYHRYrbwThcPnuWBrHLj4NUKt+U/m8fE8uIGb9FWTK+K7lsvsnsWX3I1x/lCGf5mmRL5OZsA9hYUI33cy72Hbhtny+hU09+c/SyEnci3khm3H6oRlc+wVglp8r6GbJq1QFnQKmIpBVonDjIMKmry2iEuWIlg6sNpcUh6iVx/kGSibzxnFE7biEx6iMmo2V4yEX56I24ch9GazdemL0KB90cTBEStxWrFFqXCnANQguxayo47ghj7Nr+GnXRXbJBdjXLRyTspST+Hb6Guw4nyFvkMs89Q8SucQVKoC/8S1xeZ9ky/MxremMtrX53lQ56bdw/KeowpV7KWnFsmyDhnXZwYItbwQra1zjCke+vEuP4oYMqFzbRa33HteouoldkPBd83PSz+Iv+UawgoVSRx5lKUd/wKywg7gmqwaPkUEI7GH3Fj5nfwH7zyXBoG5jdC/9IUwiseWNeZbNSgWLM1sXtKsmxFnGTRzbH6mhcUWKP7B0ZTQ2neMbVzjP7x3D4bvclVsFGGjVMcMJrWux8pZ6HKt/OiZvBOFw+a4+dJGVNwvUaqDaN0Z2/xiijzxCrjCuVWbiQUTHZ+HBc+VzlvR85eXi/A+Yu4N/fCgn4wz+vM2XC8tC3V2kK9sypKvjrwSij2f6sAwSXdyBRYu2YI+8cYWTi/TzsTh7l/1qwGJdPk8io2ZoWN8Y2Zf3I+wnRb2Py/c3LP3rJsu3Juq7y1Pme8K+W38uC3z1TIb7x3/B7pQ7eCTcN5DTIl+29ZEQswphwuNDmTf24cItbn5l2JSi4w8vF4lbVyBk3b94aNYQ/YID4Pem9DQmhBA9JKqBpXrfMfD3tIfps0vYEvImjKERhx9ZJSDN2B7uvl9hZcQ0BPv3Rkfn0p8wTJ0/xsS5M7AyUulRphLGJClePVSzYqd+Y2cMWKWUJ/dZ5QXuBoiBmRWUr6FSr/yNE1wNRZB2+zIKv/NCer6cu5eUxm/RhZRTiJi/Af88NISd++f4eph23d9jQ5Ua4jR9XmHvFSm4MTkKLesruZNeCe5jR2OAqyW72PkLEfOKG1egBqxY3Rp2rTFDOW64z4QW7NKFVenM1TuI38HGFb8hMdsaTdzqwzDlH/wYdUVekS4sA6nXCp5Dl7uYwirtLCY1tFKmXT+DcyoZJSAqSHkfS1zeO7HYdvgusi2d0G3KPESGf4kpfh/DTdNjAFLSilXDDO+xH6k3LxYut2nncTOZ/bS2BLsMU5KG6yeK2p5F4xo1F8w/gOsyMzh1H4cJXSoJ3+gR9YZ1+UdodNdAYxkqprxfjzmPGzI7NOnaSJjzKkgpb0zSL9j6zx1km7+PT30XIXpKIIJ6d4W7reLZGW1VhH3zvpgxfh7WBC/D+tn8p6QxSYpnDysL9sO6LWYK+eV/BrjJy5t5JdXWjcT/YsGFtcKd28c1xLL0fLlyce280vgtOlA2ZUjXx1+RRB/P9GEZpDKBc++hmPsNy1NpeYsfk6QEjjaQV6NcemOVUp7cZ5W897ABzKpU49PKpeLKH2eU4jENt8/eEX5XIjlfzj1cUhq/RRdSjv6I+ZGn8dDQDu5+4zGssfAFIYQQSUQ1sNzftgoR7ISYWakhfOYORyftH759ZVJ+X4spk8IRfeAM7qS/B/tmrTFwyhwsDdT+2WGjJj4IDuiCxvT6O+1xb02Y4YsWVXORFPcD5q0rzd1ZIt4zxH27GpsvpsGgelv4z+mpYQye0jGqVgXco+ccA+N3Yaa33SVycW5jOCZPXoMdcf8hOc8aju5dMGrOfMwfof7su5S0ZUiWB83vrpLGyL4TAmd0Rj2DDMTHrMTyX58J37xF0n7Fr2efaP3KZu1ILW8vcWbPYkxcsgrbzl9B0v+s4dTYC2PGLMSini5ax5mtx0jM8G4Lxypm+eNSEGnKpgzp/vgrzms6nqnQxTJwj6lOQEC3RqhhZcKmiDZMm/tgxqhmqJqbhLioFVh3XviCEEKIJCIfEeJPiCHrzuKReUMMeFMGKs28i+M/bUTI9K8xfvIPOHo/F2ZO7dC/pfB9IaZFdrfntOnQBDYGMqSc2Y5545Xunu68KqQoSnH5JiH9OfuRcRbfKd+RVf4E74KGeyAl0FW+6orfZsrkAyQv8IW7YoDkqItCV17puHEplO/6FPpoPUByefYIv4cvQtj+m4B9W4wtcvDGdMh77t86iCma4oZ9/MPj+KQKRs4Y8lkz2GTHY+fOS8is3BQDJQyEaNSpPrjhFDKep/MzJNFieRnucbk9UVGYOXk6Js2LxeUnhrBr1Rk9NIwYKCVtiYQu8tZ1XFGok73NB6jH3aRPTil1Dyz5QJrBXnASBtIM2639mEdvun/2X0SS/JXNr/K8Jba8FcjJ+A+/7FiNGUsCMT4qBhefVUS1pl3Qq6g3TZtWKjzwa77q6OrqyI7QmbgRtwoT50/EkNn8Z/F57jGaYhSbbxqeceeW+wcQIOSn/hm18TifVBJd5aum2HVTVbZlSIfHX4lKPp7pwzKoqVS5UI/bAs3R4QMbGMhScGZTOMYrLefOkp46Ki7fexmQV6PObFRZd+VP8MYHfFopdJWvumK3mTJuDJaxWDDSDVUzLmFrSDiiXsOYXYQQUl6IbGDhqT6PPBkBXfX0mX5usLOpPuj2oQ0shAXMybmNhPtcjcEUplw3ZDWP5LWJGmjUqxXqFjEwiKmRMfs3F0+TbiOZaxngBs7t5oOp7erKv9ek5Hyf4vStJMCsEfoEeqOVg1kZbVNd5VtAzDZT4AYLnBOoeGvCEoSXYoBbUhpqz1oHjdfQWHoB/93JBmq3xCT/9viwakkXpdxbuwbC3SYbCb9uR2zsNuyNz4SpYwcM864ipFFWAUZVrFhJ5JigbkcfzOjhDGM8QcLfZ+RzpZG4vF5DMG8iKxPOimVgWyXtOm495EbBMIFKz3cpacW6cxqJrGjCzh1+41rBwYK/yOIGkPSf2A61DWS4H3+6FI2fXGV5PIKHfchXlkNXvJYBbvXK9d/x7w2g7ocNWbS+SmLKG9NmGBYN7I7Wda3kj49xXj69hltp8pFZYM49k6EiCWncOcioAdp+8j4sND5JZAYT+UE/E6n37yPzJUtuVgetu47AoPpFXcWKyZeVtyS2XNVb48v+HdDMsqwarXSVr4KYdVPQVRnSxfFXAtHHM31YBgWhsae6M3p1tM//G1Um4KtnGUi6/kh+48a0akN08xuDdkUOFSMi37QLkFejGndD4Gcf5B+rS01X+eYTs80UqqDNuMkI7FoPBg+OYc3MYsaKIoQQIoqktwjls2nOLgT6oZkdq7LE/YD5yj0RvEcXOyYJ9/x84dHty/jNDsW9bSLzEn6cvBaH1K7ujToMx5JBDQudiJSXt+bAAASzk1WhntYyGWQGBrgmvL1HmZh85a9DnDOMXaBq7sOteCtQoTcECNs6Py9hOj+92HwZxQj4yvPk1P8PJaLWjeu6O3g8vvC0h3HKWWwIfxPG8BEn/60BGqWqvjmlpLc7vAZcj6Ip49qjvmkm4vesxlLlu7M2rEwGszKpsWamum42LEaCWYwYJO7D7IXCK5ltOmHabC84GKbg+PJQRAtpi377E/9mrFnK47ZI2WYSlre4YxQ3PsKi4F0FY6NISFt8PKiWN+5xwzlj3aCpaOZyg9/O2Zo/7gy/zdTWgdFcZrmBNMegv6slsm8cxLKwEsb+0DF+GdkuLO4tQhqP+8I5QexbhFT2sebziVGnL7B0ANeQx5TVuUYCTeXtheItQvlv2ylMlvIn5kfswDVhWqF+t0DMaFGj0Pko/tBELBDGcm83cCGGaygUMnbOMjBIy397jzIx+cKqI6aP7A6nd4VpFakF+Qrrpfhb/i1B1mrTKEgvNl+Gf4uQ6jyO+v+hrLh1WxSreIvQqylDZXX8lXLckXTsk3JMlULKMsgZokPALAxyVV8Q5WWohoFzAtDRvvABlY/16xredigm3+KP1UDBWxTVj3Xqx21+uiC92Hy5AYf5twgVfmNjUecGsevG1REHzxgIT3tjpJz5GeErT+l2DD5CCHlLSOrBko8bqHROOGLi05GTJYPetXVfjMH3ey7g3uOs/GXLzXqMe+d/xeKgwo0rnJxDG7Ashv1NenaRYx/c2bQBG+JuIj2bTyHLfobky4cR+eO/kL9NTwMx+SLnCqJCIrHn/D08zirDramrfAWi1o15lPEcz68dRNis8tO4Uh7IB2+cvgFxydl4+fylao+ilMMID92CI1eT8UyId41c+yGgewOYZl/Dr9FC4won5XdE/3oN2QY2+GiQTzHjDeQi6/E9nN8TiZAiB8UVQezycn7bhQ1HEpH8TBG3MmQ/S8bVI1swN0Stci8lrQQ557YgJPxXnL+XDsXi5mbx+YYoNa5Il4n0zCwkn96MkJIGVn3L5Px+BGdKeDJGl4otbye24/vTV5GcqRRnmclIYPtxZlThxhXOtT3R/N+8EF4PpMGfWyOx63oyFIf/3BePcOPybiw+rilHnph88fggFq/bjD9us/KWU0J5k0JX+QpErdsrKkNlcvyVSsrxTB+WQS4Xh779DjGsHqOoexX2AJu+/RlxNxXHUz7PywfW48fTRdXOxOSrfKx+nF+OyoKu8uWJWzfusbyM55m4tv9bzKLGFUIIKTPa9WAhhBAtFH3HjZC3T56iBwt57So8VfRgIYQQQgjRHtUmCCGEEEIIIYQQQkrpDejBIjxPL0wVr/AzqoQQ/UE9WAgpQD1Y9Af1YNFCseMiqVEeT4kQQggpx6g2QQghhBBCCCGEEFJKNAYLIYQQ8hpQDxY98Q5QIa0CKmTQPSdCCCGElA41sBBCCCGvgzGQ9y41sLx2bBe88/IdvPPiHWEGIYQQQoh2qIGFEEIIIYQQQgghpJSogYUQ8ubiegAY5dFoUnqgwgu2E7KFCUIIIYQQQt5C1MBCCHlj5ZnlIc8yD6Cj2OtFY1gQQgghhBBC930JIW8w7ghGjSuvH7cPXuHZxNVvGqKjp8HPVZhBCCGEEEKIHqAGFkIIIYQQQgghhJBSes0NLJ4Iil6CaOVPkKfwHSHlUT2MWMjHeqifozCvvCjP60YIIYQQQgghxaMeLDrmNvRLfLPSD97CdFnRVb76oDyvG3AdyenCr0Vx9UGocqOjykf9sQhH+IWy+aE+EPO0hJG9G4ZMDcSyiDA+v8h5WDDVB92cTYQUAknLoCBi3fRGdXT7fDq+HeuDRsKcsqGrfPVBeV43QgghhBBCSu81N7AcRuiIyRgh/8QiQZhbntjY1oCViYEwVXZ0la8+KM/rpiw95brw26th1MQHc2b6wKOBLSoZC9vX0AS2DdzQe2h3UQ00Yr3qdZPODDWrsO1QsawPgbrKVx+U53UjhBBCCCGk9LSvKRvZoUfgNMwa7AwjYRYhr5KN90gsmv4JHN6wAJT9Tyb/mSfLlf8sSmpcpND4qPxZiKiLQgJJqqF/XzfYGGTibtx2LJwcxOc3ZjYWRh/G5bSXQjpVUpdB7LppzdQVfiHTENCpijCD6B9DNPGbjBD/5rAR5hBCCCGEEPI20O41zTbN4T+xH5rZAUmnt2JZxCmkCF/JGdmh3ZB+6P5BTVgYG0CWnY6k+L+xOeo3XMkU0hTCjcfiDceEWIwIPSzMU8PlO6AXurSoA1sTQ3Y1l430O+cQs247/ryrdkGn1TKIIGYZvEcjulcD/vcicBeuQVEFfXZMndtjUA83uNay5nsX5GbhcXIijm7YiN2J2ucrajtwj4MEuOHxzgW45DQOn7q8B9n9OESEXEHTaT7wqGWKzPh9WBB2uGA/i9y+3Ns+AtzzcDx8PRJbFqTPfXoTp7ZvQtTRR3xCyetmguZDRmOIhz2MU85iQ/gPOKoShPqL3ybWSNg5GaGxwkxlwv6A+r7UiHtEaBTccRLhQVtQdNuLkM76GmLGRGB3jjC7KJKWoUCJ61YKRg6fYMq49qhvmolrB9Zh8dZbeFE5D3nmeXwCEwf07dUbbevYwcKIK0OZSL79J77fuh+Xs/gkjXoHY0pja36iCPGHJmLBEWECFWHv6oX+Hk3haFUF8iKfk4HUpLOI3bUNRx7zqaTny3DL268/OtWyleeb+yIZ1y8dwvr9cbiraO/yGIv1HaxwYvN2yDoNRcuqFfAsMRaz9+Zi6JCeaFIZeHB2LWbuuoz8XSomX6b7sGXoY/8ffl58ACb56WXITovHvp1rsfM2n1jsui2KrYAKTyrIjw1dx36B3q6WyL5xEMvC9iKxpHiTiI8zFp7h2jY4qjJ1/hh+A1qgnnXlgt5dAl3EMiGEEEIIKZ8k92DhLnKmT++PZlUzcHFrOOaoN66gCrwDxsLXvY78QppjYGyBGo27ICDYB0207m1gDq9JLF8PB75hg2NgDIs6bvAd1JafzqcPyyCFIwYN/RTuao9uWNVohO4TfdFB6+WVth3MPxqC7i7mMIQBjKs7o/fUfvCsZcamDGDm5I4e+c+QSN2+leE8VDW9oXkduPsORB9L+aQWsnBqfThCNl/C0ypNMSw4AEOaq40joqcuRi2U9wR5tRdtGXj+gutdwrb7SDfYax1TxdPVutm0GYRZX3VEfYMHOLImFAu23ipoUJBzgp+fPz51rME3rnAMTWFbzwsjvJz4aa14wLdvRzSx4RtXOAZGZrCt1RZDP+uN+vws6Sq6YDS3vPX4RhCO4bu2cGw2ADMGd4QtP0tQAbU6fo42VY1ZSayIyg7NMLFvbzSpXJF9VxHVGnmiK/crR1K+jEE1dB6jnJ6VfUsX9Ow3AG7yBFrIScL+8EX49vBdoG5HBC4Yjq72wsLoo3o9MS2gCxrXsCrUuEIIIYQQQogUknqw2LT5HAG+TWGTfRdH1q/G+lPCbWEllt6jMb9XA8huHMa6yIP492EWjCyc4D2yH7o6meP23nmYt/2pkFpZST1YhO/vHMXCpb8gMT0XMLXCh55e7OLgDuasKLg1rP0ylET8Mih4By1BL8er2DliNYq+5nTEkKkdYXThCHYdvoSHmZAvb+9xg9G5rjHitwUibJ+QVCAmX9HbQeitYA0ZUuLWISTFEyu6c5eO2UiMWYItFsMxw8Mu/06ulO2r6NEAlnda/O+IXvkbrsAefSf6w8vBmOUfhIW7hR46AnHbrADX6Bc4sSPqGqfh4o7v8O3+JLWLb/H4/1uY0CS1pJ4iZSB/f2hQ6P8X24OFbacmPTHji7awN2V7I+MBLsUdREzMGdzQ1KNL0jLokiEc+o3BxK51YJx2CTuWbsB+pd5qeYoeLA4DsGSwO4yv7sCcHX+ChSSMzOqgResuaG/0B+bHxAt/oeCE0ZP80RJxWLx0My4Icwtrj0nj6iPlr4PYe/km0l8C79VojRF9+qCZ1SMc/X4+om4KSeXE5cv3CrFEyn/bsWbPSVzNeCnP9/Pu3mhpm4NTW2dhxSWWUN6DhQvITMQfWox9NuMwydWKTacibvNiXHObg0H1M3BiYwhWJ0rIl5H3YKnN/ZaJO+d3Y/UvcUh59wOMHDEULSwes/znYJXKZit+3So8FXqwKBFzztBGWfZgcRoRhMBWNshM+BXLIg/xx3VCCCGEEEK0ILIHiyGaDA5A8LCmqPLoLNaFhBdRUTZE64b1YJx9BbvDYuUX3pyc9Hh2YRSHGzBArfpN5fOky0JONvtRpQ48m1jz475kPsa/e35Ua9jQh2WQKgHrF61C1B6+cYXDLe9PZ++x3wzwjlY3VbXYDk8uIGb9FWTK+EcuZPdPYsvuR7j+KEM+zdNu+2Ym7ENYmPD4UOZdbLtwWz7fwqae/Gdp5CTuxbyQzTj90Ayu/QIwy88VpsJ3pEDOuV2YFRSBPefv4blJNTTuPBhfL12ARZM/hrNebrAq6BQwFYFd6wA3DiJs+lqVxhUVz7LBFU1TWxe0q8b3ZMrJuIlj+yM1NK5I8QeWrozGpnN84wrn+b1jOHw3jf1WAQZadcxwQuta1kDqcaz+6Zi8EYTD5bv60EU8hgVqNVDtGyO7fwzRRx4hN48vm5mJBxEdn4UHz5XLpvR8uYbPlPM/YO4O/vGhnIwz+PN2KptvBctC3V2kSzn6A2aFHcQ1WTV4jAxCYA87vRuzKyU9k20FrheeCcwrKroCEUIIIYQQIp2oBpbqfcfA39Meps8uYUtIcWNd1EM1KwPA2BkDVqm92nWVFxxYCgMzK9TkE0sUhx93XEKasT3cfb/CyohpCPbvjY7qr5fVi2WQjhsDYOLcGVgZqbS8JYxJUjzp2yH1yt84odT1I+32ZRR+F4x22/fuJaXxW3Qh5RQi5m/APw8NYef+Ob4ept1jIbGh6gO6qn1eWc8Ntj/iNAwwW9r/P/Madiz7PwSMn41lO/7FzecGqOrSBQELRsJbw4ikOlkGUSrBfexoDHC1hOz+X4iYV8I4Hkm/YOs/d5Bt/j4+9V2E6CmBCOrdFe62pb1grgj75n0xY/w8rAlehvWz+U9JY5IUzx5WFuyHdVvMFPLL/wxwA9c/xbySautG4n+xSBZ+59y5fVxDLy3p+bJSjmvnlcZv0QGuAXTB/AO4LjODU/dxmNClkvCNfkjbvgk/n09lm88DYxfNUzqmjS6nr4onhBBCCCG6IqqB5f62VYg4fBeZlRrCZ+5wdHpNr4ZI+X0tpkwKR/SBM7iT/h7sm7XGwClzsDTQ85W9rUIXy8C9PjdYGANAMW4CkYh7u8wMX7SomoukuB8wb11pei28BXIycH7PjwgJCkdMQiYMzJzQoW8j4Ut98Axx367G5otpMKjeFv5zepYwdtJLnNmzGBOXrMK281eQ9D9rODX2wpgxC7Gop4vWvSZsPUZihndbOFYxAw3PoR0j+04InNEZ9QwyEB+zEst/fSZ8ox+M7Buy/UsHXkIIIYQQUnoiHxHKxbmN4QhZdxaPzBtiQJEDiiYh/Tn7kXEW36nf9VZ8gnfhDp9YO5l3cfynjQiZ/jXGT/4BR+/nwsypHfq3FL7Xi2VQZwqLYrrMtOnQBDYGMqSc2Y5545WWc+dVIUVRistXV9vhFWxfueK3mTL5wMsLfOGuGHg56iI0DSsiBjcGi0qvHPVPqA/yx/otD3KSsPvgf0hnv1Y2K02vDF14hN/DFyFs/03Avi3GihgsNSfjP/yyYzVmLAnE+KgYXHxWEdWadkEvcyGBOtNKhQd+zVcdXV0dWSRm4kbcKkycPxFDZvOfxVyPh+IUm28annFl6P4BBAj5qX9GbTzOJ5VEV/mqKXbdVMkHJw72gpMwOHHYbu3HR9KNaug/qgea1TDCw3+UXl8u/4gbA4oQQgghhBAFkQ0sPNXn6ScjoKv68/RPcfpWEmDWCH0CvdHKwazsnrd37Y2pU33Q7UMbWAiZ5uTcRsJ9bgwCU5hyXePl9GEZCjySj5FQA416tULdIsa5MDUyZv/m4mnSbSRzLQPcwLndfDC1XV3595qUnK+utoMOt69AzDZT4AbRnBOoeLvMEoSXYoDbco3FbnDwIPRqVR9V87epCao6t4Lfp++DC93Ux9yYP/omF4lbVyBk3b94aNYQ/YLGa27cbTMMiwZ2R+u6VnhPmPXy6TXcSpOPzAJz7vkYFUlI48qaUQO0/YStv8YnicxgIg/uTKTev4/Mlyy5WR207joCg+oX9forMflewH9JbLmqt8aX/TugmWXpHzHk6SpfBTHrpsANTjwewcM+RNWMS9gauqLMBrgtW4p9/BS3TyciNZMGuCWEEEIIIdqT9BahfDbN4T+xH5rZsSp33A+Yr9xjwMgZfnOGwd1Gc396xZto5LxHFzvOCDf+Q1BUAj9R3FtNMi/hx8lrcUhxZS1lGaSQsgwCow7DsWRQQ3aJp0p53WoODEBwR3sUWlqZDDIDA1zTsLxi8hW9HYT1guJvhf2Sn5cwnZ9ewvZVvEWo0DZX/z+UiFo3dgHXZPB4fOFpD+OUs9gQXtzYQG+Y4uKMe3uMyptThLcIFdH5JH+bFZsnC7W0M1g3fWPBGDySluHV4HoqTRnXHvVNMxG/ZzWW7k7CC8VbhPLftlOYLOVPzI/YgWvCtEL9boGY0aJGoXIXf2giFghjVrcbuBDDHQu38slY2TQwSMt/e48yMfnCqiOmj+wOp3eFaRWpBfkK66X4W/4tQdZq0yhILzZfhn+LkOo8jvr/oay4dVsUq3iLEDc48Rj0d7VE9o2DWBZWwvg5Wii7twgZoqX/VAxrZln4+CvQdIwihBBCCCFEE0k9WPJxA4rOCUdMfDpysmRQueeXcwVRIZHyN5U8zirDu4EXY/D9ngu49zgr///LzXqMe+d/xeIgtYYNfVgGQc6hDVgWw/4mPVv+pgpN7mzagA1xN5GezaeQZT9D8uXDiPzxX3DvKtFETL462w66ylcgat2YRxnP8fzaQYTNKkeNK7rCYnd19GGcv/cYz4Q443qHZD1NxtW4XxA+U6lxRU/JB0udvgFxydl4+fylak+lE9vx/emrSM5UxIwM2ZnJSDi9GTOjCjeucK7tieb/5oXweiAN/twaiV3Xk6EI89wXj3Dj8m4sPq4pR56YfPH4IBav24w/bifjWU5xUS6RrvIViFo3ZCI9MwvJbNuHlDQ48WuXixMRSxC+5wxuJj/N38+EEEIIIYRoQ7seLIQQogfyFD1YyGtX4amiB4vulV0PFkIIIYQQQsrOq6kNE0IIIYQQQgghhJRjb3EPFk8ERXtD86gN6q5iJ71RghC9Qz1Y9Af1YCGEEEIIIW876sFCCCGEEEIIIYQQUko0Bgsh5I1FPVj0xDtAhbQKqJBBbfaEEEIIIeTtRQ0shJA3lzGQ9y41sLx2bBe88/IdvPPiHWEGIYQQQgghbx9qYCGEEEIIIYQQQggpJWpgIYQQQkjJuB5jRnk0epseqPCC7YRsYYIQQggheoMaWAghhBBSojyzPORZ5gFUa3i9aMwjQgghRG/R2ZkQQgghJeNqDNS48vpx+4Bqb4QQQoheeiNP0a5DvkJkdBiWTvaApTCPEEKIPjGH1+TZWBMdivlDHIV5hBBCCCGElF+vtYHF1W8aoqOXIMhbmCGKI1q62MEQBjBzcUFrYa4qTwSxfLm88z9BnsJ3hLwp6mHEQj5+Q/3e5gtU2g5vpmZo7GLGjtSGsHP5AK7C3PJBH2KSygUhhBBCiL55A3uwJODE5STkQoa082dxTJhbHrgN/RLfrPSDpPYmEXSVrz4oz+sGXEdyuvCrBt5B3MXV6KLX3dUHoeziS96AKfyuuaFRaJAM9cm/CFY0fmr+TIOfytWyI/xC2Xylvy+SYjk0ftTzVSh+OxB9dRrnL2ewI3Um7p47g4vC3PKhhJjUFOeR8/DNXD8MaWcHIyGZCpvmGDI1ECsj+fRrIoIxd+LHcDYVvi/kTSoX1dHt8+n4dqwPGglzyoau8tUH5XndCCGEkPLrjXxE6OL6bzBqRCCmLItDmjBP1WGEjpiMEfJPLBKEufrOxrYGrEwMhKmyo6t89UF5Xjdl6SnXhd8kMDPiXvpRrmi1Hchr8hT7lszGyBHBmLXpTTkKSyc6Jg1NYFXjfXj4fokFAa1hI8yWs/FEUPAAeDSwhYkhP8vA2AI1GndBQLAPmmhskSmg/+XCDDWr2KJSxbKucugqX31QnteNEEIIKb+0P3Mb2aFH4DTMGuys+W4cIXrExnskFk3/BA5vWLDK/ieT/8yT5cp/KruT/pj9a4lqRXUbqfIeq6I/RvodYVqCi1ELhQbKyQiPS2VzUhEXrmi0XIioUnZHSI2LzM+/4FN0vsVthzJh6gq/kGkI6FRFmEHebIZo4jcZIf7NVRsyypComEyIzY/v8VMjsCnuNjJkBrB07YZh3uZCoiroN9oLjqYypMX/imWTg1j6IExeuB1nUmQwsHHDkC8092GgckFeRawTQgghRDztXtNs0xz+E/uhmR2QdHorlkWcQgqb3SFgAQa5JmH/lOXYqqlrieUnmLm4I+wuboV/eJz8MYQAdzNc/DEEf9kORd+2dVHV2AC5T2/i1PZNiDr6SPhDDvcYgzdUnjTnKq+hh4WJogh/V1xaIzu0G9IP3T+oCQv2/8uy05EU/zc2R/2GK5lCGm1w+Q7ohS4t6sCWuy0py2YXu+cQs247/rwrVIi9RyO6VwP+9yJwF6NBUQV3gE2d22NQDze41rJGJba8yM3C4+REHN2wEbsTtc9X1Hbgur4HuOHxzgW45DQOn7q8B9n9OESEXEHTaT7wqGWKzPh9WBB2WB4TciK3Lx8PeTgevh6JLQvSF4oHyetmguZDRmOIhz2MU85iQ/gPOJq/cPqN3ybWSNg5GaGxwkwB/x0QF15Ew4R8O1ny34Pfb9Yay4FQRlJPIjxoS6FHOUr8f+SPCI2COzT/vQohfqAeeyUobjuUlpHDJ5gyrj3qm2bi2oF1WLz1FnKE7+RM66P3mD7o4Mj3LsjNSsaNf/7Axs0ncVeR0MgdAUv6wdU0FSeXf4PIcwUXvDY9/DG7e30gcR9mL/xdXi64x7t6OV7FzjH7YDDeB53lecuQ/fAqfv1uXUE55uSXuckIP+uBL0Z6okkNcxiy48nDS/uxctWRguXgiFleBS6tXw+0drKTlzXuWJKccAQ/rNJw7BObVlhea2GSU+hYo8TI3g0DBrdHi7r88sqynyH19jnsXbtDpZzKt1n9eGybdBAm+etXxDZjx5yuY79Ab1dLZN84iGVhe5Govu6lVGxMKraBhvJm028C5nWtDYP7f2F28C7cEdJasulFbFqlL4oNO2fO64jamWfx3aQfcEKYrfCqy8WLynnIM8/jE5g4oG+v3mhbh8WDERcPmUi+/Se+37ofl7P4JI16B2NKY+VIKCz+0EQsOCJMoCLsXb3Q36MpHK2q8PGQk4HUpLOI3bUNR7g2ZUZ6vgy3vP36o1MtoVy8SMb1S4ewfn8c7r4U0niMxfoOVjixeTtknYaiZdUKeJYYi9l7czF0SE80qQw8OLsWM3ddLjhGiMmX6T5sGfrY/4efFx+ASX56Fr9p8di3cy123uYTi123RbEVUOFJhVcS64QQQggRT3IPFq7SNX16fzSrmoGLW8MxR2hc4Vx9yN3pfg8WNfjpQmqYsW+BJ0+Vr25zYNMxCCM7OcgbVziG5nXg7jsQfV7JK4KqwDtgLHzd6/AXDYyUrtlFM4fXJJavhwPfuMIxMIZFHTf4DmrLT2vFEYOGfgr3BrZ84wpH3vW8EbpP9EUHrZdX2nYw/2gIuruwizwYwLi6M3pP7QfPWtyAlgYwc3JHj/xeFVK3b2U4D1VNX/p4yMKp9eEI2XwJT6s0xbDgAAxpbiJ8p98UPUk0XTw9ycpm/7JKthAGluzCLTp6AvoJ28nShNu42ch6wk+/yYrbDqVh02YQZn3VEfUNHuDImlAsUG9cMXKGX/AodHPhL544hia2aODhg6AAz4I7xjlx+Pa7f5AKa7gN7FsQ1zadMKJLfRhnXsXeaL5xpYAlWs8Zy8qRIm9Wlqq+z8rxcHhpiHWTep9jzsweaMY1rnAz2PGkauMeGDOgpvx7ObHLK+eIEVzaxjXyyxp3LLF16YKhg9QHTZWSVgIbTwQE+ag9GlMJtg1as3I6Gt7qt+QNqqHjXOX1E7aZvw9ayBMIcpKwP3wRvj18F6jbEYELhqOrvfAflBFtYzJl92nEc0W3uh2asB81m9aQN0bdOBWr2rjCSfkN/16TAWbV4eIkzFPy2soFnODn549PHVk8cI0rHENT2NbzwggvDQsqmgd8+3ZEExu+cYVjYGQG21ptMfSz3qjPz5KuogtGc8tbT6lcvGsLx2YDMGNwR9jyswQVUKvj52hT1ZhFV0VUdmiGiX17o0nliuy7iqjWyBNd/7+9c4GLqtr++E+GQEHeNIKiPIVAFBUjFM00y7x5s8c1U7t1rX8vzYz0j6WRD0SNqx8sTVFC85WWz0jKt4mKlCJKPOT9UuT9EBgcZODufc4ZnBlmhhkUpdzfz+c4c4Y9233WrLXP3vustTZ9S9GrXgLR32c+UCxP9NfKCy9Ongo/rkAHuA+6zmAwGAwGQ3dETk5Oi4X37SIe+W98NnME+jYXIXbzWkTEVoN3UOa5SSb5E7364VbxUZyjDyvHvoX1n0+Cc9lv+IPc++EbgFe9rFD0+484l0Xq8x2F4Q5WMO1piPrs04gIjUDkoWQYuQ9Ff1tbdLt1EmfThadlyMO56KOI5o7b8JzkDpuKDESfyxP+rglnjNRS1mrim3h/pB0ac09h05dR2LgrBodj89HNyQVujs6wM/gdsWl0NKwvI/DKWwNgU3gWK5Z+g+9+PIzo4xdx7VZP2PWsxuk/8vliGReFazqKZs/x8LTJxIG3l2NV67UexfFLip48Nhg4zBI3Th/EuvU7sGvfUa69xu6ecBXbwfjWMU62+tarsxzE3nhmeB+IzUxRHr8Zn16ywD88yCDbshuyosOwoaQ/nnQUQyLogD7y5fXBHD16GKAq/Ri+WbIBUb+mttUHvWXGU5+TiN/SDDHAfzAGPzEErrczcCmrTkmHdYd6bSzArKnjMWmShsPztg762XFu9vMh/4cD6ouorA0x7p8vEVlY4ZHmeJxOlcItYCyRZy0ub7+IDOF3M7FxV9NWYh+0Qsl1xB9PUVkEkP8uwLX4s7ik+kcOG/g+MwwOUP99JYR22DoMa9uOACvktPf9e4Yh3CbPQtBkT5jXpGDf6kjsu9r2sa/3W+9gskcPlCYewNertnJ2fPzPOli7OMHZ2QFWN07jQhFfVlZyFWW9fDDM3R39xYWITWjBxI+mY7i4Holbv8KO1r6MaM9IqrcmMDW9ReQaja+JbWz9NRsmngOIHdvDVPgNOQSZ2dvZoXtNOn7dtA7hkT/jSNGj8HvcHuIeQPqJVFCN16e98B6H18b1hSzpIBYtixT6knSUGFigV7d8nL2iYEP6lC1NwXG5LeZYIYC0HdcS1NikOV4JfBv+4hbO3jetiESkQnsdbOzQ2+oGjlzgNYKXmTHpH6jM9mN16Bb8eKoUdr4+6G1tjOb8M0go4YoKNKMkKR4Jlb3g4zcIfv6esCq7gitFCp4unYXc3tTdd2SPwGukH/qatqAm5ywqXcfiiT71yPglVo19NcPIaxixv+4oTxPuo52Kdrto6d6CFuMWwO1ZTH+iH2SZ+7Hw2wjsPH4YvyRcRTGnD3k4k87/1qVpsTj422Fy5MJu8OPoeyseq1b+Fxu5z/jjjHAr5HGEr/dtJB35Hmv378buk4dxLLMWds6PoY+tKUR5Z3CpWv96B774PqY4Ebu4uhfhW7cg6mgMV6+1gzNc+hC7oGOUMlLQ0Q8vETsxN72N9JMrsKN+INFPO1iaVSJ+11KcNhmFQTYi1BTE4mKlHvUSPIZMgJdld/QwvoXCpL0I+/Zb7L5QAnuvwehj0R3NxDYvErHpem3dpN24g+cB6jqDwWAwGAwldPRgMYTP64EInjEYNhWXsSUkHFsvCj7AihTWcElne1rac6c+/e1hDDO4+Q7hzo2MqL9DFapUckJIMn7F8uWHkFRNBgOSa9j7ZwH3uaXYhXvtPAwRMMAFxtI0/BR2CJfK+GtqrE7H/jXxyCWt7ec6mPtMfxrQSOdHNk4Y42PL56mRVOJSzE4sWavot6wvGdi6cgMiY1JQJrjl0/buvnydvBOhm/AwUT86IIeaPxG9NQ0SGT9plBX9gR9+qkBORS13ztMx+VJ9CAsTwg7usT40Zv2CZSG7kFBmBu/JgVj0jjc0btLxl2IY+jvWoLxcBgcXX5YXSSs2GBf4KYKecwJyTyBswWYclofsKeGO4W62QHE8ItfFIYv2TwRJbhwi96egEhboO0hRJ5twJfJ7xBbJYOv3It5/bwrGuxmiNH4PNp1XV78UWdFrsCgyDrmcrmdj98FkUD9AB+e2diEr/QPfLNiE/Um1nDeB5OIFZNHCBgbgH6jr2d4aKVePSV9PjHLkPboaq/MRtzsSK7eqhPPoU1ZXrEZigDPpsEh71xN75/p/AtfeNWeRKwMsHL1UdqaSEXl+j9BIPtypsfoyznBCsIalgiOPIqVnt2NR2Alky+zx5LvzETRJwy4+9w3l3X/6WloL77RhBtNOT4Oiq10Q6qREe4k+9PLCaHtBH2rzcO7wRoRGp3PnHeM3rFkXhe+v5KFaCK+pv34Op67RkYUBRB1yzPBAQD9iF+VxiNh9Dpm1fMW03oiTycQuLNGvv7JvjKzoHKJiK9DUzN/fJFknEJXegBv1ivc3/evl9DdpO5bu58OHGmsTcbqA11+rNu4u+tP1dJ3BYDAYjIcPnRZYev/rA8wc4wCTuhT8EKIlf0VyKRlUAN1NLcm/9hjoYIH8/EKY9XXnBsnuYgvybxVuqCRpuJaikK/jvuICe2sywDf2xNQNKltqbpgAN1JCZGYNDeP2dojHTjKpqTJ2gP8b/4916z9D8MyX8bTn3YemmHg+izlLF7Zu58kd7eQk0Y7+cihP+x3n7zzYRFVBalv39g7Kt9P1ofQi1oduw4UyQ9j5/xufz+iIS3sGIuerJmlVOdrND3SXFFZz9mZAZx3ejrDDDZy5eA0iR2eMJJ+bGRsDldVQWs9USLp557j/O22pTXLbXv6We0JP+M96H1O9rcgk6gzWL9OWr6APrGnshl0AFirqLj0+epxMiQALc9UYlkLsWHsUWVJb+Pi5wrD0AnZGpqmEV8ipRXm2ileH0IeK1KyUVuUk4opSRYIOtspNz/YWHsLeU9cgtfLA8/OWYWP4J5j3zrPwUxdeoE9ZXRFCRsvzktv2HVVJyKPeKLZWINN9BaqQc16TPDVDF1aXhx5DjswMHi98iI/G9xT+8iBwJ/0ifW1GM5lkVyhN2jXRsWTVuqOPXRCKf8aeC4WQmj+Gf76xElHzgjD/5efg30seO9NRHoHDsH9h4exl2BT8FbYu5o/2cpJoxwHWdEhiOwpfCPW1HlP9OLsw76m8upF19RAUnaEKC+LU6Jz+9VL9zU5SyN/SCXQtXWcwGAwG4+FDpwWWor0bsJ4MriU9B2DK0rcwTnVO0cp1VJaDDDrsAKshcOl9DWnHbqDcth98XQBxT7O2E76/MaXHN2Pex+GIOpZI5sKmcPANwLR5S7AmSDUXgu4Y+UxBcOB4DOpj3RrzzdATujPGwjfw+KNNKI7fjmVb7uaJ6wNE1kKmaLxnD5fHobAAR+MLUGTcD17DARtTYm/NLR0Mgfq7Uof4byKwK7kKot6jMHPJi3eRZ0k9RvY2MBdsU2Tcne6W3UVpwpUd4Zg7dxP2x19FSbMt3P3H470loQh9W3V3OH3K3kNkzfdEf40cxiFo4TNwEdUiPXodvj5SJ/zlAWDljF40x460DLmk66lsoJ59VrB2UtehG8LVli4uNKBeSPDaOehrF7eRGLMKc1ZvwN6kNBS32MJj0AR88MEKrHzRq8P60OvJd7Fw4ii425hBnuqHoR9dStcZDAaDwXgI0TFEiB9ch2y5jArzAZiqMUloDkqp67OlLbwD+sGhqADx5xORVW4HtxH2MDEyBmpvgg/46AoUo7qevNRexreqT9PlB93lgS/cMSTXELd7B0IWfI7Zc7fjbFETzDxG41UyAVaPiUZXd8rIsT4Qi2QoTdyHZbMV2nkgUyihCW31dpYc7oN8ObTLTBEuSfPyN+AvT9IcmQzVzVJ0g+ZgUfESUD3mjxHKdhJC2AZNLO3v0gdFhSloLExFQfmdsDwap/Y3yHF7j6nA8fCVCDucBziMwiyNSSGrwTkX5J/APHW6Sw66G5oSRp548zVfiKXpOHAgBRKLwZjWJrmsZozGucKRvNbWK8SQ6EwH2kugIXsxkZH4Yu4CfLzsEFJrDGE34hlMUpNoV5+y7SLor62TN9oE/4mHwIU+/C8pvWuvJi5ha/AEeAgJW8N+Ku5UDwLtGMLn1aGgkVHS7HScJZ+k55ZBChFchz7bVk9cJmKYM3ktzkNcpz+Z0NUu7tBYexU/74/AwtVBmB0ZjeS6R2A/eDxeku9ArYpJz7aJX1vpjee83UlvLkFu/AbMCZ2DNxfzx6okGkajBa31VqGO3oeKjiFQqE/1eG9HHF9ULzqrXhW0XpsyXUvXGQwGg8F4ONFrFyHl+N65CHxONb63CaW1ZIRvYYGnPPpxYSOFyEByYS16ez4PD2syqKytJMOSrsJNJOQXA2YD8UrQRIxwM7t3T2K9X8ann07B80PFsBQqbWwsQEYRnQGZwIS6FqvAu4r3wcCXRsBZQ2IQbpGKyPlmcQFK6MqAiTWGPj8Fn46mo3D1tF9vZ8mhE+UroIvM5NAkzUuC5DtjrEb44b/44LOwBvTZpJXDUxjkWI6CyzfIGW9vZh5D0J9ad13NQ+Mxph9NyNqzFiFbLqHMbAAmz5+tZtH4T1wtlAKOw/HxzKcw9NH2wvvozmHT4C+WIuPIPhw6tBe/pEtg4j4WMyaqS6BhACMba9IbUHrA+ekpWDjJE8aoQcbvidyn+qFneye8iWVziF16yttApFKVg/wyml2jB5Sin/QpqyuFCcgi3QPs/PHOhyPgZslP5k2cR2DmnNFwFMlQlJ5wF/pLE7bORvCMoXi0NgV7vlyrPnfYfcEQlm5D8Nrc+ZjpZwvISpFw5Bzf/5y8gOQaQOT4FAJb5UDKD3oWQTNHoDeRQ+6l423DqDoFXeyCMHIGVk57AQHO1lyYF+X2zWzkV3GZWWDOhUApUowqer8y6o9R/3gMlmojiczAbXwGCcqLiiC5TYqbOSHgubcx3VXTCp4u9RK7KCbt6h2AT14dC1+r9uxYVzqrXjm6XJucrqTrDAaDwWA83HQbPXp0i/Bed8TDyAB4MnztyBAgfjtCFbwA+r7+CRaPofs01yLx28VYd568pbsJTX8MhjIRKn7/Bp9F8UNF73c+Q6C/LTIOqGwzOfF9LqcIzdMwP1LIDiF8pokOl6Xbmi6ZQSZF6v2R27RNV7yn4MtAP277zTZIUrBz7macVJndGxE5rZ4+oHUCI0exvX2nBSL4aQe0aa1MBplIhGw17dWlXp3lIFwX5N9V/a2E89byeshXL30Q0Ona6FPj12fj/8Y4wLj0MraFa8kj9JdiDOZHTQS3SS71Evp4O6i58fY2gEzUCTTnCs0FI9dH+bkSQj3lfyBcyOch/y3UU4748BUgZi9AvXneg6biSr+FNrtoU+/9gXo1zfvwKbiaSJAeE4E1ik99xUQ2wUQ2qgrGodxeMdHTYKKnoqxfsXiFsCWzeBw+WzwBboaliPv6S0QJZSfOX42X1O5uTJO4bsEixbwtqjanDT3aq62fpHk4VgYfvDOp16Osdt1Rtnka8rhklh/UdQ9NNPntkj2teWd4mbXVEfX9Bk3Y+gFe9baCNPcEvgprJ6fIvUabnsto6MZahB26k3/HaOx/EPbaQJipkYOE2GwIsdn73WWps4tbFs1oNm8GnpyFrWPVb88tKz2N0PX7kS2cy3F9PggLH+/T5t6VfnIOlgt530dPW4G31CivjNzfRKIqnN8Rggi6S54CutQL66ex4N0X4NFdOFei/E69wnXJvzvw5WAu/4vyOe6U17VewgszvsIrjsqfUVT/D0W0XdvKQwYwqKGr6A9Y1xkMBoPBYCihlwdLKzRJ6JJwRKdXo7FBBsV9BgqLqrndBSAtQCo32yOcTEWmVEQGSEB1yf15DqczjWmIDNmImKTrqGzQsGNCR0iOxncxf+J6ZUOrfJoaKnE96QhWzW+7uEJpPLkNX0WT71RLNeYdKPx+G7bF56FaypeQSetQknoKG3de0ugZpEu9nSaHzqpXQKdrI1TU1qM++wTCFv1dFlcofM4jijQ/k19coXD2xr8tr6S7SzG0wSWFXLAN8SVS3K6/rezVVHoK4V/+gNjMEtQJNqcW78kIfKE/TKTZOBIlLK5QSo8j6kg2pCIxnpg+RUteiyY0kN8qKWYjQjQmxdUBXdtLOXoQ22KzUFIntx0ZpHUlyIz9AUtDFBZXKPqU1YPGKz8gJPwIkq6T+4bQ3KYGvt4QhcUV/ZGgWtKAkoRdCGkvYet9gcqL9v+kr166TGlxhdJ48jssIHJILakT5MDLN/XY5geyuELRahfn9+G7hEyUSBT0QVKCDCLvLyLbLq5QsmOi+O/c4nfbUcfpPRtxMKcE8ltF060K5Kb+hFVx6mrk0aVeVJ7Aqi278FsBsYtGQdHuBZ1Vr4BO19bldJ3BYDAYjIebjnmwMBgMBqPDaPLGYDC6Ms1yDxbGA8fgptyDhcFgMBgMRleC3Z0ZDAaDwWAwGAwGg8FgMO4S5sGiEwq5LtolEwfejoBiChEGg8FQhHmwMP6KMA+WrgPzYGEwGAwGo2vC7s4MBoPBYDAYDAaDwWAwGHcJ82BhMBgMBoPRLsyDpYvQDTCoMoBBLXtGxmAwGAxG1wL4H+9lPzp/Ilv4AAAAAElFTkSuQmCC;" vertex="1" parent="1">
          <mxGeometry x="44" y="230" width="1112" height="178" as="geometry" />
        </mxCell>
        <mxCell id="g001ETVMJZDUqIwChMej-4" value="&lt;font style=&quot;font-size: 24px;&quot;&gt;Al calcular el Follow de statement se encuentra una recursion infinita en las porducciones de if_statement y while_statement&lt;br&gt;&lt;br&gt;Siendo: cuando se tiene la produccion de if_statemen a statement le sigue else_statement se aÃ±ade el First(else_statemt) al Follow(statement) y el Nullable(else_satamet) al ser nulo le correcponde que Follow(if_statement) sea parte de Follow(statement)&lt;br&gt;Al igual que en la produccion de while_statement el no haber nada despues de statement le corresponde que Follow(while_statement) sea parte de Follow(statement)&lt;br&gt;&lt;/font&gt;" style="text;html=1;align=center;verticalAlign=top;whiteSpace=wrap;rounded=0;" vertex="1" parent="1">
          <mxGeometry x="80" y="460" width="1080" height="350" as="geometry" />
        </mxCell>
        <mxCell id="g001ETVMJZDUqIwChMej-5" value="" style="shape=image;verticalLabelPosition=bottom;labelBackgroundColor=default;verticalAlign=top;aspect=fixed;imageAspect=0;image=data:image/png,iVBORw0KGgoAAAANSUhEUgAABFYAAABJCAYAAAAXD6I7AAAAAXNSR0IArs4c6QAAAARnQU1BAACxjwv8YQUAAAAJcEhZcwAADsMAAA7DAcdvqGQAAFH/SURBVHhe7Z0HWBRHG8f/EQIBQSmKKGBFDNhFEXtPRI3dEBtWNKKi2LAEGzYswRYMEhuJGo2VaLBrjCIasaCiIGJHigKKQkDw+2Z29+AODtg9OASc3/Msdzs79zI7+057d+adzwwMDP4HBoOhAsYY4fMzJtiVx/NDHhiwJEQIZ3wMWnvuwHoHINB1BDyChEA1om2qDdsutsIZRR9dB0xAz+pf4NXtnVhy8oEQzvgU6NZ1EBaNchPO1Etx63rxwepURsljtN8puDS9Dp/mM7FVCGMwGOL5+GXIFj/s90Rfs3e4sul7uOx4JYQzGEVLOeGTwWBIpiva2hlCE1qoYdcJrYVQxqdKY9SvrgcNohEm1RvCWgjNE00TtHFwxiKX+Vjvtlg4psKppnCdwSjF0I701as74CmpYhRRp7aegYCrVHb2EeApb+BkMBilFb7eWIXRwjlDjtGrFOo9evjllVFS4n4KtO4EuxpapN9lCLu2XYVABqPo+aiGla88fHHk3LIir0DVJbckUJbvrfRxCheuJCIDybj/z1mUqRfHoqmFERu34vReN2ZYwk3cefIWmUhFdNQt3BVClaOJdt+MgeOXFjDU1hTCipMq6Np/MpY79S7YACQJdcktCZTleysplNU6VV31ZFmuf9vBY89vOOfjKJwzGAyGigSdxZXH6UBGHC6cPCUEllTUVfeV5Tq15NzbRzWsmFevA1O9z4WzokNdcksCZfneSh+vsMNlEOyb98PgVZ/qlHUjWFavjopfaAjnnzLJOLV/Jdy8l2PF2QKWAel1hH1NHSDtCc4dWonp3vPhyh1r4f9IiKNW9FDNsDLKf17UTYC65JYEyvK9lRRE1KlBq9G7eVc0p4frMUQLwSUbddWTZbn+rYbqdUzBujsMhsDWmXy9Rw+f60JgHkiJ+0kQgiUDeqC5/RBM3VvSlwGpq+4ry3Vqybk36T1E7ZoY77sDO2e3hLYQxCh5WIxegcNbR6NxaX1ITM/KGFpo7+mLvSu7wUIIKXVUaAPPvTuwfnBVIaAQVNJDefKR8PAsDjx8i/d8KKNMwHSdwSg+qmI06StsdbUutX0Fbcuh8D28EbPbawkhDEZxwsoQ41NB/bouzXmtRTesXOuGzjWAx2e8MXXWSTwVLnGQwXD/GZMwrJsNqusR5c5IQXzEefgtXo8Dkel8HLruz6Up/z0PogPd0dsj+21VBbtvMXNcd7SuVw0VdTSB9GTEPL2JP5ctg+9N1eVy6f1hGpw7WqEykZuRGo/HIYFYM98fV94Iceh67vXdEeszHJear8NYuwrIjPoL7sMvo/3WGehbTx/JIdswevye7LwQI5fAOyD8gCOuixDqkB0/PSEMpzcuh0fACz6i5HvTQ5d5K/FDPyvoPPsbyyZ7IkDhQZVwCtAzUfogQ4xOyhAbV9CJasIpJZduyaFt2R0/zB+BjlaVQZOrSLYzL865V8Or2PDVbpRfMQXfNqkOPa0MpD6/ht/mL8yh6yYInOaDzEnz0L22Jt5c2oJhK99j7qbv0daU5NuRRRiy8DLS+F+QTGsMlyyZJMvePkHYyb1YsfoYIrMiiU8Dr7tm3Pe8uO7TFc4yL2Ukb51WLYNLaxOkhu3CVHLhptz/LQrU6dBTu/FobFr9LRrpJyN013xMWH8XkDmvrdkXC/s1g5EQl5JwbwcWBuYza0X4DQqKJ4UvaqFXdwe0NK+Mip9rAJmpiH8ejD1HzyLiPz6KtcNUTPhSPqW5eRA0H+suCyfQRLV6nfFNy/qobWAIHSr2/TskxN3GyRNHEZzEx5Iul0DT27MX2pmRckHkZqTF40nERew9dw3RGUKcliOxvrUBrh7+Cx/aDoKtsQZSHp/CqjMZcBzYHfX1gbiw3+F1PCLbOCVGLuGrbxejV9VIBPj+gy+y4mci/XUUzhzbjb+EyGLvLUxfcF5bBnU9DbUwe68fBhr+jfndPPGXEFeBHh44ubgDEvc549sVDwVnhQ+wb9RyRA+fg2Ft68BIWX1GkVinZiH8DvnFFVn3SYbKXeyCb2xrcO02bYee3DiIFbOz23nJ9SS0YPnVCEwa0wFNLEy59GakJiE6/G9sX7Qhqx2XLpcgJh9KQNvC6w33NQ+eK+p9hTaY5zsD/erq4Nm5NZg8I0e/tAjg06Qex5sWvedi7ezOqIFHOLPCA7Nk/T7YwjPACw44BteJN+GwdLTQh0hHQtgZbJy3WrFfJ3t2JG9W6YzDj6690MBMF5rpCQg7ug6Tll6EXPeT9KOcsHi6A2xr8P2S9LcxeHojEMvcdyqpr4he9h+P2cM6w6a6Pjkjzy0+Auc2yfVTBRT7OzTeY4T86YP5PjcV/j+Fxp0x+1t0lvXlSJ8r9YMudLTk81rIh2q5859/Ljn0QWI+SEmvNMTmmR7sRn+Pcb3sUa+agYhnISCMC3KVc2UUFLfMliGCcO/y5Jdn0sqFeGS63s2GryfpuDDi3A4sXpJdT0qu+0TqjnS54soF3w7FwaffVTTfMgJ2FTIQRdqH4edbYqtHb9QjfYiQza4YvzX7eYgrb0KZ/3AUrjPuwiErfu66T/K9FYOui56xQjtbW7dOR2ezJAStd8GQnEYV6s1/vTfm9mvCD0opmrqobNMdc9378ecqYYuZP4yDA2mEuYqXoqUP0zpt4bz2B3yrssmpKkZvJOl1sOE7RQRNncqo09YJ6/1noH0OuUbdF2KcnRGpHDWhU9sOE36ZioH1qJM9TRja9sC4rAXO0uTSfLP7QTG+lpENHObOxiQT7lQF3uL0Uhc4rQlCgmkHzPf3wbwuesK1kk3BeiZFH6TopJr012QA1vvNgIMNX0kXiGYtOP7uhdF2fOVLAqBjZgdnrxnoxkWQoYF6k2ajV23SYSBaadSqC9YscyEdX/ojLdToPhBDZXmh3RKe/vIySQy96mjSbwb8NjrmfqsuOg0SSHsEf9eRmLUvArAZAt+Di+FkKSSmhEMb7V2bhqCRZhQOzhuF0dxAUwWokUDmpFYwxBh9OULOcS05vm3Lx5VMHQwb7ISvapnyRhWKhg4qV++EIZ3q8OcqYY9BPdqivjFvVKFofF4elc1awrG3A1T2s6tpBSea3uqkXAhyNbUro3bDvpjSvy0q80EC5WDWdgDsjLU5x8D6NRrCuYcD6uvTAqUJky9bo5OsbEmSSyhXBR2Gy8fXgFbFuujeqy/ybavzo0zq+kNExaQAhhVAxtbKMa0AQzJ4SHzxUAigfIEWC33g2pkaVeh5EdQlUpBa94nGFgup3LZ1stpt2g5VJ53yH2ba8ucq0Q/uyxzRlk5pFtKrqWOA6k36YO4aFzTkg6QjKR9KWdvy5iKWDnbBmqAEmHZ0h//uyehSQbhWotFCY9cfsXVuZ5glBWG9k4vigFCGTn3M8neX60OQZ0L7JRuU+dXRRaX+q3DY61s0ocYEGqRlBJt+7lg+WHhABO32M+C/3onoWXa/REvPlPRTR8F3T85+qhbakzLsP7cPmnAGAgp5bpVJP3XsUMU0WDhio0J/h8arg7ajveDvmWP2ccOR8CNx+8n35UifSyc7mYVAXD5ISq8kJORZ6+/xg0t3Eo8fGFNkz2Ltqp7FM4OkrJchkUgrFxIQxgFU17Pr9cqwcZgB96H8uUqoS3cklQtDdF8zCna0gSflt3arkfhlbn/UMyQ/1DSEbV85fZda3oxa4AeF+ELdt3QEVB4eF4OuizKsWPT2wB5fWWdrHFz9HykZWHRFW1t9IOIQRjv04Nf1dR6GmT5nEJ4s95pQbt0fv+yPWjCFdYDCkfPNU1rcDQT6eKBPZ/56G4fZ2BWWDOjboct3QiSJck1GT8PIpvpIDtuDmX36ctep3K0hcYB5V4x1NhZi8tSoXQMxgfPQ2S+UnJnC2ro8Qv2GY9RB6hDBDKZfctEky6UNgImJDuJC/OFC76/zBPiHkg6sZn006yeUQBXyjPJ093z0G78LYbBCv6WbSaVTs1CVNLUM5vQyrnAEzCiUAz1xeiZSHzhE6iSHhLgS1vhbjf4KVOyry5vhxKW3L5xW/Y1nRGRG1AGMymW9Nyb6kIr7gavxXRt6b0twmv6DSjbo1J6PwWOK2rWp5X04pp2IIedWRCdjcWJaX6y5TPXHBLWE/n3rH1zgYA48O7cu6946O61D4P1k6Dfti8m5erQFpyHIYwR//83dEUivRR+DqyxPhCP3G4F0nF/hAqfFfyPGqDVc/daWcIMfbbTXwX++0Gg7T8XS02+Fa3I8OoSFMh8pB68hQQguVmo2hKWBBt4+/AuLNvFpme7nh9+u3UeSnPreDVwr+HLZgav09cCba9gkS7twKMwqwQekJNzFueN+8NjAX5+960+EJmVCw7gu2hK9okiVa92N6KEB8PLBn/D2W8xdp3KvvkwlAy17fGMlROQwQFVSbT4I8sbmcDpFxgwWVV7j2uFlOPCY1BDlDGAqpEOaXIo+KuqlI/reIawg9zfdby9u0PSXr47GpHxRpOcZpezp+oMEui6d1CtCJW8125fU+xvgKvRwbKtXIn9f4MVt/pzHDDW4mYfruPovz/pMTX5TpNd9ImndCc3MNZF48Se5dmgyFuy6gji5Rkt6PZmB5EcXsGvBZDiQupdep+k9RxoMzdotMECo06XKlZYPH7dt2eosuwc/0tMhXPcTzmWH4ptVnhfY7ToS4/3vAHX7YOnvJd2YWRW9V/vC16kRNB8exrzv5sM/5wxaGYYWMNeJQ8jW2ZxOtPluNa8P5q3Rv4cQJwtDtOjYFLh/DKucaP+zB77bGooU0s+07fiNEKctPOd2h7lmMnkOfLmk8Rym+iMkjsrN0U9t7YoZvWpCK4OmQdbv6os+MzfjTBTpd2VhjNHzh6KpfjLCdsniyeSS7m+3IXDOGg0ZY9LM72Cjn87VDTLdaeMwCrsU6g9VEZMPUtIrEdF5RklH3I1j8Jk5DJ05/aZp2AO+S9sOCl1atVJGy5BoXzMSy4UUetlz44CIA3L1eh8P+Jy5h+RMIQ5Bet0nTnekyZVaLmqidvUXCCTtAzc8rmINa91Q+PWbiIOPyXm1KuCHxyqUN10TmHB133Tu/jo77QQ3PLZpjH7CYLYkthcFGFa00H62D+lsdYBpzN9Y7OSifGDB8Rap5IZR1QaD2lXjB/BvYnB26zIMnbafnqlICJaMnQGPrZfwXJgnlBZ/FT+eiyTfNFFOeCspDS30atUQuimXsdnZD2ef8/dE5fq4HkUYkWvVsCMXlsXLi9i85DLevOdLQUbUMXj7vsCtF4ncOY8KcgnJ17dh/Hhh+vCb+1h/IZwLr2Su8vupLNJuboWTkxfOPDcgdb0Pdnm2QckzREvRMyn6IEUn1aO/rWqRUQWe48rOvQjj0vsWYXs8EXCLpLZ2LbSgQQpk4FngCoz04KcHpsWfw+Gbz0m4KSpb8jFkZNz9E4u3vkBGJq+TyUF7sej8WzxOkNdJWzg0NiMjm6PwmEEGxPF8w/Mm7E94bLqEWFSGVZuceiY+DarwNMATjuN3ITSjNvot3Qbf8YUz+KmHqhi8fjtptOuDtAIY3y+fjq9YLm/PHowLBhi6ZEh+gO669wIfVyrv0jgjpE5lK7Qy+YILev/2Ka78/SvWnizMUqMg+O3YjQNhT/FaMNCkxP6LizGvybdyKCe8JZFGHbSoZgQkXoV/wL94+JYXTOX6XwxHIqmhzLlyk00mubbrciIy//eBO08lg8+dUf8hNvUdd84jXS6RjJf39mNNIL9M6P3b27gUTZ+MASrmmt4inbKk6yFPXpK/hqjIGbG00MmKzoSyRovv+M5meS3qNe4lnijY+GldsghDZv3J1X9FXZfkjyp1n0hepoCurtOv2xJ9vuQNZmnxd3H0x7kYuySPJUmi2I9pAxfix6N3ES8YaGh6D9yKJd/KQUMl5ZGeD6WzbUnHzfVT4LT4DJ4btIarvw88S6IxU7slZu/2wfyOVRFzzgtOgzfgtNCXUc5znJhFBgE+VzmdSIs8hnmkA5FByqKlXW79TSYDC6fBq7EnjPah0hHpcxm0R6kpq6x7dELTSqRevLyNPAe+XNJ48Rf8Md77PCnBmrBpnL0dbY/+LVENKQjdNp2kQdbveovnZ/di1lTf7J27tLuiVUNdTq7zj7J4vFzXw2EkAfXQ0IGLCVg5or2NJjLC9mACqRtkupMW/xRJWWs6C0eB+SAlvRIRnWeUoPUYO3Y1tp6NEZZC0DT4ge/SakClIY7KlNUyJAKJ5UISb1OJNpCWtmFPtLPgB/Bvnl/C1lmTMG0Hd6oa6tAdFcrFS3JtCWkf+OFxBqL+8oXv03C8kH/LqFJ5S8b1zbQM8cuE3oRtAz88Noa5YNxXHfXper6Gldquq7FioBX0X1+Ct1NBfjqOYtWmIMTpWMFh7i/4+58d8F85GY52hU8oXfO2ds9vOBckNzsi/0VVBdAQtaqQylW3JaZflJNJj4uj0IjE0DSsAvmXm9H//oW/hI4OJS78MsjYOAfS5VIiL8n5Z1EHT09i1ihPnHyuhRoO87B9fnPhgjSyLYN5HL1Xq7Q9pjQ9k6IPUnRSPfp7+wWdlmiGxoO+gQ1n0dKDjaMHetP+UOIb0PeBisTiVqDc+vV8uHV2q4LeRN44quR3ljCljgtq9ME2eX2kx49foQq5ZGRUnYuZjfg0qAo1+I0e+RtuZRjC1tkba4dXFK6UBCrCYdUqTG9tgoyog3B3KnofGUVO/En8eTMa6XqW+GrAXPw43gWTHDqiWSWVLB9yaKJao56YOsodq6dkL1kqyOdI/lSlK0rIGL0lpskvg6JHnyZkuEAGrLqKVo1HD04hXvhOiY6+qsThr3S5wGs8uivnn0UNlBldvxeLaOhCz5B2DLuhvuVz3L2biLoNu3LGIsvKpuTBxOIeF1mG+uuSvFGl7hNJxC/YuC8CqSbNMdrnEIJO+MLHczi+KvRbL+qXYTJ+ObAP/wRnp7cgfyr5Iz0fSnPb8jRgGUbNO4nnWjXh4Lke81VdXakWLODqtwAD6+rj9aWf4CRqfX8cIs8rGjrTSFmMI5/lNHLrW+7+5B440/6Z8x7+lFuyB4SHBOR+DidvIoKOAKtYCLOPjWFZhYuNC74FLLGwtQDf/XXFxRz6cNGZ6/3CsGotPq6lMZeGuMe3uftQBwXmg5T0SkJCnnHowc5lIfYcOYgguTQUaohTSMpeGRKBpHIhkb2bsCkoDjp1u2Pu7wH45/B6rJz3DewK/ZZbDbojuVw8x78HzsrlWSzCz/OTAxRQqbxF4pKcfxZ1oA5dz9ewErV+BmaTzkNyxVZw+30xBhewIJkuPenx1QQs2HUGEfEVYNm5D2b67MNJX9XXMmevectec8yQCN3hYZsHupml43HgUoxcfFW4UDKQomdS9UGKTqpDf0N8TiGU1DjV2k2B/xlaiRyC/8wOMNfMQNTpvcqdQH4CcB7ctw9DQ81EhPi5YeqvdAZESeE1AmfOxBrSEGrW7gev3S6qr60tNjJw+8zP+MHPH0fu3Uf8B0PU+bIzRg6fix++toKqO9BVbjkMU7q0RG2D8tAS7ZGLIU+Z0fWgp6TLJMyk7NEM1mmR+OPsI6BeI/TXrgUTai96+QKFma9ReuCXenV3mA2fwH/xNLMqmjmMwLLfD2H/QtV9M1iMXgo/zi9D9pp5hjQqdJmBbUu7wSz9EQI9XLFYxUmA6uEp1jsvwr77yajYaiJ+X99b5b6FWvmQKQyUKkBXHW1f5fLQF76WPaTkGd1BbgPWj26LOqYyXywfH1aG8iCrXEiFLj0Zgq+clmHXmQjEV7RE535T4HPiD/iOVnXnvZKpO6UNdeh6AV1lxXXi08U4QX1zH0d/XAan/v3QyWEJAqLSYWg7EFNyrQWVUQEmuda9Z9NnYHtuEErX8PJr3oQj37VylPzkPkI87dsm/o35Mnk5j299EMFHloC65OYk/zyTh3MGu98DDjJnsB6KHtGloD4fK+L1TCV9kKKTkvU3fxqObg8b7WTEPIlHKrcygXrBfoALZIA1fIUSq26RE4fXdPb23V3oIa+Hckd716N81MJgUAGCm4sC4Rxk+o+CreAgc7yvcl86Hxf5NZj9sbKUOCB9/zYSJwJ/xXK/pZi36wTuvdOEiU0H9Mir2tbRBfWMoZwq6FSvNnSQiifX/LN8rNBj070CPMnkK/c13qWSj9jzmC+/DErumHlQFeOvuuTmIN97U6Rs6Tpp32IBE5OaaN3KEtp3ryFg51Xc0mqIVn2MUP4L0vQlRJeg+1N/3UeXoW71mANHh96k07wZl19poUavYRifl2+GfOvJWhjavSkZcNI16Lw/DVk6XQPpcpl8yFeuuvKhmNqWisa5ZvkqR4tzZLl/afcsR5YeeS4p/oikXcaKwS5YfO4FjFq7quQ8sWGnL7kdtF7HUx9/EhGWJdSz7Z3LAKjdoxmsdIGUJxGCgfQhXiTSjos5bHoU0P5FJpAamNQB55Yq1QV60N3COO6/5GaqGFTM4QrbwhGkahGHRW/YqjjhjENKeiUhIc/QDQM7WEAz4ynOrZog+MngjwKHOGrh0ylDuZBULlTjTdgZ/DjLFf079oWDxxFEpRvCdvBY5Dm8yLfuK4Tu5CdXXeVCbeUtByWgvRD1DlJxnXgeTlCJcv/yywyM7mSBysLFtLR7uP6Qtrz60FeyXj2Ga5XroPUE2TKJ3OiRTiwdeCc8uYdn1CJQwRSdRs/AL/3rc9eVUbDcVzh7jzRIhm0wydcZPRsZqfyGSRF1yc1GTJ7JEOsMtqQgRs8k6YMUnVRBfwumIQbY14FmbAi2zp6HMQOoE7XuaOcwHlN9VdxZRjIXEULnMFp/g3Urv0Uns8ItbcqNYEzUbYJvZjXPyjvl0IpMhDPYEkOONZgl2QFpC0fM6/sV7CwMQEsI5f27x3j2mmqZDvQN+LBsyKCIGiE+rwX7zpaoqPTtuB6+4Ka6pCIhNgYppK/4uZ4F7DoMRv8aeS1nESP3LiKph88qLfB9rzZoVJH3CVN41CVXhph7k1EWdT0SMQmApqENBthUQfiNk6SSPIVb93XRpEN/mJGRXuJLFQZ6akONdd+I+di3lrTxLUwha4bT4m8h/DntmuvBKNcrVDH1JG+cIt1vvLgbhTdElbUrW6PntIWYZk8X1ihDjFx15YO62xbBcFO7JSY41s3KZ+VIcAZbIniBgBnjMd4/FBm1CnKeqAmD2kJfUtsIbV1WwOubmkDGHVz+nTqUlsjhq7hFHptuy1Hwm9YKZlzGaqFyW2dscmuDSkjGjQukbAsE3gpHBiqj48y18HS0FnSMxv8WK9eOz36ZFncR9x6T7i+R4zutMxpVzseoEHQXj2ga7AZimQO9N7pEegZ2+zujaa6pLCF4SKfKoR46zWrM6QFdDu7r64KWKvoS5ZCSXomIzjNy33yXNhFPbr3gXnpWMGuF0Z6rkc8QR02U5TIkAonlQgqtf1iNXzxJHSkrx6S9TQu9hYfUF79+eaIpORFT96miOyLkqqtcqLG88ZSc9kL0ZFNunfjop6RScENn6gS17lKMUpj9oAWTJt3hQg8hJIvkIJz+Xfgux+krdzGzY2thmcQUIRSIDnTP2uXmQkQExjW1QiOnTTjjxAXxZGSQiks5YuTeWu2HwBaL4GDriEVbycGFZiNqb3glqEuuDDH3Rp9F+9lrsWigFXSe/Y3Fkwv2WyIG6mOlEEkXRUF6Jk0fpOik+Lj83u051rw7eOGq4Hgp+xlH4+Ubkiqbjpi7K4fT4vRkxERexGa5/djVQzp2r9iJzrTD0nkcVpFDkdz710vjFc7eeYAh1nVg/e0KBH4rBBMUdZ06yFyDKa1NkEodZJILJd5viQBdgznkcQw2rf6Wc0Ba3XImXH2zB5DWDlNz+xyh2ygLO4U9CFK2a0wRU04HVWrVx7BauReIZr66hgvPhJMsknEzJgYdq5jCorETPBsLwYTs9D7A/VepaF7BCE0cZpGDu8yR+UHOlb0CYuRm4NyZv9F4yFeoU/drjCWHIgm4enAt/CWP0dUlV0b+9xYmfC+Lus4n/xViEknPs3UHdMBd+B+hHZFXOEbKv1NfW9iQ/L+psNWyeMTXqVLiqrHu09BHzbbtsaitoxCQDXVsvz/Xa00x9WQIQqKS4VDNDF0895KDu8yRQdo35YiRq658UHfbchFX7iajY2sztJtJ2vuZQnBOudSR5fbZGFhXB8/OeWFyUflcUDvUmDkNox/NxdrZnTnniXU9pip5a9oQQ/buxRDhjCeZPN8V2KiKg5K0AKzY3g7+Lk1hM8QThxUEZyAx5Hes2ps9yIjbuAKbG/vAhfS7HGZuIIdwgRJ9DIeEr9SnyOp1x9BiZXfYDpmLrYoJJtDdLGW7IB7F72cGwq6XBb4iuv6VTNeTI3Dhenm0zeEj4sjNO6TfV5/o+BqcydLxZMTFacBE1Z17JKVXGuLz7Aoi7o9C07qN4OR/CIpd2txlns4az+k/o6nLKVzlOq2K5UJK3LJchkTng8RyIQntyqT/NI47cpIc9A9yD4/F1H3SdIdHjFx1lQv1lTeektNeSFs1T52gDnGBX0g8/nuXofjGPehnLNl6AQ9ikomq86S/jcGDC/5w6TMfe5V0LNP2LsFUP/Kb+BSitsqJWOWJZYFhiOfXUSAjNQlPruzB3JVnkFebIkYunUrm4eSOrRceIOZt0Vmq1CZXQNS9EaIT3+BNKOnUOxaNUaVYyUfPJOmDFJ1UQX8L5hX8Np8ixZqQnoyE13LPTEsfpjbdMf+nwm1RLYqnezDJeTUO3niC10K+FSW3VizEsoM38CRffSedoLfJeHLGC06lwRlsDjiD3wBPBD5JQdobfgeeEkXIX9hz6yHi/0sDb/LIRPp/8Yi6dQirdgVCmS3h0Znd/G/S8taJS0d+wzG6jE2wo2SkJeLJ/ePYdJXuo6ccMXKRdAE+ew8h6Hk83gk7rRUJ6pIrIOreyrCu34gWHMlF3cUxocKNOHATUZqa0EQs4u7zYSUGddV9O3/i67ysOj0Dqa+f4MbB1Rg23EeJY3tx9eQh97nwu/IEsii0DQo7s5kMGJRJ5BFV/6orH9TatqRj70ySH6QvJWvvlROLxDdvEOrvBsdSMyDMhjNmOm1DSPx/pM7Krw0lZKTg9ZMbOLjMDZMK4dTx6dZ5cF52GDeeyPo7whLlre4YMD6n09cX2DrJLYe+p+MtTccvOxU2LEg7vxpOrv648CAmS4fzImjhXKw78wAJXLx0JDy4AL+pU7E3t0d/zlBB+318XJrWMASSPBh/LO92SAxS0isNsXn2EKtmrUFgmNxScVKPXNm1GCvPcNN0iolPqAzlg7RyIZ6gVT/mGBMSXYihcqejj6syx+Bi6j5VdEdcnaqucqG+8kYpOe3FZwYGBv8TvjMYjKJEuyfWH3ND6+TTcB+2XGE7OO3K32DlriloY/gUR8aPwsLCLNxkcPBvsqFonVYj2qbasO1S6D3fGGWEbl0HYdEoN+FMvRS3rjMYnzL8W+/CvlGVii08A7zgUK24/y+DUfR8nDLEYBQ/bJ8HBkNd2FqjJrdeWBuV6mWvxad+YRp1boIa9FrKU4QxowqDwWAwGAwGg8FglFrYjBUGQ12YDIDvngmwzXNfwWSE7ZgNpw3FsTtQ2afMzFip2RcL+zVDDq8tynlzDZu2HMJd4ZTx8WAzVkoprWcgYH13bpeVAok+BtfeqxWWPzDKPmzGyifM6FW4mtNJR15c90Nz5z3CCUOeMjNjhekDowDYjBUGQ13E7YersP48QX5BIXVc++ACds11gzMzqjAYDAaDwWAwGAxGqYbNWGEwGAwVYD5WGFl8BnTrUnwzVhgMBoPBYDAYJQtmWGEwGAwV0CyviXZftxPOGJ8yn/3vM7Tr/Q0zrDAYDAaDwWB8onzWoUMHZlhhMBgMBoPBYDAYDAaDwVAB5mOFwWAwGAwGg8FgMBgMBkNFmGGFwWAwGAwGg8FgMBgMBkNFmGGFwWAwGAwGg8FgMBgMBkNFNGrWrLlQ+F6maDBiJjxd+6Jr3TRcvvQY/wnhjLJD2X3GFeAwfQ5mjXWAveETnLn5SggvLOqSy2CUNJiuMxgMBoPBYDCKjzI6Y8UKrWxMoQkN6NvYoI0QyihLFOIZ9/oeW7asgXsv4bzEYYtGNvrkzjRhatMUDYTQPNEyRQfnyVi10Yu7L/6YA+dcP5Qo96NTG2OW8/fj5WwlhBU3JSENDOmUNl1nMBgMBoPBYJRmyqhhJQKXwmKQgUwkht7ARSH0U8Nu5DQy2HZGibUfFIrS9IyrwmHaLKzzHCRygBeC0LBkcmcpeHbzOm4LocrRROeJE+FkXxNGOppCWF5IkVsSiEJskvD1o1ES0sCQTmnTdQaDwWAwGAxGaYZtt1yG6eW+Bv2s7uPgmJ9xRAhjEOiMlX51EXFwOryKJWOs4Ow1Hva4Am/3PUU7yDPsgfmru6BGyiOc9NuOA6HJSBculQV4HQYiA9yx/HCGEFq8lIQ0MBgMBoPBYDAYjJKL9BkrWqboM2sOFgyzhpYQxCjdmPQahxVze8CSPdDSh5k+ypOPl6HH8XsZM6pQMv+XyX1+yPx4Bg21p0G3AZw958Ctq7EQwCjdaKKx83R4ujSHiRDCYDAYDAaDwSjbSJuxYtIcLlMGwdYUiAn5A+t8riJOuETRte6IoX3s0KB6JehpawAZqUiIjcQF/99wODLHoIT6hRjcD1+3qIkqdAlDZhqSnt5EwLb9+PuZqnE7wX1LLyh4Qog4gjFeZ4WTHOjWQf8JA9DZqgpyr6J4iWDv5fC7DTRwJoMe+w8I8t6ByFaD0LupBQzI/WW8eYSr+3fB74LgGLGBI7zc7JBwcBnu1JuEb2zKIzM6GD6ed9FkjiPaV9dFSngglq08m51v9N5GZMvMTEtCTPhl7PY7gbspQhyC6DQIszHy42WwL9z9IoQzHTQf8T1GtDeHdtwN+Hv/igvyD7XEIfEZy3SnmQUq6WmD5DDS0v4HbW3N3DNWRD4LbgZDnXDsm3oaOln6Q+TG38fxX7Zl6Tr/zCpx3/NCIQ2C/sj/QvFZKUH4DfKLJ1VujnKRkRqLh/+ew2+7r+CZvOUmS9+nw/tGe4wd1wmNzSpAk5TP+DvHsHHTecX4KiDLw4JnF1lhxNIxaF/pJYJ8vLHlZtEZQcSnQTpalj0wY1JH1NFNwYOT27D6j8eKxjExz0LLHm5rBqGB7ktcWb8KvnL3btLHBQt71wEiA7Fw+Smu3smayTYhEBqTHdEtD/3lkPqMxeoOhcZ17oM29Uy58kbbi9iI8/h1k2J54xAbV6Kua5nbYfCwjmhRi09vZtpbvHxyE39tPaBQD4ot8xykHuk+cSz6NzBE2sPTWLfyL0QWshwwGAwGg8FgMEo2oncFogMA9+k9Ud8gGbf3+2DV7gi8Ea7xWGHkzCGwt9CDlqYwEabc59CpUAX1bKvh7enreMi/+CXQHRumYrBtFeh9LouriS8MzEinPQ0BFx/xYRxS4tZC2z5WUHjv+yoiRxwZVhizeBy61NSHTKwiKXgWfAHXSOfaxLYdWplXgN6XzWFftzK+EO6vnLYBzBtZ4PMLV3CXbklj0gDdWpnh84q10ax2ZWiiHDT19VCtYQM0qVGBnJWDdiUj6EXxckFS2muGK75rLCdT8wtUqGKJls0N8eSfO4gV8kx0Gqyao491/m++U56F4NQ12S4ZGYi+GYyQFHM0b9EIrdrUh2H8TdyMLrqBadEi5RlbYOCcCRjYhOiOFn0aFPJMhLx7de8ELmaNt8Q/C6u2X8O6shaqtmqFRtVl+kPklq+Eeo2M8eL4LUSTEP6Z6dKLeaKQBkF/5H+h+KwEqPHMfTD69PkafYT4uubkudNz2WH9PjtPxMqlaFnDecFYdJYrF+U+14NxjQZoafUeIUTmOz44Sy7Sq6DroI6oW1Gbz2NSPstX+RLWFe7izE3FWkIqcdcuICBA/jnlQYOuGNLNArrl9FBV/y2OXHoiXCg8otMgEZO2Q+E+oQ2q/y8a57euw8ZTL5FVRVLEPovMZ7gWbQT7lnVRt44BHp+/zeuqSVe4jrWDSfp9/Ll2L64LD47TX+P/wdiuPZplyRb017Y63geHIFK2xZaUZyxFd2T1b+2KWeWNthd6lS1hZfQoh25KiCtF1006Ycbc/mhmqpedXk0t6BlXR9PWtfEh5Coi5PNMRJnnyHyLyOAgPKlgjWZNm6BDG3O8D7uFyDcfhAgMBoPBYDAYjLKGKMOKSdvhmOPSGhYf6ABgA34+n6Q4AOAwRsPmBnjx9yFs9PkNu/efwLHzj6FtZY06JqbQ/u8kLkYKUdEaA0bXh/HTC1i++Cds33sMAaeu4tl/ejDVS8LfVx4L8ShS4j7CRTIAooOggID3sKYD8LwG3Z37wLlVFWRGX8K2hRvhs/cUzj/ShFWjWjB8fwc7XTdg/ws+qsyooaNTDonhJ/HTok3YEhgGLatmqFupEj777wwuhJNOs9CpN9Evj5fBWzH7WkX0qGcGA4PPEBmwEpti66J9DROkxPCDNMNeI/B9W1OkPzyLzV5b4Lv7KJdnn9WsDcsatWBa7jLO302TloaIq8L9n8AHazqAoj5WlmF1Vr6cUDrIeBd1HefuaqK+fRM0adkUdd5H4FrkWyXPWRz0Da/7aLmBfs6jjSGiTt1RmPEkDvHP2HAAyV+7yvgQcw2/b/CFz/Y/cfDYJVzVro7OdQwVjBpSngU/MNUmz+I/PAs+gDVLt2Hv2TiY2jZGNSNtfHj8D0JiswfkAQGPUKVNc5inXIH35B/xS1b6cwzW4+7glOxalCHa0AGtskGhCOOZgrFJrFxCg9HOGFRPB3HXD2L96h1ceTt16y2MatdErVrmMHzxN/6VjSAFfa9qaoovXocjcPNGePv9iePRlWHXoipMdIDw02FQMqQteuLew6xlE9T4Igkhf+7B1Wc5B7HUz81cTBysRBdlh7wxSq1ownLQRMwaZI0Kr+9g/xo/7L+Xe0qDlGeRGXsP8VUao7mVFeqaPMX5kP+hl+tQtDJ5h+s71uE3WjcI8Pqri/Llqf4GYD3R9x2BD6BrXZ/U1VVR/kMw/g7jdV3KM5akOw264ruuFsgMPYQFS/yE9iIcseUqospnj3FBfntkKXFF63oFDHAbA3uT/3H16eblfvCTS6+5sSmqGb7A8X/5Gkpsmc/mA2JDgxGSUAWN7RrBzt66hBusGQwGg8FgMBiFQXhPlxeaaDzMDR6jmpDB6w1s8/TGjqupwrWcRGDHik3wO3oH8cLU7PSkcPx+4zn5poHPNPgwnlSk0367cU10alyJ99WSkoBrR3di0Ybz9EwOKXHFU69WZWiTz8eX9yE4iXZ2M5AUegSHQl8CulVQR8nOqikRgVi5Uph6nvIM+27xb8UNTGpzn1m8voWAHXeRkskPZjKjr2DP4VeIepXMnfNook392tBOu4vDK4/gWjyfrzTPDqwNxkOSZ9XrNOHC5BGdBhVIj/wLSzx3IyReHw0GuWGBcwOFN7+li6ro2aQmNDIf4cTqnTgdKfgfSU9G9Nuc5iJVnkUm4oJ3Yakfv8QhPekG/okkugMjGFjwMdTGkZ8xZsx0/vC+Avpf6XKHrDB65LU0Kl+s0MqyEhATDL+NQYjkygVRs4dB8DtwBwmoCItGufUsM+4Kfpq7OctxbsrVf8FlRbly+JyLURyQ+meeO8aMX4qfL5XkwasxurrNxqzuNYGHp7Fy7lYcy7n0kUPqs8jATb9dOB+diUp2ffH9eEd8balJdPQPbFaaH2mIDFiLBX5BeMjVJQ/w+6HbnC6Z18pd7xT8jCWm93UaJ0fXwhrtauhwQelJjxH0ux9W7MgxNUhKXLEYtkX9WqRRIun1IfVpqHx6117gZldWrGGTYxcv6WU+7sKvWLDyNB5kVkX7ce6Y1ceU+SZjMBgMBoPBKIPka1ipNnACXDqZQ/ftHezxLNj3hq71V5iyeB42+q7Bli3CodTfRzB2ks52orY57J1mYqPPHHi49EcXa77TrIiUuOIJj07kZmPUaNYHjQyogxVNGDTqhb6N6Or8d0ii9qAcPLsj5xslH17evYxLdCQgkPgkDFHC92xqo6oR6dhrW2PwJrn8oscmB1iSGBr6RsjZXxebBpWJuwqfpf74N14TpvbD8cOoesIFaRzxkhvkKzuKenecXJjCQJ98JMYhPJEPyRtVnkUioi7d5Y01ZQYzGFH1N22DefJ5QA/XFmT4SAabFXK740yMuo6bChkRAT/34njGUhDSpEwXZYdKxigp6MF+4vcY3MAQmdH/wGdJfr43VHkWT/HbhhOITKuExnZ1oBn3L3b65aWjyXj5IMcsjttxSCAfGopWcI6Cn7HE9D49gn1nnyHNsB56zlgCX+9pmOH8FezMaV2cAylxxSJz+vzodu66OTEUj+jsk0qGqMmHCKhW5qnBetnSk4jK1Ee93pPg+rWecIXBYDAYDAaDUVbI17ASvW8TfEiHNkWvPhwXj0bXfLY40GrsCA+3r9HIzIhzAlgQcae2YsZUb2w5eR1Pk8rD3LYNhsxYhLWzOuXaSUFKXNEE/oMQMorQrtEeU9Z4kQGAF9ZM6YRaukDK7Ss4XOBgvIxCdyiZ54QWlTMQE/wrlmwLFy6UNvShW3qn2zDKJG8R/NPP2H07ERrV2sFlUV80LuLpC1pVjVFBqH81tL+AfomdHpGBm795Y/r0zTgQfA+xHyrByv5rjF+0FEvH5NxxTkrcIiTzg8pLIeXRMu+KWfO6obZGMsIDNmL98bfCFQaDwWAwGAxGWaGApUB8h9Zz2w28qlAfgz3cMKK58pkibTs3holGJuKu78eSyXJvgQ/eF2IoIeUZgn7/DZ5zf8Dk6b/iQnQG9Ot1wLethOvySIkrAq3OrdDAKBOJ8bFIFWbK0x0s7p/fDU/v4GKYiRCDJOoYMfkGfpF/ay5/eBzCUz5yIdAVvTSFOiieu8wJ9pWTcfsPbyzyuw35DTekQH2sKLy1znl4OeaYZl/UxCCRGsf0y+cwvhmjV30z4buMYnoWudJS0kjCO7pa7fFpzFCWB+RwIWWjdEJ9rCjRQ/nDvZMQV528winvFVh57BFg3g4Tl41Gd6UzL1R4FlrWGPGdLUzSwnHw4B2kVGyCIW7ijc9aXeugBvlMfpfEB0hCNd2hy+2O+vlh/vS5mLrkCMJea8K0dTf0MRQiyCElboEIy4sq1WyAXIvbTJqidhXyGRtX6BlX1EHxAg8H1NN4gfObvbDycEwZm+XGYDAYDAaDwaAUYFjhUVwnPh1u3XOvE9fVoh5LMvAm5gli6Whc1wjNejpidoda3HUFGvTH7NmO6NnMBAaCoPT0J4iIpj1zXega8GEcUuJKoEvzL6Gb/hhXd/yKlYsWYgLp+I+ftBIrdihuIa0+3iDkcQwZbDfEgFm90NpSv8jfvL7iRjpmaNivNTcTJz+og+JFs7qgDjcAWAPvY6V9ABCBBzFpgPaX6Da+Cac7urVaw3nRVPSzypkZ6n4WguFG2xJth9bL0uOSxy3ce0ryrEYrTHXpiGaVC7fcrnih2y17YYvvTIxpXIglIsVCBiL/2ADPbdcQr18fg9wnKzFYS30WFeAwdQjsTdIQcXw/jhzZh7/CU6Br1RmjeilzdFwOWsZGgg8lHdTq4oh5fayhjdeIuHydC5WGxPQ6jMCSKaSsWcvSQHIlMQqP46lDLR0orHKSElcsT0MQSYo8TO3hPKk1LLnloHwd4TKlA2poZCI6PKQQxlTqoHgyPEY1Q+XkO/jDa0M+/skYDAaDwWAwGKWdzzp06PA/4XvBmDQnnc5BsDWlPv9+xVK5GQ0WQ9zg0cUcuVbnZ2YiU0MDDw5Oh9cRIayBI7zc7ECX5Oci5Q52Tt+KM7JRvZS4dBtapT5deKiDT3c/3tlhC5f5+N62Ivddgcw0vH35EGe2bsPhSH4qSwPnOXCzr4QI+XugCP8vS66QVsjOc14XzrPk0O1JF40ig6HcPg0o8v9PdBrk0Oo8GmuG1s8ajMhQjEsdFE/G2E7m0I67AX/vgn3pfFQkPGM0GITlrvZQzN4UPAt9ji8a1UWCfF5KeBZ0Nk4/q5cI9l4OUgSyyPMZEWoPm4bZncxylQ9lzzgvlMnNpXNKkCTXpBPcPXohl+2JI8c9i/jfxYZcPZERdhDj11zgw0s4dJbYjEkdUUc3BeFHf8Za+RkNEp6FCSkXHqRcaEQGYuHyU7xx2KQr5ix0gKVmHILWe2GLEJfXX/67ItQ56zYskPfLIuUZS9GdfMox9T+zwuNQtu8TCXGl6Dpdvrpool2O+oEngzq1XfRHll8ZaWWeOiiegG8bGCLt4WmsW5mfLx0Gg8FgMBgMRllA1IyVLKhj00XeCAhPQnpqJuT3mni6yx/+wY+QlMavSs9Me4vYsLPw3XkNudyV3A7A9qO38DwhNUtGRmoCnocex2p3OUMJRUpcCfy76wLu099SQ8qbbNnQ0IZelS/Re9pY9FJlirkU0u/Cz9MXR8lAP0G2HqkIST/jj3UBJO+S0vL1FfAq+R3ePTiNlQtKuFFFKrf/gPfe63j+hs/bjDfPERrwC5aeVuJAR83PIuq3HfA/H4lYNcguUuLOwttrD87fj8VboSyXCm5fR1gMyduMBFwPKj3LlTjHpnP9ERybhvfv3ivOEhP7LBoMglvvutBNe4DjWwSjCiXuFLYcf4A0DRO0HOqYjz+XDKQmkLJx1BeeeTq7FYEU3TlxiC8Pb2V1UybS3tKlmHuw2FPOqEKRElcC6Tf3wNP7OEKfJ0GWXH45KAmXM6pIJwVJKamIDdkNz3wdFDMYDAaDwWAwygrSZqyUGSwwzHMyOhk/wtFlm3FAfrtTXXM4zXJDB4tMhO+bhZWBQjiDwWCUAfKafcFgMBgMBoPBYDBUQ9qMlTKDJcyq0fnfmtAxMcr2eaGlj2pfNkF1ziVBDKLZoIPBYDAYDAaDwWAwGAxGPnyiM1asMGb5WLTOw58GnWqeGLIbc32ul3IHrgwGg6EIm7HCYDAYDAaDwWAULZ/ojJUIbJH508hat0+g/lZiIxF8wBfzmVGFwWAwGAwGg8FgMBgMRgF8ojNWGAwGg8FgMBgMBoPBYDAKzyc6Y4XBYDAYDAaDwWAwGAwGo/AwwwqDwWAwGAwGg8FgMBgMhooUfimQNvBB6wMz0TA4yv1HFCFNOGEwGAwGg8FgMBgMBqOMU2jDygf9D/hg+AFgnloYnwHlEsuhXDKzsjEYDAaDwWAwGAwG49Og8CNgKoEZVRgUqgfMpsJgMBgMBoPBYDAYjE8ItQyDG/aegy0Lf8RGp44wEsIYDAajbFMBDtMXYvMWLywdYSWEMRgMBoPBYDAYjLJO4ZcCVfyADxU+CGeUevh+qgtaGdDvEdi/8CcEcOF5oQObLk4YaVsHlXS1oSGEhp+ZgmXnhRNGqaHcm3Io97p0T1txmLUSA+sRTYw4gjFeZ4XQ4qQ2xiyfiNYmwMtgX7j7RQjhjJJNJ7hv6QXOpPLyCrzd9+A2F14WKMs6ycoboxTSwBFebnaoJJxSmP4yGAwGg/HxUINhhZ+xMrVZZSRH7MPiXUFIEMKVUafnLMxrYZZlUJFRXIaVlr1nwdHmNc6t8C3AACQNdcktCeR3b2XBsNLAeQ7c7El3NQ/DStZ1pbxEsPdy+MlG1Eo6v9ncx8ExP+OIcCZPL/c16EdG6KyjXJqgM1amoZ+NBl6c/hULdpWt55avTvb6Hlv61RVO8kLQd1mZUFq+BOOUvGEq3zIkX96yDVuvQ7Zjms8tGiggXMujTJee8lYVDtOGo7vhQ/h5/FGEhjt1yS0JlNF7K/OGlUYYufgbNH8dhElrivIFh7rklgTK8r0xGAxGyUctI+BbAcsxZuE0TC3AqAI0Q08bM2hkxiEkcBVcFk7BCOEortkqVYzNYPyFpnBWdKhLbkmgLN+bPAlJMcK3j0dSXJTwjVHyeYPANQsxboxHmTOqyFMadLJig5boqiWcSKDk35s+zKtUgZ5WUTfd6pJbEiij93Z7D9zHTMcYenhfwUshuOxgjCpmRtAp8q6GuuSWBMryvTEYDEbJR3pPQ8sUfWbNwYJh1lCh35oDQ+iVJx/PgrH+8jO84wMZZQSTXuOwYm4PWBZeUYqV9x/4GVgfPmRynzm57bec78ySwzuYdmfpW3OhgztGbraKHPRNouw32Yfy2SqUzP/x//tDZgb3WeToNoCz5xy4dTUWAhilG000dp4OT5fmMBFCipp8dfLIzwq6nbtc5K/vYlBehpSUt8eP8VjbCvbfVBACCoaVN0ZxlKEsmD4wPirG6EX68XMH1SiCfjyDwWAwZEhbCmTSHC5TBsHWFIgJ+QPrfK4iJmspUBfMXdgb9fiYPI8DMGLbaeFEGcJvCowngc9N0an7QDjUr4kqX3xOesxpSIq9jkOH9+Fs7Hs+TvuJ2NGZ84SQJy9DfTD9QLhwBpSv3RnDO9qjoWkl6GlpABkpeJUQiX+O+OPgE9Xlcun9ZjD6fmkBAyI3Mz0JLx5dws6DxxCWKsSxHIw1w+zx6sxi3K45FX1ql0dm/CVs2HwHzUYPQYequkh5dBSe208jVviJKLmEhv09MKPRB1z4bQsiG2XHz3j7CP+e9sfP11/xEUXe28zt94WlQDpoPuJ7jGhvDu24G/D3/hUX4vh4JR5hWYOYadX8siAoLv+RR5iuDYlTtGXLjSIOTodXYUajStCy7IEZkzqijm4KHpzchtV/PEa6cI1Dtw76TxiAzlZVuDdfGamxePjvOfy2+wqeySJq2cNtzSA00H2JK+tXwfdm9oDUpI8LFvauA0QGYuHyU6CPnV9qcR8HJwRCY7IjunGyM5EWfx/Hf9mGw5FyA1ohzxLIvXvfaI+x4zqhsVkFaJKyHH/nGDZuOp+dDoqY9MqgcZ37oE09Uxho03KcitiI8/h10wncTRHiyBAbV+KUfC1zOwwe1hEtavHpzUx7i5dPbuKvrQcUygiXZ3XCsW/qaehk3V8eeaZliu4Tx6J/A0OkPTyNdSv/QmTOey8kUnQy33Ihyy+JS4EKLkOy5T6n8dfnHdFDP0TOz03+S4E+enkrQM9k6csPxbRrwtyuOwb0aoy6Vfg32Mr0TLpcgpjyxtWhhghefwgfBg5Hy2oaeHf7KBbvzITTzN5oZET6EEHbsWjL3ey8EFmOxZYLyfdWDGWIUiT1b07ElBGx9RlFlTSIQUQaZMvy8ibHclvS17Du2Rt92tigeiU98GITEHv/Mvw3ncp6htLl8nX1iFFfo6mFAZFLdCwpBuEXD8PvwAPIsozXs0QcnBOOenO6w6Z8JqIvbofnDRvMGdUa1clzDg/YgJVHhL4UQYxcwArOXuNh/yEY3j89Rqus+Bl48+ga9vvuySrHku9NtwFGuDuivbk24q7vhffGq1w7zWAwGIzCIXrGCu0MzJ37LWwrJ+P2H95Y5KNiRUyNBAvXYQd3CIaYGr2Fc+GYOhgNuchSqYieQ6dgpG1d3qhC0dCGQTV7jOzRnj9XiXoY3rsPWlWn04lJq03R1IWxSSP0HTISXYV/JR1j9B5G0tuoJmfMoGhoGcDcygEznAejaQ65FRqMQd/aZIAJDWhXtsHAUY7oXFWfnGlAv2Zr9LMUIkqUS/Otfm/F+Jp6NdGq13AMEv/SNwepuLrDG5677+CNcROM8nDDiOY6wrUSjvD2XYohpKiRzYop6kGeSduhWDCzC+povMD5zV5YlrNTr2UNZ4/x6GnDd6gpmjpVULe9I9zdOmW/yU0Pxk+//Eu6a5VgN2QgGstee5l0xZiv60A75T7+2sIbVbIxRJtFE9E7SzbV4y/Re8poOBhyERTQqT0ci+b3gS01qtAAUpYrN+qDCYMtuOscYtPLYYUxNG4jM75TT9HUQRWbrzFyaM5eqZS4EjDpBDfaoa2bnV4NbT1UqduGlJHv0Svnq3KNquiyWP7+hDxzcUQLLoJAegyOea/AT2efAbW6YNay0ehuLvyDIkJdOln0pOLP4AikVWqMr7uKy4OPVt7UpWdoh6HjO6GR3LIAmZ45Te6L2nyQdCSVt3KoPnAIWlejTuk1SfvVDJO/74NGRvSHmjBt2QFfyeoNSXIJYsuFFIqhDBVZ/SsZCXpWEtIghQa9MbK/HepW4Y0qFE0dI5g1csCUifaqz8gQ6mr7mtSYQQOIjhmYoVHP8fBwzjljWx8tJzvApgLJMNJOVWvQHbNHtEN1ffJDDX3Ua9cVDYSY0uQSKtbDSIX4pCzVtIPTuK9Ji6oiKbexY8Fa7L79BsZNB8NjUX801xWuMRgMBkNlRM1YMWk7HG5OTWCS9gznd/yMHVezpzwoc16b70wUYfZFvu+RkoKxeu1uyLseFIfwf2POY8nOANxPfk9GZ0awbd4LfcyfYP7uc0K8bHqPWocBNQravageRo/uBq3757D/6m3Ek9vX0v8SA78bga/NtHHv1DQsvyBEFRAj16j9RCzvbIUPz0/jl30nEZKYysntPeA79KhZAU8uLMLCU6/l8iwTcaG/YGFiF/h0oFaUNNz/2wu79cZhvq1plsNf0XIJ/IwV+jQykfjoBDbvOYYwmOPbIa7oaaFN5M/AkrPCjByB/O5NmfNaapSbNaULamkn4vaBX/DTsZgcgwvxFPhmpph3Y+HfVhU8Y0Wpvufx9lw9aMJy0ARM6V4T2ol3cGCtP449y73sgb8fQ8RdP4Qtv11BZFIGdGu1xtCRDrA3f4+QnxfD518hMpFJp85PtDdB4pVf4OEbB4c509Hb8j9c/2UZNl7Klp/93FLwLDgQ23cG4SHq4LtpI9Gtli4eH1uExX+84eLK51lmYjiO+e/GkdBkaDYng5IJzVApLhgr5/wBOu9LUnoFudqhh7DU7x/EpxDdNKiB5t2/Qnvtv7Fih5whTUpcefJ9c1wBA374AT1qAYnhp+C/+QxCFdKrq+B0VTHP/oTfjiuI022CMXOGo3mlBFxZvxS+N7moCuRXXxcX+ZaL/MqEDLHOaxXKu/yslJdw+XEkmiScgPuS40gsYMZK0SOuvEnXM+EtNgqq59pj8pLaiP/rLI5dfYwkUuFSPRs9ri+amrxC0EovbJGbOClWrujyluXMOAURB9fimNn3cLUzIud0httaPOjqgcE2yVn6IaUcSy8XYvMsm6IvQ+qof+XIt94hSNAzldNQEJJ1XWSZbdAfs3t9jlsnTuLstQSiFZowaNQdk5w7kT5HOPaN24xAISqPGLkViJ7NJnqWiYcnf4dvwB2SXiq3M8Y5dUW9Ck/xl/sG7E+U5RepnTLjEPzTesT1WELaQCIi7QECFv4JgylT0d5U5qhevNwsveUbQoQf242NBx4AtRwwZWZXWGoT+RN8cFihMyW1nhNZTzEYDAZDFAXMWCEDp2Fu8BjVBMavbmCbp3fhOxiRuzE9y0ltADc44pYMyTmuHaGSUYWSinTayBjUQpd6xrzlPzUBIf/4KzWqiCccW7duxM//8EYVSnryPewKf0a+aeAz6Z5qCJ+jbZ06+CL9Dg5uD+CMHxQqdx8ZdEYRudXNm3JhWSSH4uCfYXiXyRuyMskAc/fZV3jwWhiQcqggl5Dy+CiWbxeWCaU+w977j7lwQ0OV321mkR75F5Z47kZIvD4aDHLDAucGYC9HihNjdHWbjVmk84SHp7Fy7tY8Ok9WaGVJenExwfDbGMR1qCkpD4Pgd+AOElARFo3k9SEDN/124Xx0JirZ9cX34x3xtaUm4oL/wGY5o0o2aYgMWIsFfkF4SDrVSHmA3w/dJkMtwLxWEy6GPJlxV/DT3M04EJrMGeJSrv6LSBq5XDmi5RSJ6X2dxsnRtbBGuxr87Kn0pMcI+t0vd6deSlyxGLZF/VoaXHp9Vp7gjCoULr1rL+BhJlCxhk32m02OTJKfu8hAhJ+Cn550A/9wmWAEA7mJO/LEXfgVC1aexoPMqmg/zh2z+ph+guvob+HYzRho1GqE3oWvwiQitrwR1KFnHOex4Yft+D2IN6pQqJ6di6IjtnIop9IsS6n1A9Hex5ew7cgrZAp+q1Jun8W2m6mIeZPMnfNIl6tKuZBC0ZYhddW/EhCtZyUhDRK5fQArVuzBUc6oQslAUugR3OC6Z+VIj0cFtGxRv4420sKOYeXv1PhBA6ncE1j7zyMi1wJ17LmYWbwm13YQ3ea7Z5mIDvoTh+Oe4pV890wFuST3ERGwCSuFZUIpDwNxi+ueVYRJISb68GQg8o8N8Nx2DfH69THIww3OpWVmMYPBYJRA8jUJVBs4AS6dzKH79g72eJYGHxlB+PXMbSR+boFWvebg57k/YOG3A9GtduEbivK1u2Oay3z8/IPckqUCfI7kT21Uq0iafK36GDpPTiY95vUEfdenoWuE6nxkjpcPLyFIbvJIYswdPBC+ZyNdLuXpAzn/LOog7ip8lvrj33hNmNoPxw+jFLzxiOaIV07nlTkOkW8kixuljjeL5c25Huwnfo/BDQyRGf0PfJbk5zfADEakTw3TNpi3ZQ22yB+uLciQhXTlKuScCP4Uv204gci0SmhsVweacf9ip5+c3wQFkvHyQfY6c47bcaSzTnTys9zd38So67ipICgCfu7yz1hiep8ewb6zz5BmWA89ZyyBr/c0zHD+CnbKpvtLiSsWM31QX90vH91Grr1nEkPxiBbASoYgwy85EhF1Ka/8zBtqzFy29CSiMvVRr/ckuH6tJ1wpQdC3qjnLxJgj5CkrR2kZyqe8RwWE4mGmKRp3V21hqWpIKW8EdegZhybMO/TH7GWL4LM5u1wU5HMkf6TXDw+u/aWwHPDZ/WAluqxKvaNauZBC0ZQhdde/IhGtZyUhDVLRgXX/kVi8isiUS2/+PkcKwMoERqRJ0rbpj01yMumxifoPgwb0javycTle4u6563L6mIgnN54K3+WQLJfyHHfk/LOog7gLO7HUNwTxmqawd56MUY2ECwwGg8GQRL6Gleh9m+BDGsIUvfpwXDwaXVVsT4uT2GA/TF29CpuDQ/AkuTwsbNphmNNSbBzZBVWEOFLRqjcYC4c6oLGJcdaaY4ZE6C4I85zQonIGYoJ/xZJtCvPQGWrjLYJ/+hm7bydCo1o7uCzqm+0PpYjQqmoMurScoqH9BfRL7PSIDNz8zRvTp2/GgeB7iP1QCVb2X2P8oqVYOibn2nYpcYuQzA9QvheVNLTMu2LWvG6orZGM8ICNWH/8rXDlEyLxOI7feK3y1suqIbW8qUfPTHqNhbtTGwW/EwxpFE0ZUn/9K46PVJ8poI400OWornDr2RBmRjrkjKEKus0dMW+8LSpnxCDYbwO2hQoXGAwGgyGJAhax8A2h57YbeFWhPgaXFgekqc9w8Zg/Fm6YgwlrtuOfuAzo1+wExzyt8OVhaCp8VUL7Fk1hopGJuHt7sdBLbsnSmYKmr+YnNwaJdF7nu+vwlV8GJX/4HMATPrIE1CU3J/nnmTyc4+NlTrCXOT72uy1M2ZUOXV8v/5Yn1+HlmGMpBQN4hVPeK7Dy2CPAvB0m5umUMQnv6Az9x6cxI+fMAOFw8Q7mo8rQssaI72xhkhaOgwfvIKViEwyR4OBQq2sd1CCfye+S+ABJqJBeQnpSOI76+WH+9LmYuuQIwl5rwrR1N/RR4glQStwCEabCV6rZILfzUJOmqE0tv7FxhZ5xxTnI9HBAPcFB5srDqvs0Ku38e+w2Yritl4uz3RJb3rKRrGf65fMpY1XxVcu60CW17MOTmzF9QnZ54LfBzod85apW3gpGXXJzkO+9KVK0ZUiN9a9ECtazkpCGHOhVRN6ru5qjc1MTaGTG4foub0yWS+fBgrpn+cl9nox35CP5+m8K9y5/ePz2go8rBXXJzUm+eSYP9bEyEcvG2aFy8h384ekNv4/gk4vBYDDKCqK8gyiuN54Ot+4ldM2+5SDMGz0Y31hXgYGwhjw94zHCX9Kegi7KK9nh5mUqvWaGRp3boFYefW/dz7XJ3wy8fvUYcbTNoQ5x2w3GPNta3HVlFCz3Na6+iAHKN8K3I3ujjUWFIspTdcnNRkyeyaBOABfNku2CsAbehXBcyygMOdZSu09WYiS9hXtP04AarTDVpSOaVS5oMFoBDlOHwN4kDRHH9+PIkX34KzwFuladMaqXsRBHnnLQMjYS/OvooFYXR8zrYw1torMRl69zodKQmF6HEVgypRdaW8vSQHIlMQqP44kMkh6FGe5S4orlaQgiSdGEqT2cJ7WGpQE/uKKOIV2mdEANjUxEh4dAyQRykdBO8mR4jGrGd5K9NnwUx7UliqhTuPYQqNWsPtHW4kRMeSNI1rMYJNGRmbYl2g6tBwOllbs+dLjwFLx6FI0UUuFSJ6GtvxuJ7+rnNXoVI1dq/SAWdcmVIebeZKirDKmj/pWAaD0rCWmQIRh5qlmjXxfzrN8oogMtrnuWjJioV9wLG93K9dHTeQI65OkKRoTcxFt4TOpq/UY9Meu7pll1daFRl9wsxOSZDGO0nTQds7rXhsaLi9g8Px9fUAwGg8EQhahdgbIwaU4GAINga0q6KsG/YqnfbbyV7QrUfiLy8znyMtQH0w/kXP6Rz+5BqpDfjkP/3cava/xwSnGDG2jZOWNdj9zOVOXTW91hBha2tMjtBC0zE5kaGogUduORR4xcfG6D7yeMRSu66FYJsl1+ZPcF2W+FvM6SJZxnxRcrlyDbFUg+jCPn/5Ajv3ubuf2+sCsQdXw8GWM7mUM77gb8vUuDjx5xZO0CoJSXijuhFLRbw0eAziCaMakj6uimIPzoz1gr/zbWpBPcPXrBSmmPTPHeTHp9D49+daERGYiFy4WtlU26Ys5CB1hqxiFovRe2CHHz3s2JOqHchgXyflmk5JmE9GbvVJIb6v9ghcehbN8nEuLmrw9AxMHsbXy1Gjti0UQ7mCgpmhnUqe2iP7L8yvB5luMeCLL/Jy+Xd5A5Ad82METaw9NYt7IA3x5qhk9jAbsCKd25QtjVQuyuQArPWPmOGFpdx2LtYGrAI4jeLaPoyLe8SdFJgdrDpmF2J7Nc7ZG8PrSf4okRjXIXikzSZmloJCp9LmLkii5vwn3JfptTZ3Pph4RyLK1c8Ii6t2IqQ0VV/8ruNy8U7k2KnkmpU6UgWdc10dltAYY2yJkQ+TRUxZBFbuhinrtC5XU9StiNRx4xcvOvqwHZLj+5dTmnfvLn2fHFyqWOhPldgeTDePIqA2Lvjc40HTZvCDqZayPu+l54b7yq4AuJwWAwGKohasZKFtQB6SJvBIQnIT01EyXOth15CFv+CcWz1ylZacv47xWeRQTCa11uowol/cp2/Pg3+U1yWp6+DZ4EbsP20EdISudjZKYnIzbqNDYFhoDbFU8JYuTifRh+9vPBnxHP8eo/JYlTFXXJFRB1b4RXye/w7sFprFxQdowqZQHOKeNcfwTHpuH9u/eKM4jizsLbaw/O34/F27R8nm6DQXDrXRe6aQ9wfItgVKHEncKW4w+QpmGClkMd8/EnkIHUhOcIPeoLzzyd3YpAbHopJw7B/3wkYt/K9DYTaW9jcf/8Hiz2zNGplxJXAuk398DT+zhCnydBltyMVF6up5xRRTopSEpJRWzIbngW5DD1EyP91HlcL2AFjDrJt7ypoGdRv+3gf5Oadwt8ftMvCAiLhSxKRmoCHoX8Ce9jeWuuGLmSypsU1CVXQNS9FVMZKpL6VypS9KwkpIEjA2d+Inoc+hxJeabjBXb9tBfBj2T1KS8z7OQO7AzJq3cmRq58XZ2QVY6KAnXJ5RF3b9S5bvK7FDw49hMWMKMKg8FgFBnSZqwo4YNsxgqDQSj3ppwwY4XByCbvN2wMBoPBYDAYDAaDUbphI2AGg8FgMBgMBoPBYDAYDBUpwTNWBP8rwln+RGD/wp8QIJwxPh5sxgpDGWzGCoPBYJQR8vV7lAN5f0kMBoPBYJRh2AiYwWAwGAwGg8FgMBgMBkNFmI8VRtHxGVAusRzKJTN7HYPBYDAYDAaDwWAwPg0KbVihe1h++IIZVhgEogafvf8Mn/33mRDAYDAYDAaDwWAwGAxG2abwhhUGg8FgMBgMBoPBYDAYjE8UtmaDwWAwGAwGg8FgMBgMBkMlgP8DDeNIVaysCPoAAAAASUVORK5CYII=;" vertex="1" parent="1">
          <mxGeometry x="44" y="770" width="1110" height="73" as="geometry" />
        </mxCell>
        <mxCell id="g001ETVMJZDUqIwChMej-6" value="&lt;font style=&quot;font-size: 24px;&quot;&gt;Sin embargo tanto if_statement como while_statement solo son produciodas por statement y a ambas les&amp;nbsp; corresponde que Follow(statement) sea parte de Follow(if_statement) y de Follow(while_statement)&lt;br&gt;&lt;/font&gt;" style="text;html=1;align=center;verticalAlign=top;whiteSpace=wrap;rounded=0;" vertex="1" parent="1">
          <mxGeometry x="80" y="850" width="1080" height="120" as="geometry" />
        </mxCell>
      </root>
    </mxGraphModel>
  </diagram>
</mxfile>
